<?xml version="1.0" encoding="UTF-8"?>
<svg id="Layer_1" xmlns="http://www.w3.org/2000/svg" version="1.1" viewBox="0 0 461 316">
  <!-- Generator: Adobe Illustrator 30.0.0, SVG Export Plug-In . SVG Version: 2.1.1 Build 123)  -->
  <defs>
    <style>
      .st0 {
        fill: #fbf2ec;
        fill-rule: evenodd;
        stroke: #dbaf88;
        stroke-width: 2px;
      }

      .st1, .st2, .st3 {
        isolation: isolate;
      }

      .st2, .st4 {
        fill: #af6e24;
      }

      .st2, .st4, .st3 {
        font-family: PTMono-Regular, 'PT Mono';
        font-size: 14px;
      }

      .st5, .st3 {
        fill: #c06334;
      }
    </style>
  </defs>
  <g id="inheritance">
    <g id="animal-rabbit-static.svg">
      <path id="Rectangle-1" class="st0" d="M246,23h207v48h-207V23Z"/>
      <g id="constructor:-Animal" class="st1">
        <text class="st2" transform="translate(256 42)"><tspan x="0" y="0">constructor: Animal</tspan></text>
        <text class="st4" transform="translate(415.6 42)"><tspan x="0" y="0"> </tspan></text>
        <text class="st2" transform="translate(256 57)"><tspan x="0" y="0">run: function</tspan></text>
      </g>
      <path id="Rectangle-1-Copy" class="st0" d="M246,278h207v28h-207v-28Z"/>
      <g id="Animal.prototype" class="st1">
        <text class="st2" transform="translate(245 15)"><tspan x="0" y="0">Animal.prototype</tspan></text>
      </g>
      <path id="Rectangle-1-Copy-4" class="st0" d="M246,158h207v48h-207v-48Z"/>
      <g id="constructor:-Rabbit" class="st1">
        <text class="st2" transform="translate(256 177)"><tspan x="0" y="0">constructor: Rabbit</tspan></text>
        <text class="st4" transform="translate(415.6 177)"><tspan x="0" y="0"> </tspan></text>
        <text class="st2" transform="translate(256 192)"><tspan x="0" y="0">hide: function</tspan></text>
      </g>
      <g id="Rabbit.prototype" class="st1">
        <text class="st2" transform="translate(245 150)"><tspan x="0" y="0">Rabbit.prototype</tspan></text>
      </g>
      <path id="Rectangle-1-Copy-2" class="st0" d="M11,23h98v48H11V23Z"/>
      <g id="Animal" class="st1">
        <text class="st2" transform="translate(10 15)"><tspan x="0" y="0">Animal</tspan></text>
      </g>
      <path id="Rectangle-1-Copy-3" class="st0" d="M11,158h98v48H11v-48Z"/>
      <g id="Rabbit" class="st1">
        <text class="st2" transform="translate(10 150)"><tspan x="0" y="0">Rabbit</tspan></text>
      </g>
      <g id="rabbit" class="st1">
        <text class="st2" transform="translate(251 267)"><tspan x="0" y="0">rabbit</tspan></text>
      </g>
      <path id="Line" class="st5" d="M334.5,88.5l7,14h-6v28h-2v-28h-6l7-14Z"/>
      <path id="Line-Copy" class="st5" d="M211,30l14,7-14,7v-6h-79v-2h79v-6Z"/>
      <g id="_x5B__x5B_Prototype_x5D__x5D_" class="st1">
        <text class="st2" transform="translate(344 112)"><tspan x="0" y="0">[[Prototype]]</tspan></text>
      </g>
      <path id="Line-Copy-4" class="st5" d="M56.5,88.5l7,14h-6v28h-2v-28h-6l7-14Z"/>
      <g id="_x5B__x5B_Prototype_x5D__x5D_-Copy-2" class="st1">
        <text class="st3" transform="translate(66 112)"><tspan x="0" y="0">[[Prototype]]</tspan></text>
      </g>
      <path id="Line-Copy-3" class="st5" d="M334.5,222.5l7,14h-6v28h-2v-28h-6l7-14Z"/>
      <g id="_x5B__x5B_Prototype_x5D__x5D_-Copy" class="st1">
        <text class="st2" transform="translate(344 246)"><tspan x="0" y="0">[[Prototype]]</tspan></text>
      </g>
      <g id="prototype" class="st1">
        <text class="st2" transform="translate(139 25)"><tspan x="0" y="0">prototype</tspan></text>
      </g>
      <path id="Line-Copy-2" class="st5" d="M211,172l14,7-14,7v-6h-79v-2h79v-6Z"/>
      <g id="prototype-copy" class="st1">
        <text class="st2" transform="translate(139 168)"><tspan x="0" y="0">prototype</tspan></text>
      </g>
      <g id="compare" class="st1">
        <text class="st2" transform="translate(20 41)"><tspan x="0" y="0">compare</tspan></text>
      </g>
      <g id="name:-_x22_White-Rabbit_x22_" class="st1">
        <text class="st2" transform="translate(257 296)"><tspan x="0" y="0">name: &quot;Hvid kanin&quot;</tspan></text>
      </g>
    </g>
  </g>
</svg>