<?xml version="1.0" encoding="UTF-8"?>
<svg id="Layer_1" xmlns="http://www.w3.org/2000/svg" version="1.1" viewBox="0 0 599 493">
  <!-- Generator: Adobe Illustrator 30.0.0, SVG Export Plug-In . SVG Version: 2.1.1 Build 123)  -->
  <defs>
    <style>
      .st0 {
        fill: #ee6b47;
      }

      .st1 {
        fill: #fff;
      }

      .st1, .st2 {
        fill-rule: evenodd;
      }

      .st3 {
        fill: #8a704d;
        font-family: OpenSans, 'Open Sans';
        font-size: 14px;
      }

      .st3, .st4 {
        isolation: isolate;
      }

      .st2 {
        fill: #fff9eb;
        stroke: #e8c48e;
        stroke-width: 2px;
      }
    </style>
  </defs>
  <g id="combined">
    <g id="ifelse_task.svg">
      <path id="Path-1218-Copy" class="st0" d="M529.5,326.5v93h8l-9.5,19-9.5-19h8v-90h-82v-3h85ZM372.5,131.5v126h8l-9.5,19-9.5-19h8v-123h-82v-3h85Z"/>
      <g id="Rectangle-1-_x2B_-Корень">
        <path id="Rectangle-1" class="st2" d="M195,5h50c7.73,0,14,6.27,14,14h0c0,7.73-6.27,14-14,14h-50c-7.73,0-14-6.27-14-14h0c0-7.73,6.27-14,14-14Z"/>
        <g id="Begin" class="st4">
          <g class="st4">
            <text class="st3" transform="translate(201 24)"><tspan x="0" y="0">Start</tspan></text>
          </g>
        </g>
      </g>
      <g id="Rectangle-1-_x2B_-Корень-Copy-2">
        <path id="Rectangle-11" class="st2" d="M25.5,244h82c13.53,0,24.5,10.97,24.5,24.5h0c0,13.53-10.97,24.5-24.5,24.5H25.5c-13.53,0-24.5-10.97-24.5-24.5h0c0-13.53,10.97-24.5,24.5-24.5Z"/>
        <g id="Canceled" class="st4">
          <g class="st4">
            <text class="st3" transform="translate(36.65 272)"><tspan x="0" y="0">Annulleret</tspan></text>
          </g>
        </g>
      </g>
      <g id="Rectangle-1-_x2B_-Корень-Copy-5">
        <path id="Rectangle-12" class="st2" d="M175.5,439h82c13.53,0,24.5,10.97,24.5,24.5h0c0,13.53-10.97,24.5-24.5,24.5h-82c-13.53,0-24.5-10.97-24.5-24.5h0c0-13.53,10.97-24.5,24.5-24.5Z"/>
        <g id="Canceled1" class="st4">
          <g class="st4">
            <text class="st3" transform="translate(186.65 467)"><tspan x="0" y="0">Annulleret</tspan></text>
          </g>
        </g>
      </g>
      <g id="Rectangle-1-_x2B_-Корень-Copy-6">
        <path id="Rectangle-13" class="st2" d="M483.5,439h82c13.53,0,24.5,10.97,24.5,24.5h0c0,13.53-10.97,24.5-24.5,24.5h-82c-13.53,0-24.5-10.97-24.5-24.5h0c0-13.53,10.97-24.5,24.5-24.5Z"/>
        <g id="Welcome_x21_" class="st4">
          <g class="st4">
            <text class="st3" transform="translate(485.09 467)"><tspan x="0" y="0">Velkommen!</tspan></text>
          </g>
        </g>
      </g>
      <g id="Rectangle-1-_x2B_-Корень-Copy-4">
        <path id="Rectangle-14" class="st2" d="M179.5,244h82c13.53,0,24.5,10.97,24.5,24.5h0c0,13.53-10.97,24.5-24.5,24.5h-82c-13.53,0-24.5-10.97-24.5-24.5h0c0-13.53,10.97-24.5,24.5-24.5Z"/>
        <g id="I-don_x27_t-know-you" class="st4">
          <g class="st4">
            <text class="st3" transform="translate(166.77 271)"><tspan x="0" y="0">Kender dig ikke</tspan></text>
          </g>
        </g>
      </g>
      <g id="Rectangle-1-_x2B_-Корень-Copy-7">
        <path id="Rectangle-15" class="st2" d="M321.5,439h98c13.53,0,24.5,10.97,24.5,24.5h0c0,13.53-10.97,24.5-24.5,24.5h-98c-13.53,0-24.5-10.97-24.5-24.5h0c0-13.53,10.97-24.5,24.5-24.5Z"/>
        <g id="Wrong-password" class="st4">
          <g class="st4">
            <text class="st3" transform="translate(314.15 467)"><tspan x="0" y="0">Forkert password</tspan></text>
          </g>
        </g>
      </g>
      <path id="Line" class="st0" d="M222,35v23.05h8l-9.5,19-9.5-19h8v-23.05s3,0,3,0Z"/>
      <path id="Path-1218" class="st0" d="M131.69,131.37v3h-59.3v85.18h8l-9.5,19-9.5-19h8v-88.18h62.3Z"/>
      <path id="Path-1218-Copy-2" class="st0" d="M281.69,326.37v3h-59.31l-.32,90.14,8,.03-9.57,18.97-9.43-19.03,8,.03.32-91.63v-1.49h62.3v-.02Z"/>
      <g id="Rectangle-354-_x2B_-Каково-_x201C_официальное_x201D_">
        <path id="Rectangle-354" class="st2" d="M129.06,133l91.55,50.86,91.55-50.86-91.55-50.86-91.55,50.86h0Z"/>
        <g id="Who_x27_s-there_x3F_" class="st4">
          <g class="st4">
            <text class="st3" transform="translate(178.72 136)"><tspan x="0" y="0">Hvem er du?</tspan></text>
          </g>
        </g>
      </g>
      <g id="Rectangle-354-_x2B_-Каково-_x201C_официальное_x201D_-Copy">
        <path id="Rectangle-3541" class="st2" d="M279.06,328l91.55,50.86,91.55-50.86-91.55-50.86-91.55,50.86h0Z"/>
        <g id="Password_x3F_" class="st4">
          <g class="st4">
            <text class="st3" transform="translate(336.03 331)"><tspan x="0" y="0">Password?</tspan></text>
          </g>
        </g>
      </g>
      <g id="Rectangle-356-_x2B_-Отмена">
        <path id="Rectangle-356" class="st1" d="M39,193h60v20h-60v-20Z"/>
        <g id="Cancel" class="st4">
          <g class="st4">
            <text class="st3" transform="translate(46.5 206)"><tspan x="0" y="0">Cancel</tspan></text>
          </g>
        </g>
      </g>
      <g id="Rectangle-356-_x2B_-Отмена-Copy">
        <path id="Rectangle-3561" class="st1" d="M189,386h60v20h-60v-20Z"/>
        <g id="Cancel1" class="st4">
          <g class="st4">
            <text class="st3" transform="translate(196.5 399)"><tspan x="0" y="0">Cancel</tspan></text>
          </g>
        </g>
      </g>
      <g id="Rectangle-356-Copy-_x2B_-_x201C_Админ_x201D_">
        <path id="Rectangle-356-Copy" class="st1" d="M341,193h60v20h-60v-20Z"/>
        <g id="Admin" class="st4">
          <g class="st4">
            <text class="st3" transform="translate(348.7 206)"><tspan x="0" y="0">Admin</tspan></text>
          </g>
        </g>
      </g>
      <g id="Rectangle-356-Copy-_x2B_-_x201C_Админ_x201D_-Copy">
        <path id="Rectangle-356-Copy1" class="st1" d="M500,386h60v20h-60v-20Z"/>
        <g id="TheMaster" class="st4">
          <g class="st4">
            <text class="st3" transform="translate(493.1 399)"><tspan x="0" y="0">TheMaster</tspan></text>
          </g>
        </g>
      </g>
      <path id="Line1" class="st0" d="M223,182v42.56h8l-9.5,19-9.5-19h8v-42.56h3Z"/>
      <path id="Line-Copy-2" class="st0" d="M373,377v42.56h8l-9.5,19-9.5-19h8v-42.56h3Z"/>
      <g id="Rectangle-356-Copy-2-_x2B_-_x201C_Админ_x201D_-Copy">
        <path id="Rectangle-356-Copy-2" class="st1" d="M191,193h60v20h-60v-20Z"/>
        <g id="Other" class="st4">
          <g class="st4">
            <text class="st3" transform="translate(201 206)"><tspan x="0" y="0">Andet</tspan></text>
          </g>
        </g>
      </g>
      <g id="Rectangle-356-Copy-2-_x2B_-_x201C_Админ_x201D_-Copy-Copy">
        <path id="Rectangle-356-Copy-21" class="st1" d="M341,386h60v20h-60v-20Z"/>
        <g id="Other1" class="st4">
          <g class="st4">
            <text class="st3" transform="translate(351 399)"><tspan x="0" y="0">Other</tspan></text>
          </g>
        </g>
      </g>
    </g>
  </g>
</svg>