<?xml version="1.0" encoding="UTF-8"?>
<svg id="Layer_1" xmlns="http://www.w3.org/2000/svg" version="1.1" viewBox="0 0 359 143">
  <!-- Generator: Adobe Illustrator 30.0.0, SVG Export Plug-In . SVG Version: 2.1.1 Build 123)  -->
  <defs>
    <style>
      .st0 {
        fill: #fbf2ec;
        stroke: #af6e24;
        stroke-width: 2px;
      }

      .st0, .st1 {
        fill-rule: evenodd;
      }

      .st2, .st3, .st4 {
        isolation: isolate;
      }

      .st3 {
        fill: #fff;
        font-size: 18px;
      }

      .st3, .st4 {
        font-family: OpenSans-Bold, 'Open Sans';
        font-weight: 700;
      }

      .st4 {
        fill: #af6e24;
        font-size: 14px;
      }

      .st1 {
        fill: #dbaf88;
      }
    </style>
  </defs>
  <g id="combined">
    <g id="variable-copy-value.svg">
      <g id="noun_x5F_1211_x5F_cc-_x2B_-Message">
        <g id="noun_1211_cc">
          <path id="Shape" class="st1" d="M28,43.2h112.56v42.95c0,.37-.08.86-.28,1.29-.2.43-16.57,35.56-16.57,35.56v-54.36l16.85-25.44,18.44-28.2H46.44l-18.44,28.2ZM28,72v-28l-15,28"/>
          <g id="Rectangle-5-_x2B_-_x22_World_x21__x22_">
            <path id="Rectangle-5" class="st0" d="M44.86,7.81l53.14,56.98-16.86,15.73L28,23.53l16.86-15.72h0Z"/>
            <g id="_x22_Hello_x21__x22_" class="st2">
              <text class="st4" transform="translate(45.76 32.16) rotate(47)"><tspan x="0" y="0">&quot;Hej!&quot;</tspan></text>
            </g>
          </g>
          <path id="Shape1" data-name="Shape" class="st1" d="M11,74v54.73c0,3.42,1.48,5.27,4.39,5.27h100.09c3.12,0,5.53-2.55,5.53-3.48v-56.52H11Z"/>
        </g>
        <g id="message" class="st2">
          <text class="st3" transform="translate(28 111)"><tspan x="0" y="0">message</tspan></text>
        </g>
      </g>
      <g id="Group">
        <path id="Shape2" data-name="Shape" class="st1" d="M227,43.2h113.42v42.95c0,.37-.08.86-.28,1.29-.2.43-16.7,35.56-16.7,35.56v-54.36l16.98-25.44,18.58-28.2h-113.42l-18.58,28.2Z"/>
        <path id="Shape3" data-name="Shape" class="st1" d="M228,72v-28l-16,28"/>
        <g id="Rectangle-5-_x2B_-_x22_World_x21__x22_1" data-name="Rectangle-5-_x2B_-_x22_World_x21__x22_">
          <path id="Rectangle-51" data-name="Rectangle-5" class="st0" d="M244.12,7.8l53.87,56.99-17.1,15.73-53.87-56.99,17.1-15.74h0Z"/>
          <g id="_x22_Hello_x21__x22_1" data-name="_x22_Hello_x21__x22_" class="st2">
            <text class="st4" transform="translate(244.71 30.91) rotate(47)"><tspan x="0" y="0">&quot;Hej!&quot;</tspan></text>
          </g>
        </g>
        <path id="Shape4" data-name="Shape" class="st1" d="M210,74v54.73c0,3.42,1.5,5.27,4.43,5.27h101c3.15,0,5.58-2.55,5.58-3.48v-56.52h-111Z"/>
        <g id="phrase" class="st2">
          <text class="st3" transform="translate(235 111)"><tspan x="0" y="0">phrase</tspan></text>
        </g>
      </g>
    </g>
  </g>
</svg>