<?xml version="1.0" encoding="UTF-8"?>
<svg id="Layer_1" xmlns="http://www.w3.org/2000/svg" version="1.1" viewBox="0 0 816 108">
  <!-- Generator: Adobe Illustrator 30.0.0, SVG Export Plug-In . SVG Version: 2.1.1 Build 123)  -->
  <defs>
    <style>
      .st0 {
        stroke: #dbaf88;
      }

      .st0, .st1 {
        fill: #fbf2ec;
        fill-rule: evenodd;
        stroke-width: 2px;
      }

      .st2, .st3, .st4 {
        isolation: isolate;
      }

      .st3 {
        fill: #af6e24;
      }

      .st3, .st4 {
        font-family: PTMono-Regular, 'PT Mono';
        font-size: 14px;
      }

      .st5, .st4 {
        fill: #c06334;
      }

      .st1 {
        stroke: #c06334;
      }
    </style>
  </defs>
  <g id="combined">
    <g id="linked-list-0.svg">
      <path id="Rectangle-15" class="st0" d="M219,61h78v32h-78v-32Z"/>
      <g id="value" class="st2">
        <text class="st3" transform="translate(241 51)"><tspan x="0" y="0">værdi</tspan></text>
      </g>
      <g id="_x2D_8" class="st2">
        <text class="st3" transform="translate(253 81)"><tspan x="0" y="0">1</tspan></text>
      </g>
      <path id="Line-21" class="st5" d="M341.27,69l14,7-14,7v-6h-58.54v-2h58.54v-6Z"/>
      <g id="next" class="st2">
        <text class="st4" transform="translate(307 65)"><tspan x="0" y="0">næste</tspan></text>
      </g>
      <path id="Rectangle-15-Copy" class="st1" d="M48,61h93v32H48v-32Z"/>
      <g id="value-copy" class="st2">
        <text class="st3" transform="translate(70 51)"><tspan x="0" y="0">værdi</tspan></text>
      </g>
      <g id="_x22_new-item_x22_" class="st2">
        <text class="st3" transform="translate(55 80)"><tspan x="0" y="0">&quot;new item&quot;</tspan></text>
      </g>
      <path id="Line-21-Copy" class="st5" d="M200.27,69l14,7-14,7v-6h-58.54v-2h58.54v-6Z"/>
      <g id="next-copy" class="st2">
        <text class="st4" transform="translate(157 65)"><tspan x="0" y="0">næste</tspan></text>
      </g>
      <path id="Rectangle-11" class="st0" d="M359,61h78v32h-78v-32Z"/>
      <g id="value-2" class="st2">
        <text class="st3" transform="translate(381 51)"><tspan x="0" y="0">værdi</tspan></text>
      </g>
      <g id="_x2D_9" class="st2">
        <text class="st3" transform="translate(393 81)"><tspan x="0" y="0">2</tspan></text>
      </g>
      <path id="Line-22" class="st5" d="M481.27,69l14,7-14,7v-6h-58.54v-2h58.54v-6Z"/>
      <g id="next-2" class="st2">
        <text class="st4" transform="translate(447 65)"><tspan x="0" y="0">næste</tspan></text>
      </g>
      <path id="Rectangle-13" class="st0" d="M498,61h78v32h-78v-32Z"/>
      <g id="value-3" class="st2">
        <text class="st3" transform="translate(520 51)"><tspan x="0" y="0">værdi</tspan></text>
      </g>
      <g id="_x2D_10" class="st2">
        <text class="st3" transform="translate(532 81)"><tspan x="0" y="0">3</tspan></text>
      </g>
      <path id="Line-23" class="st5" d="M620.27,69l14,7-14,7v-6h-58.54v-2h58.54v-6Z"/>
      <g id="next-3" class="st2">
        <text class="st4" transform="translate(586 65)"><tspan x="0" y="0">næste</tspan></text>
      </g>
      <path id="Rectangle-14" class="st0" d="M638,61h78v32h-78v-32Z"/>
      <g id="value-4" class="st2">
        <text class="st3" transform="translate(660 51)"><tspan x="0" y="0">værdi</tspan></text>
      </g>
      <g id="_x34_" class="st2">
        <text class="st3" transform="translate(672 81)"><tspan x="0" y="0">4</tspan></text>
      </g>
      <path id="Line-24" class="st5" d="M760.27,69l14,7-14,7v-6h-58.54v-2h58.54v-6Z"/>
      <g id="next-4" class="st2">
        <text class="st4" transform="translate(726 65)"><tspan x="0" y="0">næste</tspan></text>
      </g>
      <g id="null" class="st2">
        <text class="st3" transform="translate(782 80)"><tspan x="0" y="0">null</tspan></text>
      </g>
      <g id="list" class="st2">
        <text class="st3" transform="translate(8 80)"><tspan x="0" y="0">list</tspan></text>
      </g>
    </g>
  </g>
</svg>