<?xml version="1.0" encoding="UTF-8"?>
<svg id="Layer_1" xmlns="http://www.w3.org/2000/svg" version="1.1" viewBox="0 0 410 150">
  <!-- Generator: Adobe Illustrator 30.0.0, SVG Export Plug-In . SVG Version: 2.1.1 Build 123)  -->
  <defs>
    <style>
      .st0 {
        fill: #fbf2ec;
        fill-rule: evenodd;
        stroke: #dbaf88;
        stroke-width: 2px;
      }

      .st1, .st2, .st3 {
        isolation: isolate;
      }

      .st2 {
        fill: #af6e24;
      }

      .st2, .st3 {
        font-family: PTMono-Regular, 'PT Mono';
        font-size: 14px;
      }

      .st4, .st3 {
        fill: #c06334;
      }
    </style>
  </defs>
  <g id="combined">
    <g id="linked-list-split.svg">
      <path id="Rectangle-15" class="st0" d="M89,30h78v32h-78V30Z"/>
      <g id="value" class="st1">
        <text class="st2" transform="translate(111 20)"><tspan x="0" y="0">værdi</tspan></text>
      </g>
      <g id="_x2D_8" class="st1">
        <text class="st2" transform="translate(123 50)"><tspan x="0" y="0">1</tspan></text>
      </g>
      <path id="Line-21" class="st4" d="M211.27,38l14,7-14,7v-6h-58.54v-2h58.54v-6Z"/>
      <g id="next" class="st1">
        <text class="st3" transform="translate(177 34)"><tspan x="0" y="0">næste</tspan></text>
      </g>
      <path id="Rectangle-11" class="st0" d="M229,30h78v32h-78V30Z"/>
      <g id="value-2" class="st1">
        <text class="st2" transform="translate(251 20)"><tspan x="0" y="0">værdi</tspan></text>
      </g>
      <g id="_x2D_9" class="st1">
        <text class="st2" transform="translate(263 50)"><tspan x="0" y="0">2</tspan></text>
      </g>
      <path id="Line-22" class="st4" d="M351.27,38l14,7-14,7v-6h-58.54v-2h58.54v-6Z"/>
      <g id="next-2" class="st1">
        <text class="st3" transform="translate(317 34)"><tspan x="0" y="0">næste</tspan></text>
      </g>
      <path id="Rectangle-13" class="st0" d="M88,95h78v32h-78v-32Z"/>
      <g id="value-3" class="st1">
        <text class="st2" transform="translate(110 85)"><tspan x="0" y="0">værdi</tspan></text>
      </g>
      <g id="_x2D_10" class="st1">
        <text class="st2" transform="translate(122 115)"><tspan x="0" y="0">3</tspan></text>
      </g>
      <path id="Line-23" class="st4" d="M210.27,103l14,7-14,7v-6h-58.54v-2h58.54v-6Z"/>
      <g id="next-3" class="st1">
        <text class="st3" transform="translate(176 99)"><tspan x="0" y="0">næste</tspan></text>
      </g>
      <path id="Rectangle-14" class="st0" d="M228,95h78v32h-78v-32Z"/>
      <g id="value-4" class="st1">
        <text class="st2" transform="translate(250 85)"><tspan x="0" y="0">værdi</tspan></text>
      </g>
      <g id="_x34_" class="st1">
        <text class="st2" transform="translate(262 115)"><tspan x="0" y="0">4</tspan></text>
      </g>
      <path id="Line-24" class="st4" d="M350.27,103l14,7-14,7v-6h-58.54v-2h58.54v-6Z"/>
      <g id="next-4" class="st1">
        <text class="st3" transform="translate(316 99)"><tspan x="0" y="0">næste</tspan></text>
      </g>
      <g id="null" class="st1">
        <text class="st2" transform="translate(372 114)"><tspan x="0" y="0">null</tspan></text>
      </g>
      <g id="null-copy" class="st1">
        <text class="st2" transform="translate(372 49)"><tspan x="0" y="0">null</tspan></text>
      </g>
      <g id="secondList" class="st1">
        <text class="st2" transform="translate(0 114)"><tspan x="0" y="0">secondList</tspan></text>
      </g>
      <g id="list" class="st1">
        <text class="st2" transform="translate(51 49)"><tspan x="0" y="0">list</tspan></text>
      </g>
    </g>
  </g>
</svg>