<?xml version="1.0" encoding="UTF-8"?>
<svg id="Layer_1" xmlns="http://www.w3.org/2000/svg" version="1.1" viewBox="0 0 670 143">
  <!-- Generator: Adobe Illustrator 30.0.0, SVG Export Plug-In . SVG Version: 2.1.1 Build 123)  -->
  <defs>
    <style>
      .st0, .st1 {
        fill: #fbf2ec;
        fill-rule: evenodd;
        stroke: #dbaf88;
        stroke-width: 2px;
      }

      .st2, .st3, .st4, .st1, .st5 {
        isolation: isolate;
      }

      .st3, .st6, .st5 {
        fill: #c06334;
      }

      .st3, .st1 {
        opacity: .6;
      }

      .st4 {
        fill: #af6e24;
      }

      .st4, .st5 {
        font-family: PTMono-Regular, 'PT Mono';
        font-size: 14px;
      }
    </style>
  </defs>
  <g id="combined">
    <g id="linked-list-remove-1.svg">
      <path id="Rectangle-15" class="st0" d="M47,30h90v32H47V30Z"/>
      <g id="value" class="st2">
        <text class="st4" transform="translate(63 20)"><tspan x="0" y="0">værdi</tspan></text>
      </g>
      <g id="_x22_new-item_x22_" class="st2">
        <text class="st4" transform="translate(51 49)"><tspan x="0" y="0">&quot;new item&quot;</tspan></text>
      </g>
      <path id="Line-21" class="st6" d="M190.27,38l14,7-14,7v-6h-58.54v-2h58.54v-6Z"/>
      <g id="next" class="st2">
        <text class="st5" transform="translate(156 34)"><tspan x="0" y="0">næste</tspan></text>
      </g>
      <path id="Rectangle-15-Copy" class="st1" d="M117,104h78v32h-78v-32Z"/>
      <g id="value-copy" class="st2">
        <text class="st4" transform="translate(138 94)"><tspan x="0" y="0">værdi</tspan></text>
      </g>
      <g id="_x31_" class="st2">
        <text class="st4" transform="translate(149 124)"><tspan x="0" y="0">1</tspan></text>
      </g>
      <path id="Line-21-Copy" class="st3" d="M229.5,75.5l-5.64,14.6-4.04-4.44-37.42,34.07-.74.67-1.35-1.48.74-.67,37.42-34.07-4.04-4.44,15.06-4.25Z"/>
      <g id="next-copy" class="st2">
        <text class="st5" transform="translate(214 108)"><tspan x="0" y="0">næste</tspan></text>
      </g>
      <path id="Rectangle-11" class="st0" d="M208,30h78v32h-78V30Z"/>
      <g id="value-2" class="st2">
        <text class="st4" transform="translate(230 20)"><tspan x="0" y="0">værdi</tspan></text>
      </g>
      <g id="_x2D_9" class="st2">
        <text class="st4" transform="translate(242 50)"><tspan x="0" y="0">2</tspan></text>
      </g>
      <path id="Line-22" class="st6" d="M330.27,38l14,7-14,7v-6h-58.54v-2h58.54v-6Z"/>
      <g id="next-2" class="st2">
        <text class="st5" transform="translate(296 34)"><tspan x="0" y="0">næste</tspan></text>
      </g>
      <path id="Rectangle-13" class="st0" d="M347,30h78v32h-78V30Z"/>
      <g id="value-3" class="st2">
        <text class="st4" transform="translate(369 20)"><tspan x="0" y="0">værdi</tspan></text>
      </g>
      <g id="_x2D_10" class="st2">
        <text class="st4" transform="translate(381 50)"><tspan x="0" y="0">3</tspan></text>
      </g>
      <path id="Line-23" class="st6" d="M469.27,38l14,7-14,7v-6h-58.54v-2h58.54v-6Z"/>
      <g id="next-3" class="st2">
        <text class="st5" transform="translate(435 34)"><tspan x="0" y="0">næste</tspan></text>
      </g>
      <path id="Rectangle-14" class="st0" d="M487,30h78v32h-78V30Z"/>
      <g id="value-4" class="st2">
        <text class="st4" transform="translate(509 20)"><tspan x="0" y="0">værdi</tspan></text>
      </g>
      <g id="_x34_" class="st2">
        <text class="st4" transform="translate(521 50)"><tspan x="0" y="0">4</tspan></text>
      </g>
      <path id="Line-24" class="st6" d="M609.27,38l14,7-14,7v-6h-58.54v-2h58.54v-6Z"/>
      <g id="next-4" class="st2">
        <text class="st5" transform="translate(575 34)"><tspan x="0" y="0">næste</tspan></text>
      </g>
      <g id="null" class="st2">
        <text class="st4" transform="translate(631 49)"><tspan x="0" y="0">null</tspan></text>
      </g>
      <g id="list" class="st2">
        <text class="st4" transform="translate(8 49)"><tspan x="0" y="0">list</tspan></text>
      </g>
    </g>
  </g>
</svg>