<?xml version="1.0" encoding="UTF-8"?>
<svg id="Layer_1" xmlns="http://www.w3.org/2000/svg" version="1.1" viewBox="0 0 502 225">
  <!-- Generator: Adobe Illustrator 30.0.0, SVG Export Plug-In . SVG Version: 2.1.1 Build 123)  -->
  <defs>
    <style>
      .st0, .st1, .st2 {
        fill-rule: evenodd;
      }

      .st0, .st3 {
        fill: #c06334;
      }

      .st0, .st4 {
        stroke: #c06334;
        stroke-width: 3px;
      }

      .st1 {
        fill: #fff;
      }

      .st2 {
        fill: #fbf2ec;
        stroke: #dbaf88;
        stroke-width: 2px;
      }

      .st5, .st6, .st7 {
        isolation: isolate;
      }

      .st6 {
        font-family: PTMono-Regular, 'PT Mono';
      }

      .st6, .st7 {
        fill: #af6e24;
        font-size: 14px;
      }

      .st7 {
        font-family: OpenSans, 'Open Sans';
      }

      .st4 {
        fill: none;
        stroke-dasharray: 5 5;
        stroke-linecap: square;
      }
    </style>
  </defs>
  <g id="combined">
    <g id="recursion-pow.svg">
      <g id="Rectangle-1-_x2B_-Корень">
        <path id="Rectangle-1" class="st2" d="M174,3h50c7.73,0,14,6.27,14,14h0c0,7.73-6.27,14-14,14h-50c-7.73,0-14-6.27-14-14h0c0-7.73,6.27-14,14-14Z"/>
        <g id="pow_x28_x_x2C_n_x29_" class="st5">
          <text class="st6" transform="translate(167 21)"><tspan x="0" y="0">pow(x,n)</tspan></text>
        </g>
      </g>
      <g id="Rectangle-1-_x2B_-Корень-Copy-2">
        <path id="Rectangle-11" data-name="Rectangle-1" class="st2" d="M20,193h57c7.73,0,14,6.27,14,14h0c0,7.73-6.27,14-14,14H20c-7.73,0-14-6.27-14-14h0c0-7.73,6.27-14,14-14Z"/>
      </g>
      <g id="x" class="st5">
        <text class="st6" transform="translate(46.5 210)"><tspan x="0" y="0">x</tspan></text>
      </g>
      <g id="Rectangle-1-_x2B_-Корень-Copy-3">
        <path id="Rectangle-12" data-name="Rectangle-1" class="st2" d="M368,121h112c7.73,0,14,6.27,14,14h0c0,7.73-6.27,14-14,14h-112c-7.73,0-14-6.27-14-14h0c0-7.73,6.27-14,14-14Z"/>
      </g>
      <g id="x-_x2A_-pow_x28_x_x2C_-n-1_x29_" class="st5">
        <text class="st6" transform="translate(362.5 138)"><tspan x="0" y="0">x * pow(x, n-1)</tspan></text>
      </g>
      <path id="Line" class="st3" d="M201,32v41h8l-9.5,19-9.5-19h8v-41h3Z"/>
      <path id="Path-1218" class="st3" d="M110.69,129.37v3h-59.3s0,35.18,0,35.18h8l-9.5,19-9.5-19h8v-38.18h62.3Z"/>
      <path id="Rectangle-356" class="st1" d="M18,143h60v20H18v-20Z"/>
      <g id="Rectangle-354-_x2B_-Каково-_x201C_официальное_x201D_">
        <path id="Rectangle-354" class="st2" d="M199.5,101.09l79.97,34.41-79.97,34.41-79.97-34.41,79.97-34.41Z"/>
        <g id="n-_x3D__x3D_-1-_x3F_" class="st5">
          <text class="st6" transform="translate(171.9 140)"><tspan x="0" y="0">n == 1 ?</tspan></text>
        </g>
      </g>
      <g id="Yes" class="st5">
        <text class="st7" transform="translate(45 157)"><tspan x="0" y="0">Ja</tspan></text>
      </g>
      <g id="No" class="st5">
        <text class="st7" transform="translate(294 123)"><tspan x="0" y="0">Nej</tspan></text>
      </g>
      <path id="Line1" data-name="Line" class="st3" d="M324,124l19,9.5-19,9.5v-8h-38v-3h38v-8Z"/>
      <path id="Line-decoration-1" class="st0" d="M219,59l10.8-3v6l-10.8-3Z"/>
      <path id="Line2" data-name="Line" class="st4" d="M420.5,111.5v-53"/>
      <g id="recursive-call-until" class="st5">
        <text class="st7" transform="translate(233.5 49)"><tspan x="0" y="0">rekursivt kald indtil n==1</tspan></text>
      </g>
      <path id="Line-Copy" class="st4" d="M232.5,58.5h189"/>
    </g>
  </g>
</svg>