<?xml version="1.0" encoding="UTF-8"?>
<svg id="Layer_1" xmlns="http://www.w3.org/2000/svg" version="1.1" viewBox="0 0 430 185">
  <!-- Generator: Adobe Illustrator 30.0.0, SVG Export Plug-In . SVG Version: 2.1.1 Build 123)  -->
  <defs>
    <style>
      .st0, .st1, .st2, .st3, .st4, .st5 {
        isolation: isolate;
      }

      .st0, .st1, .st3, .st4 {
        font-family: PTMono-Regular, 'PT Mono';
        font-size: 14px;
      }

      .st1 {
        fill: #181717;
      }

      .st6 {
        fill-rule: evenodd;
      }

      .st6, .st3 {
        fill: #7e7c7b;
      }

      .st7 {
        fill: #c06334;
      }

      .st4 {
        fill: #478964;
      }

      .st5 {
        fill: #af6e24;
        font-family: OpenSans, 'Open Sans';
        font-size: 16px;
      }

      .st8 {
        fill: none;
        stroke: #7e7c7b;
        stroke-dasharray: 4 4;
        stroke-linecap: square;
      }
    </style>
  </defs>
  <g id="promise">
    <g id="promiseQueue.svg">
      <g id="promise.then_x28_handler" class="st2">
        <text class="st1" transform="translate(12 32)"><tspan x="0" y="0">promise</tspan></text>
        <text class="st3" transform="translate(70.8 32)"><tspan x="0" y="0">.</tspan></text>
        <text class="st1" transform="translate(79.2 32)"><tspan x="0" y="0">then</tspan></text>
        <text class="st3" transform="translate(112.8 32)"><tspan x="0" y="0">(</tspan></text>
        <text class="st1" transform="translate(121.2 32)"><tspan x="0" y="0">handler</tspan></text>
        <text class="st3" transform="translate(180 32)"><tspan x="0" y="0">);</tspan></text>
        <text class="st3" transform="translate(12 62)"><tspan x="0" y="0">...</tspan></text>
        <text class="st0" transform="translate(12 92)"><tspan x="0" y="0">alert</tspan></text>
        <text class="st3" transform="translate(54 92)"><tspan x="0" y="0">(</tspan></text>
        <text class="st4" transform="translate(62.4 92)"><tspan x="0" y="0">&quot;kode færdig&quot;</tspan></text>
        <text class="st3" transform="translate(188.4 92)"><tspan x="0" y="0">);</tspan></text>
      </g>
      <path id="Line-2" class="st8" d="M4.5,112.5h226"/>
      <g id="handler-enqueued" class="st2">
        <text class="st5" transform="translate(267 32)"><tspan x="0" y="0">handler sat i kø</tspan></text>
      </g>
      <g id="queued-handler-runs" class="st2">
        <text class="st5" transform="translate(11 153)"><tspan x="0" y="0">handlere i kø afvikles</tspan></text>
      </g>
      <g id="noun_88566_cc-copy">
        <path id="Shape" class="st6" d="M260.97,35.45c0-.34-.01-.75-.08-1.17-.09-.59-.31-1.16-.65-1.65-.17-.26-1.05-1.18-3.13-3.26-.12-.12-.25-.25-.37-.37l-.16-.16c-.07-.07-.14-.14-.2-.22-.02-.02-.04-.05-.06-.07-.06-.07-.11-.15-.16-.23-.04-.06-.06-.13-.08-.2,0-.09-.01-.18,0-.26v-.03c0-.11,0-.2.02-.27.02-.07.05-.13.1-.19.07-.1.14-.2.23-.29.08-.09.16-.17.24-.26l.06-.07.37-.37c2.08-2.08,2.95-3,3.13-3.26.33-.5.56-1.06.65-1.65.06-.39.08-.78.08-1.17v-2.05c.02-.06.03-.12.03-.19,0-1.35-3.61-2.08-7-2.08s-7,.73-7,2.08c0,.06,0,.12.03.18v2.06c0,.32,0,.74.08,1.17.09.59.31,1.15.65,1.65.17.26,1.05,1.18,3.13,3.26.19.19.32.32.37.37l.06.06c.18.17.33.35.47.55.04.06.08.12.1.19.02.07.02.16.02.27v.03c0,.1,0,.19,0,.26-.01.07-.04.14-.08.2-.05.08-.1.16-.16.23-.05.06-.1.12-.15.18-.03.04-.07.07-.1.11l-.1.1c-3.29,3.29-3.49,3.59-3.55,3.69-.33.5-.56,1.06-.65,1.65-.06.39-.08.78-.08,1.17v2.24c0,1.58,3.62,2.31,6.98,2.31s6.98-.72,6.98-2.31v-2.24ZM260.02,37.69v.02c-.05.42-2.1,1.37-6.03,1.37s-6.03-.97-6.03-1.38c0-.61,0-1.62,0-2.24,0-.31,0-.67.07-1.03.07-.46.25-.9.51-1.29.05-.08.47-.58,3.43-3.55l.11-.11c.08-.09.16-.17.24-.26.13-.14.23-.29.32-.46.07-.12.14-.29.18-.49.02-.15.02-.28.02-.41v-.03c0-.16-.02-.33-.05-.48-.05-.18-.13-.34-.24-.48-.09-.13-.18-.25-.29-.37-.09-.1-.18-.2-.28-.29l-.06-.06c-.05-.05-.19-.19-.38-.38-1.87-1.87-2.88-2.92-3.01-3.12-.26-.39-.44-.83-.51-1.29-.05-.34-.07-.69-.07-1.03v-1.14c1.3.64,3.71.98,6.03.98s4.72-.34,6.03-.98v1.14c0,.31-.01.67-.07,1.03-.07.46-.25.91-.51,1.29-.13.2-1.15,1.25-3.01,3.12-.19.19-.33.33-.38.38l-.06.06c-.09.09-.18.19-.27.29-.11.12-.2.25-.29.37-.11.15-.19.31-.24.48-.04.16-.06.32-.05.49v.03c0,.12,0,.26.02.41.03.2.11.37.18.49.09.17.2.32.32.46.08.09.16.18.24.26l.16.16.38.38c1.86,1.87,2.88,2.92,3.01,3.11.26.39.44.83.51,1.29.06.36.06.72.06,1.03,0,.62,0,1.62,0,2.24h0Z"/>
        <path id="Shape1" data-name="Shape" class="st6" d="M259.72,35.25s-.09-.09-.13-.13c-.21-.2-.42-.38-.66-.54-.24-.16-.49-.3-.75-.42-.55-.26-1.13-.47-1.72-.64-.15-.04-.29-.08-.44-.13-.15-.05-.31-.09-.46-.16-.11-.05-.22-.11-.32-.18-.17-.13-.32-.28-.45-.45-.13-.18-.26-.39-.3-.6-.04.21-.17.42-.3.6-.12.17-.27.32-.45.45-.1.07-.21.14-.33.18-.15.06-.3.11-.46.16-.14.04-.29.09-.44.13-.59.17-1.16.38-1.72.64-.26.12-.51.26-.75.42-.23.16-.45.35-.65.54-.1.09-.19.18-.28.28-.06.06-.1.12-.14.19,0,.77,2.46,1.4,5.5,1.4s5.5-.63,5.5-1.4h0c-.04-.07-.08-.14-.14-.19-.05-.05-.1-.1-.14-.15ZM253.42,26.51c.06.06.12.14.18.22.1.15.18.34.24.54.07.22.14.47.16.73.02-.26.09-.51.16-.73.07-.2.15-.39.24-.54.05-.09.11-.16.18-.22.08-.08.17-.13.25-.19.08-.05.16-.1.24-.15.16-.1.32-.21.48-.34.15-.13.31-.27.46-.42.14-.15.28-.32.41-.51.13-.2.24-.42.36-.65.05-.11.1-.22.15-.34.03-.07.06-.15.08-.23,0-.93-1.34-1.68-3-1.68s-3,.75-3,1.68h0c.02.09.05.16.08.23.05.11.1.22.15.33.11.23.23.45.36.65.13.19.27.36.41.51.14.15.3.29.46.42.16.13.32.24.48.34.08.05.16.1.24.15.08.06.17.11.25.19Z"/>
      </g>
      <g id="script-execution-fin" class="st2">
        <text class="st3" transform="translate(11 129)"><tspan x="0" y="0">script udførsel færdig</tspan></text>
      </g>
      <path id="Line-Copy" class="st7" d="M255.5,54.5v59h6l-7,14-7-14h6v-59h2Z"/>
    </g>
  </g>
</svg>