<?xml version="1.0" encoding="UTF-8"?>
<svg id="Layer_1" xmlns="http://www.w3.org/2000/svg" version="1.1" viewBox="0 0 212 192">
  <!-- Generator: Adobe Illustrator 30.0.0, SVG Export Plug-In . SVG Version: 2.1.1 Build 123)  -->
  <defs>
    <style>
      .st0 {
        fill: #fbf2ec;
        fill-rule: evenodd;
        stroke: #dbaf88;
        stroke-width: 2px;
      }

      .st1 {
        font-size: 12px;
      }

      .st1, .st2, .st3 {
        isolation: isolate;
      }

      .st1, .st3 {
        fill: #af6e24;
        font-family: PTMono-Regular, 'PT Mono';
      }

      .st3 {
        font-size: 14px;
      }

      .st4 {
        fill: #c06334;
      }

      .st5 {
        fill: none;
        stroke: #478964;
      }
    </style>
  </defs>
  <g id="combined">
    <g id="json-meetup.svg">
      <path id="Rectangle-2" class="st0" d="M71,1h89v26h-89V1Z"/>
      <g id="number:-23" class="st2">
        <text class="st1" transform="translate(84 17)"><tspan x="0" y="0">number: 23</tspan></text>
      </g>
      <path id="Rectangle-3" class="st0" d="M37,80h152v26H37v-26Z"/>
      <g id="title:-_x22_Conference_x22_" class="st2">
        <text class="st1" transform="translate(50 96)"><tspan x="0" y="0">title: &quot;Konference&quot;</tspan></text>
      </g>
      <path id="Rectangle-3-Copy" class="st0" d="M69,157h89v26h-89v-26Z"/>
      <g id="_x2E_.." class="st2">
        <text class="st1" transform="translate(103 173)"><tspan x="0" y="0">...</tspan></text>
      </g>
      <g id="place" class="st2">
        <text class="st3" transform="translate(139 56)"><tspan x="0" y="0">place</tspan></text>
      </g>
      <path id="Line" class="st4" d="M107.5,34.5v18h6l-7,14-7-14h6v-18h2Z"/>
      <path id="Line-Copy" class="st4" d="M119.5,35.5l7,14h-6v18h-2v-18h-6l7-14Z"/>
      <g id="occupiedBy" class="st2">
        <text class="st3" transform="translate(11 56)"><tspan x="0" y="0">occupiedBy</tspan></text>
      </g>
      <path id="Line-Copy-2" class="st4" d="M114.5,113.5v18h6l-7,14-7-14h6v-18h2Z"/>
      <g id="participants" class="st2">
        <text class="st3" transform="translate(2 135)"><tspan x="0" y="0">participants</tspan></text>
      </g>
      <ellipse id="Oval-32" class="st5" cx="113" cy="52.5" rx="32.58" ry="29.5"/>
    </g>
  </g>
</svg>