<?xml version="1.0" encoding="UTF-8"?>
<svg id="Layer_1" xmlns="http://www.w3.org/2000/svg" version="1.1" viewBox="0 0 774 222">
  <!-- Generator: Adobe Illustrator 30.0.0, SVG Export Plug-In . SVG Version: 2.1.1 Build 123)  -->
  <defs>
    <style>
      .st0 {
        fill: #fbf2ec;
        fill-rule: evenodd;
        stroke: #dbaf88;
        stroke-width: 2px;
      }

      .st1 {
        fill: #7e7c7b;
      }

      .st2 {
        font-size: 12px;
      }

      .st2, .st3, .st4, .st5, .st6 {
        isolation: isolate;
      }

      .st2, .st4, .st5, .st7 {
        font-family: PTMono-Regular, 'PT Mono';
      }

      .st2, .st4, .st7 {
        fill: #af6e24;
      }

      .st8 {
        fill: #1c85b5;
      }

      .st4, .st5, .st7, .st6 {
        font-size: 14px;
      }

      .st5 {
        fill: #808285;
      }

      .st9 {
        fill: #181717;
      }

      .st6 {
        font-family: PTMono-Bold, 'PT Mono';
        font-weight: 700;
      }

      .st6, .st10 {
        fill: #c06334;
      }

      .st11 {
        fill: #dbaf88;
      }

      .st12 {
        fill: none;
        stroke: #c06334;
        stroke-linecap: square;
      }

      .st13 {
        fill: #a7333a;
      }
    </style>
  </defs>
  <g id="closure">
    <g id="closure-makecounter-nested-call-2.svg">
      <g id="Group-5">
        <path id="Line" class="st12" d="M325.71,28.97h16.79"/>
        <path id="Line-Copy" class="st12" d="M325.71,114.03h16.79"/>
        <path id="Line-Copy-2" class="st12" d="M343.33,28.97v85.07"/>
      </g>
      <g id="Group-5-Copy">
        <path id="Line-Copy-21" data-name="Line-Copy-2" class="st12" d="M482.33,26.7v149.6"/>
      </g>
      <g id="Group-2">
        <path id="Rectangle-1-Copy" class="st0" d="M352,72h75v27h-75v-27Z"/>
        <g id="count:-1" class="st3">
          <text class="st6" transform="translate(355 90)"><tspan x="0" y="0">count: 1</tspan></text>
        </g>
      </g>
      <g id="Group-5-Copy-2">
        <path id="Line1" data-name="Line" class="st12" d="M207.35,67.42h8.39"/>
        <path id="Line-Copy1" data-name="Line-Copy" class="st12" d="M207.35,104.58h8.39"/>
        <path id="Line-Copy-22" data-name="Line-Copy-2" class="st12" d="M216.17,67.42v37.16"/>
      </g>
      <g id="Group-2-Copy">
        <path id="Rectangle-1-Copy1" data-name="Rectangle-1-Copy" class="st0" d="M224,72h68v27h-68v-27Z"/>
        <g id="_x3C_empty_x3E_" class="st3">
          <text class="st2" transform="translate(232.8 89)"><tspan x="0" y="0">&lt;empty&gt;</tspan></text>
        </g>
      </g>
      <g id="null" class="st3">
        <text class="st4" transform="translate(736 91)"><tspan x="0" y="0">null</tspan></text>
      </g>
      <g id="Group">
        <path id="Line2" data-name="Line" class="st10" d="M327,80l14,7-14,7v-6h-28v-2h28v-6Z"/>
        <g id="outer" class="st3">
          <text class="st2" transform="translate(300 79)"><tspan x="0" y="0">outer</tspan></text>
        </g>
      </g>
      <g id="Group1" data-name="Group">
        <path id="Line3" data-name="Line" class="st10" d="M464,80l14,7-14,7v-6h-28v-2h28v-6Z"/>
        <g id="outer1" data-name="outer" class="st3">
          <text class="st2" transform="translate(437 79)"><tspan x="0" y="0">outer</tspan></text>
        </g>
      </g>
      <g id="Group2" data-name="Group">
        <path id="Line4" data-name="Line" class="st10" d="M717,80l14,7-14,7v-6h-28v-2h28v-6Z"/>
        <g id="outer2" data-name="outer" class="st3">
          <text class="st2" transform="translate(690 79)"><tspan x="0" y="0">outer</tspan></text>
        </g>
      </g>
      <g id="Group-3">
        <path id="Rectangle-1" class="st0" d="M494,61h187v48h-187v-48Z"/>
        <g id="makeCounter:-functio" class="st3">
          <text class="st4" transform="translate(499 81)"><tspan x="0" y="0">makeCounter: function</tspan></text>
          <text class="st7" transform="translate(675.4 81)"><tspan x="0" y="0"> </tspan></text>
          <text class="st4" transform="translate(499 96)"><tspan x="0" y="0">counter: function</tspan></text>
        </g>
      </g>
      <g id="function-makeCounter">
        <path id="function" class="st8" d="M14.18,21.97v-.94h1.67v-5.12h-1.67v-.94h1.67v-.39c0-.88.23-1.51.69-1.9.46-.39,1.11-.59,1.96-.59.31,0,.58.02.83.06.24.04.5.11.78.22l-.25.91c-.22-.1-.46-.17-.7-.2-.2-.03-.41-.05-.62-.05-.62,0-1.04.15-1.26.46-.22.3-.34.8-.34,1.49h2.9v.94h-2.9v5.12h2.9v.94s-5.66,0-5.66,0ZM26.43,14.97h1.99v4.77c0,.46.03.9.08,1.32h.94v.91h-1.86l-.04-1.19h-.06c-.24.4-.57.73-.97.98-.4.25-.89.38-1.46.38-.43,0-.8-.05-1.1-.15-.29-.09-.56-.27-.75-.51-.2-.24-.34-.57-.43-.97-.09-.41-.14-.91-.14-1.52v-3.08h-.94v-.94h2.03v3.79c0,.38.02.73.05,1.03s.1.56.2.77.25.37.45.48c.2.11.47.16.81.16.48,0,.91-.16,1.27-.48.36-.32.63-.71.82-1.19v-3.63h-.9s0-.94,0-.94ZM31.05,17.42c0-.39-.03-.79-.06-1.18-.01-.12-.03-.24-.05-.36h-.94v-.91h1.88l.13,1.13h.07c.09-.16.22-.32.37-.47.34-.34.76-.59,1.23-.72.25-.08.52-.11.8-.11.43,0,.81.05,1.14.14.33.09.61.26.83.5.22.24.39.56.5.97s.17.92.17,1.55v4.02h-1.09v-3.81c0-.78-.13-1.36-.38-1.75s-.71-.59-1.37-.59c-.24,0-.48.05-.71.15-.23.1-.44.23-.62.39-.19.16-.35.34-.49.55s-.24.43-.31.66v4.4h-1.08v-4.55ZM44.3,16.05c-.23-.08-.46-.14-.69-.19-.24-.05-.49-.08-.74-.08-.92,0-1.6.21-2.04.64-.45.43-.67,1.11-.67,2.04,0,.41.07.78.2,1.1.13.32.32.6.56.82s.53.4.88.52c.34.12.72.18,1.13.18.44,0,.87-.07,1.28-.22.42-.15.76-.35,1.04-.59l.49.81c-.13.11-.29.23-.49.35-.47.29-.99.49-1.53.6-.33.07-.67.1-1.01.1-.61,0-1.14-.09-1.6-.26-.44-.16-.83-.41-1.16-.74-.31-.33-.55-.73-.7-1.16-.16-.48-.24-.99-.24-1.51,0-.59.08-1.11.25-1.57.16-.46.4-.84.71-1.15.32-.31.7-.56,1.12-.71.47-.17.97-.25,1.47-.24.69,0,1.25.06,1.69.18.43.12.8.26,1.1.41v.04s-.01,1.95-.01,1.95h-1.01s0-1.33,0-1.33ZM46.98,14.97h1.67v-1.39l1.09-.31v1.69h3.74v.94h-3.74v3.3c0,.68.17,1.19.5,1.51s.81.49,1.42.49c.42,0,.79-.08,1.1-.24.31-.16.6-.33.85-.52l.36.83c-.35.27-.75.49-1.17.63-.45.16-.92.24-1.39.24-.36,0-.72-.05-1.06-.16-.32-.1-.62-.27-.88-.5-.26-.24-.47-.53-.6-.86-.15-.35-.22-.77-.22-1.25v-3.47h-1.67s0-.94,0-.94ZM56.42,21.97v-.94h2.44v-5.12h-2.44v-.94h3.56v6.06h2.38v.94s-5.94,0-5.94,0ZM58.48,12.98c0-.25.08-.47.25-.65.16-.18.4-.28.64-.27.27,0,.5.09.68.27.18.17.28.41.27.65,0,.24-.1.46-.27.62-.18.17-.43.26-.68.25-.24,0-.47-.08-.64-.25-.17-.16-.26-.38-.25-.62ZM64.15,18.47c0-1.13.29-2.02.88-2.68.59-.66,1.43-.99,2.52-.99.59,0,1.09.1,1.52.29s.78.45,1.06.78c.28.33.49.71.62,1.16.13.45.2.93.2,1.44,0,.56-.08,1.07-.22,1.52-.15.45-.37.84-.66,1.16-.29.32-.65.56-1.07.73-.46.18-.95.27-1.45.26-.58,0-1.08-.1-1.51-.29-.41-.18-.77-.44-1.06-.78-.29-.34-.5-.74-.62-1.16-.14-.47-.21-.95-.2-1.44ZM65.31,18.47c0,.33.04.65.12.98.08.33.21.62.38.88.18.26.41.47.69.63s.63.24,1.04.24c.75,0,1.31-.23,1.69-.69s.57-1.14.57-2.04c0-.34-.04-.66-.12-.99-.08-.31-.21-.61-.39-.88-.18-.26-.42-.48-.7-.63-.28-.16-.63-.24-1.04-.24-.75,0-1.31.23-1.68.69s-.56,1.14-.56,2.04ZM73.05,17.42c0-.39-.03-.79-.06-1.18-.01-.12-.03-.24-.05-.36h-.94v-.91h1.88l.13,1.13h.07c.09-.16.22-.32.37-.47.34-.34.76-.59,1.22-.72.25-.08.52-.11.8-.11.43,0,.81.05,1.14.14.33.09.61.26.83.5.22.24.39.56.5.97s.17.92.17,1.55v4.02h-1.09v-3.81c0-.78-.13-1.36-.38-1.75s-.71-.59-1.37-.59c-.24,0-.48.05-.71.15-.23.1-.44.23-.62.39-.19.16-.35.34-.49.55-.14.21-.24.43-.31.66v4.4h-1.08s0-4.55,0-4.55Z"/>
        <path id="makeCounter" class="st9" d="M92.22,21.97v-4.66c0-.2,0-.38-.02-.57-.01-.17-.04-.33-.1-.49-.04-.13-.12-.25-.22-.34-.11-.09-.25-.13-.39-.13-.32,0-.59.13-.81.39-.22.26-.39.59-.5.98v4.82h-1.06v-7h.73l.21.85h.06c.09-.14.18-.27.27-.4.09-.13.19-.24.31-.33s.25-.17.41-.22c.16-.05.36-.08.6-.08.14,0,.29.02.43.06.15.04.29.11.41.2s.24.21.33.36c.09.15.15.33.18.55.21-.36.46-.65.72-.85.27-.2.63-.31,1.1-.31.31,0,.56.05.75.15s.34.25.45.44c.11.19.18.42.22.69.04.27.06.56.06.89v5h-1.06v-4.76c0-.2-.01-.38-.03-.55-.01-.16-.05-.31-.11-.45-.04-.12-.12-.22-.21-.31-.1-.08-.23-.12-.36-.11-.33,0-.6.13-.83.39-.22.26-.39.63-.5,1.12v4.68h-1.06,0ZM98.46,15.51c.42-.24.88-.41,1.36-.5.49-.1.99-.15,1.48-.15.48,0,.87.08,1.17.22.3.15.54.34.71.58s.29.51.35.81.09.61.09.92c0,.36-.01.73-.03,1.13-.02.4-.03.8-.04,1.2,0,.47.03.91.08,1.33h.94v.91h-1.86l-.13-1.05h-.07c-.06.08-.14.19-.25.32-.11.13-.26.26-.44.39-.47.32-1.02.48-1.59.47-.69,0-1.24-.18-1.64-.53s-.6-.84-.6-1.46c0-.48.11-.87.32-1.19s.51-.56.9-.73.87-.27,1.42-.29c.63-.02,1.25.01,1.87.11.05-.43.05-.79.02-1.07s-.11-.51-.22-.68c-.12-.17-.29-.3-.49-.36-.25-.08-.51-.11-.78-.11-.42,0-.82.06-1.2.17s-.72.24-1.02.36l-.35-.81h0ZM100.52,21.16c.26,0,.5-.04.73-.13.21-.08.41-.19.59-.32.3-.23.53-.52.67-.87v-.98c-.44-.08-.89-.12-1.34-.13-.41,0-.76.04-1.06.13-.3.09-.53.23-.7.41-.17.19-.25.43-.25.73s.11.58.32.81.56.34,1.06.34ZM105.69,12.17h2.27v5.8h.77l2.76-3h1.32l-3.09,3.32,2.55,2.74h.91v.94h-1.44l-3-3.16h-.77v3.16h-1.08v-8.86h-1.19v-.94ZM121.16,21.09c-.17.15-.37.29-.6.42-.24.14-.49.25-.75.34-.27.09-.55.17-.85.22s-.59.08-.89.08c-.56,0-1.06-.09-1.48-.26-.41-.16-.78-.41-1.08-.74-.3-.34-.52-.73-.66-1.15-.16-.49-.23-1-.22-1.51,0-.59.08-1.11.25-1.57.16-.46.4-.84.71-1.15.32-.31.7-.56,1.12-.71.47-.17.97-.25,1.47-.24.39,0,.78.05,1.16.15.38.1.72.3,1.01.58s.52.68.68,1.18c.16.5.21,1.15.17,1.94h-5.42c0,.84.23,1.47.68,1.88s1.06.62,1.81.62c.25,0,.5-.03.75-.09.25-.06.48-.13.71-.22.21-.08.41-.17.6-.28.17-.1.31-.2.4-.28l.43.8h0ZM118.2,15.72c-.31,0-.6.03-.88.1-.26.06-.51.17-.73.33-.21.15-.38.36-.52.6s-.22.55-.26.92h4.35c-.05-.62-.25-1.09-.6-1.43-.35-.34-.81-.51-1.38-.51ZM128.56,13.23c-.17-.07-.35-.12-.53-.15-.23-.04-.46-.05-.69-.05-.38,0-.76.07-1.13.21-.37.14-.69.37-.98.69-.29.32-.51.73-.69,1.25s-.26,1.14-.26,1.89c0,.67.08,1.26.23,1.76s.37.92.64,1.26c.28.34.61.59.99.76.39.17.82.25,1.29.25.24,0,.47-.02.68-.06s.4-.1.58-.18v-1.4h1.04v1.92c-.31.24-.67.42-1.05.54-.43.15-.95.22-1.57.22s-1.13-.1-1.63-.3c-.5-.2-.94-.51-1.29-.92-.36-.41-.65-.94-.85-1.57-.2-.64-.3-1.4-.3-2.28s.11-1.69.34-2.33c.22-.64.53-1.16.91-1.57.37-.4.83-.7,1.34-.89.52-.19,1.08-.28,1.63-.28.32,0,.59.01.83.04.23.02.44.06.62.1s.33.1.47.16.27.14.4.22h.01v2.21h-1.04s0-1.5,0-1.5ZM131.35,18.47c0-1.13.29-2.02.88-2.68.59-.66,1.43-.99,2.52-.99.59,0,1.09.1,1.52.29.43.19.78.45,1.06.78.28.33.49.71.62,1.16s.2.93.2,1.44c0,.56-.07,1.07-.22,1.52-.15.45-.37.84-.66,1.16-.29.32-.65.56-1.07.73-.46.18-.95.27-1.45.26-.58,0-1.08-.1-1.51-.29-.41-.18-.77-.44-1.06-.78-.29-.34-.5-.74-.62-1.16-.14-.47-.21-.95-.2-1.44ZM132.51,18.47c0,.33.04.65.12.98.08.33.21.62.39.88.18.26.41.47.69.63s.63.24,1.04.24c.75,0,1.31-.23,1.69-.69s.57-1.14.57-2.04c0-.34-.04-.66-.12-.99-.08-.31-.21-.61-.39-.88-.18-.26-.42-.48-.7-.63-.29-.16-.63-.24-1.04-.24-.75,0-1.31.23-1.68.69s-.56,1.14-.56,2.04ZM144.03,14.97h1.99v4.77c0,.46.03.9.08,1.32h.94v.91h-1.86l-.04-1.19h-.06c-.24.4-.57.73-.97.98-.4.25-.89.38-1.46.38-.43,0-.8-.05-1.1-.15-.29-.09-.56-.27-.75-.51-.2-.24-.34-.57-.43-.97-.09-.41-.14-.91-.14-1.52v-3.08h-.94v-.94h2.03v3.79c0,.38.02.73.05,1.03.03.3.1.56.2.77.1.21.25.37.45.48.2.11.47.16.8.16.49,0,.91-.16,1.27-.48.36-.32.63-.71.82-1.19v-3.63h-.9s0-.94,0-.94ZM148.65,17.42c0-.39-.03-.79-.06-1.18-.01-.12-.03-.24-.05-.36h-.94v-.91h1.88l.13,1.13h.07c.09-.16.22-.32.37-.47.34-.34.76-.59,1.23-.72.25-.08.52-.11.8-.11.43,0,.81.05,1.14.14.33.09.61.26.83.5.22.24.38.56.5.97s.17.92.17,1.55v4.02h-1.09v-3.81c0-.78-.13-1.36-.38-1.75s-.71-.59-1.37-.59c-.24,0-.48.05-.71.15-.23.1-.44.23-.62.39-.19.16-.35.34-.49.55s-.24.43-.31.66v4.4h-1.08v-4.55h0ZM156.18,14.97h1.67v-1.39l1.09-.31v1.69h3.74v.94h-3.74v3.3c0,.68.17,1.19.5,1.51s.8.49,1.42.49c.42,0,.79-.08,1.1-.24.31-.16.6-.33.85-.52l.36.83c-.35.27-.75.49-1.17.63-.45.16-.92.24-1.39.24-.36,0-.72-.05-1.06-.16-.32-.1-.62-.27-.88-.5-.26-.24-.47-.53-.6-.86-.15-.35-.22-.77-.22-1.25v-3.47h-1.67v-.94h0ZM171.56,21.09c-.17.15-.37.29-.6.42-.24.14-.49.25-.75.34-.27.09-.55.17-.85.22s-.59.08-.89.08c-.56,0-1.05-.09-1.48-.26-.41-.16-.78-.41-1.08-.74-.3-.34-.52-.73-.66-1.15-.16-.49-.23-1-.22-1.51,0-.59.08-1.11.24-1.57.16-.46.4-.84.71-1.15.32-.31.7-.56,1.12-.71.47-.17.97-.25,1.47-.24.39,0,.78.05,1.16.15.38.1.72.3,1.01.58s.52.68.68,1.18c.16.5.21,1.15.17,1.94h-5.42c0,.84.23,1.47.68,1.88s1.06.62,1.81.62c.25,0,.5-.03.75-.09.25-.06.48-.13.71-.22.21-.08.41-.17.6-.28.17-.1.31-.2.4-.28,0,0,.43.8.43.8ZM168.6,15.72c-.31,0-.6.03-.88.1-.26.06-.51.17-.73.33-.21.15-.38.36-.52.6s-.22.55-.26.92h4.35c-.05-.62-.24-1.09-.6-1.43-.35-.34-.81-.51-1.38-.51ZM173.47,21.97v-.94h1.89v-5.12h-1.89v-.94h2.62l.22.91h.07c.32-.29.67-.54,1.06-.74s.86-.31,1.4-.31c.32,0,.57.06.76.18.19.12.34.3.45.53.11.23.18.52.22.85s.06.71.06,1.13h-.98c0-.58-.06-1.02-.18-1.3-.12-.28-.33-.42-.64-.42-.29,0-.55.04-.78.13-.22.08-.42.18-.61.31-.17.12-.32.24-.44.36s-.21.22-.27.31v4.13h2.69v.94s-5.66,0-5.66,0Z"/>
        <path id="_x28__x29__x7B_" class="st1" d="M187,24.94c-.62-.15-1.21-.39-1.76-.71-.55-.32-1.03-.73-1.43-1.23-.41-.5-.73-1.12-.97-1.85s-.36-1.59-.36-2.59.12-1.86.36-2.6.57-1.37.98-1.89c.41-.52.89-.93,1.43-1.25.54-.31,1.12-.53,1.73-.67l.35.88c-.53.15-1.03.36-1.51.62-.46.26-.86.61-1.18,1.02-.33.42-.59.95-.77,1.58s-.27,1.39-.27,2.29.11,1.68.33,2.32c.22.64.51,1.17.87,1.6.36.43.76.76,1.2.99.44.24.89.4,1.34.5,0,0-.35.97-.35.97ZM191.35,23.97c.47-.1.92-.27,1.34-.5.46-.25.87-.59,1.2-.99.36-.43.65-.96.87-1.6.22-.64.33-1.41.33-2.32s-.09-1.66-.27-2.29c-.18-.63-.44-1.16-.77-1.58-.32-.42-.72-.76-1.18-1.02-.48-.27-.99-.47-1.51-.62l.35-.88c.61.13,1.18.35,1.73.67.55.32,1.04.74,1.43,1.25.41.52.74,1.15.98,1.89.24.74.36,1.61.36,2.6s-.12,1.86-.36,2.59c-.24.73-.56,1.34-.97,1.85-.39.49-.88.91-1.43,1.23-.55.31-1.14.55-1.76.71l-.35-.97ZM209.23,21.52c0-.4-.07-.75-.2-1.04-.12-.27-.29-.52-.5-.74-.2-.2-.41-.34-.64-.43-.19-.09-.4-.13-.61-.14v-.98c.18,0,.38-.04.61-.12.23-.08.44-.21.64-.39.2-.18.37-.42.5-.71.13-.29.2-.65.2-1.08v-1.43c0-.34.05-.64.16-.92.1-.27.25-.52.45-.73.19-.2.42-.37.69-.48.27-.12.56-.17.88-.17h2.03v.98h-1.54c-.59,0-1,.14-1.23.42s-.34.69-.34,1.25v1.36c0,.38-.07.72-.21,1.02-.23.51-.62.94-1.11,1.22-.21.12-.37.18-.5.2v.08c.12.02.29.09.49.22s.41.3.6.52c.2.22.37.48.51.78.15.3.22.63.22.99v1.34c0,.57.12.99.36,1.26s.65.41,1.22.41h1.53v.98h-2.03c-.65,0-1.18-.19-1.57-.58s-.6-.96-.6-1.72v-1.37Z"/>
        <path id="let" class="st8" d="M31.42,29.17h2.32v7.45c0,.57.1.97.29,1.2.19.23.47.35.85.35.26,0,.51-.05.75-.14.24-.09.5-.25.79-.48l.5.77c-.15.13-.31.25-.49.35-.34.2-.72.34-1.11.42-.48.09-.98.07-1.44-.08-.26-.08-.49-.23-.68-.43-.2-.22-.34-.49-.41-.78-.09-.32-.14-.72-.14-1.2v-6.51h-1.23s0-.94,0-.94ZM45.56,38.09c-.17.15-.37.29-.59.42-.24.14-.49.25-.75.34-.27.09-.55.17-.85.22-.29.05-.59.08-.89.08-.56,0-1.06-.09-1.48-.26-.41-.16-.78-.41-1.08-.74-.3-.34-.52-.73-.66-1.16-.16-.49-.23-1-.22-1.51,0-.59.08-1.11.25-1.57.16-.46.4-.84.71-1.15.32-.31.7-.56,1.12-.71.47-.17.97-.25,1.47-.25.39,0,.78.05,1.16.15.38.1.72.3,1.01.58.29.28.52.68.68,1.18.16.5.22,1.15.17,1.94h-5.42c0,.84.23,1.47.68,1.88.45.42,1.06.62,1.81.62.25,0,.5-.03.75-.09.25-.06.48-.13.71-.22.21-.08.41-.17.59-.28.17-.1.31-.2.4-.28,0,0,.43.8.43.8ZM42.6,32.72c-.31,0-.6.03-.88.1-.26.06-.51.17-.73.33-.21.15-.38.35-.52.6s-.22.55-.26.92h4.35c-.05-.62-.25-1.09-.59-1.43-.35-.34-.81-.51-1.38-.51ZM46.98,31.97h1.67v-1.39l1.09-.31v1.69h3.74v.94h-3.74v3.3c0,.68.17,1.18.5,1.51s.81.49,1.42.49c.42,0,.79-.08,1.1-.24.31-.16.6-.33.85-.52l.36.83c-.35.27-.75.49-1.17.63-.45.16-.92.24-1.39.24-.36,0-.72-.05-1.06-.16-.32-.1-.62-.27-.88-.5-.26-.24-.47-.53-.6-.86-.15-.35-.22-.77-.22-1.25v-3.47h-1.67v-.94Z"/>
        <path id="count" class="st9" d="M69.5,33.05c-.23-.08-.46-.14-.69-.19-.24-.05-.49-.08-.74-.08-.92,0-1.6.22-2.04.64-.45.43-.67,1.11-.67,2.04,0,.41.06.78.2,1.1.13.32.32.59.56.82s.53.4.88.52c.34.12.72.18,1.13.18.44,0,.87-.08,1.28-.22.42-.15.76-.34,1.04-.59l.49.81c-.13.11-.29.23-.49.35-.47.29-.99.49-1.53.6-.33.07-.67.1-1.01.1-.61,0-1.14-.09-1.6-.26-.44-.16-.83-.41-1.15-.74-.31-.33-.55-.73-.7-1.16-.16-.48-.24-.99-.24-1.5,0-.59.08-1.11.24-1.57.16-.46.4-.84.71-1.15.32-.31.7-.56,1.12-.71.47-.17.97-.25,1.47-.25.69,0,1.25.06,1.69.18.43.12.8.26,1.1.41v.04s-.01,1.95-.01,1.95h-1.01s0-1.33,0-1.33ZM72.55,35.47c0-1.13.29-2.02.88-2.68.59-.66,1.43-.99,2.52-.99.59,0,1.09.1,1.52.29s.78.45,1.06.78c.28.33.49.71.62,1.16s.2.93.2,1.44c0,.56-.07,1.07-.22,1.52-.15.45-.37.84-.66,1.16-.29.32-.65.56-1.07.74-.46.18-.95.27-1.45.26-.58,0-1.08-.1-1.51-.29-.41-.18-.77-.44-1.06-.78-.29-.34-.5-.74-.62-1.16-.14-.47-.21-.95-.2-1.44h0ZM73.71,35.47c0,.33.04.65.12.98.08.33.21.62.38.88.18.26.41.47.69.63.28.16.63.24,1.04.24.75,0,1.31-.23,1.69-.69s.57-1.14.57-2.04c0-.34-.04-.67-.12-.99-.08-.31-.21-.61-.39-.88-.18-.26-.42-.48-.7-.63-.28-.16-.63-.24-1.04-.24-.75,0-1.31.23-1.68.69s-.56,1.14-.56,2.04ZM85.23,31.97h1.99v4.77c0,.46.03.9.08,1.32h.94v.91h-1.86l-.04-1.19h-.06c-.24.4-.57.73-.97.98-.4.25-.89.38-1.46.38-.43,0-.8-.05-1.1-.15-.29-.09-.56-.27-.75-.51-.2-.24-.34-.57-.43-.97-.09-.41-.14-.91-.14-1.52v-3.08h-.94v-.94h2.03v3.79c0,.38.02.73.05,1.03.03.3.1.56.2.77.1.21.25.37.46.48.2.11.47.16.81.16.49,0,.91-.16,1.27-.48.36-.32.63-.71.82-1.19v-3.63h-.9s0-.94,0-.94ZM89.85,34.42c0-.39-.03-.79-.06-1.18-.01-.12-.03-.24-.05-.36h-.94v-.91h1.88l.13,1.13h.07c.09-.16.22-.32.37-.47.34-.34.76-.59,1.22-.72.25-.08.52-.11.8-.11.43,0,.81.05,1.14.14.33.09.61.26.83.5.22.24.39.56.5.97s.17.92.17,1.55v4.02h-1.09v-3.81c0-.77-.13-1.36-.38-1.75s-.71-.59-1.37-.59c-.24,0-.48.05-.71.15-.23.1-.44.23-.62.39-.19.16-.35.34-.49.55s-.24.43-.31.67v4.4h-1.08v-4.55h0ZM97.38,31.97h1.67v-1.39l1.09-.31v1.69h3.74v.94h-3.74v3.3c0,.68.17,1.18.5,1.51s.81.49,1.42.49c.42,0,.79-.08,1.1-.24.31-.16.6-.33.85-.52l.36.83c-.35.27-.75.49-1.17.63-.45.16-.92.24-1.39.24-.36,0-.72-.05-1.06-.16-.32-.1-.62-.27-.88-.5-.26-.24-.47-.53-.6-.86-.15-.35-.22-.77-.22-1.25v-3.47h-1.67s0-.94,0-.94Z"/>
        <path id="_x3D_" class="st11" d="M114.7,32.57h6.5v1.01h-6.5v-1.01ZM114.7,34.87h6.5v1.01h-6.5v-1.01Z"/>
        <path id="_x30_" class="st13" d="M131.32,34.07c0-.79.07-1.5.21-2.14.14-.63.35-1.16.63-1.6s.64-.76,1.06-.99c.43-.23.94-.34,1.53-.34.62,0,1.15.11,1.59.34s.79.55,1.06.98c.27.43.47.96.59,1.59.12.63.18,1.35.18,2.16,0,.72-.06,1.43-.21,2.14-.14.63-.35,1.16-.63,1.6s-.64.76-1.06.99c-.43.23-.94.34-1.53.34s-1.14-.12-1.57-.37c-.44-.25-.8-.61-1.06-1.04-.28-.45-.47-.98-.6-1.6-.13-.68-.19-1.36-.18-2.05ZM137.02,34.07c0-.5-.03-.97-.08-1.41l-4.16,3.79c.16.53.4.96.71,1.27.32.32.73.48,1.25.48.82,0,1.41-.34,1.76-1.02.35-.68.53-1.72.53-3.11ZM132.48,34.07c0,.23,0,.46.02.67s.03.42.05.63l4.17-3.78c-.16-.5-.39-.91-.71-1.2s-.74-.45-1.27-.45c-.83,0-1.42.34-1.76,1.03-.34.69-.51,1.72-.51,3.1Z"/>
        <path id="_x3B_" class="st1" d="M142.16,38.2c0-.28.09-.51.27-.68.18-.17.42-.26.71-.26.35,0,.63.12.83.37s.29.59.29,1.04c.01.61-.22,1.21-.64,1.66-.17.18-.37.34-.59.46-.21.12-.4.2-.58.26l-.35-.55c.34-.13.62-.32.87-.56s.36-.54.36-.88c-.13.03-.23.04-.31.04-.27,0-.48-.08-.64-.23-.15-.15-.23-.38-.23-.68h0ZM142.28,32.7c0-.3.08-.53.25-.69s.39-.25.67-.25c.3,0,.53.08.7.25s.25.39.25.69c0,.27-.08.5-.25.67s-.4.27-.7.27c-.28,0-.5-.09-.67-.27-.17-.18-.26-.42-.25-.67Z"/>
        <path id="returnfunction" class="st8" d="M30.67,72.97v-.94h1.89v-5.12h-1.89v-.94h2.62l.22.91h.07c.32-.29.67-.54,1.06-.74.39-.21.86-.31,1.4-.31.32,0,.57.06.76.18.19.12.34.3.45.53.11.23.18.52.22.85.04.33.06.71.06,1.13h-.98c0-.58-.06-1.02-.17-1.3-.12-.28-.33-.42-.64-.42-.29,0-.55.04-.78.13-.22.08-.42.18-.61.31-.17.12-.32.24-.44.36s-.21.22-.27.31v4.13h2.69v.94s-5.66,0-5.66,0ZM45.56,72.09c-.17.15-.37.29-.59.42-.24.14-.49.25-.75.34-.27.09-.55.17-.85.22s-.59.08-.89.08c-.56,0-1.06-.09-1.48-.26-.41-.16-.78-.41-1.08-.74-.3-.34-.52-.73-.66-1.15-.16-.49-.23-1-.22-1.51,0-.59.08-1.11.25-1.57.16-.46.4-.84.71-1.15.32-.31.7-.56,1.12-.71.47-.17.97-.25,1.47-.24.39,0,.78.05,1.16.15.38.1.72.3,1.01.58.29.28.52.68.68,1.18.16.5.22,1.15.17,1.94h-5.42c0,.84.23,1.47.68,1.88.45.42,1.06.62,1.81.62.25,0,.5-.03.75-.09.25-.06.48-.13.71-.22.21-.08.41-.17.59-.28.17-.1.31-.2.4-.28,0,0,.43.8.43.8ZM42.6,66.72c-.31,0-.6.03-.88.1-.26.06-.51.17-.73.33-.21.15-.38.35-.52.6s-.22.55-.26.92h4.35c-.05-.62-.25-1.09-.59-1.44-.35-.34-.81-.51-1.38-.51ZM46.98,65.97h1.67v-1.39l1.09-.31v1.69h3.74v.94h-3.74v3.3c0,.68.17,1.19.5,1.51s.81.49,1.42.49c.42,0,.79-.08,1.1-.24.31-.16.6-.33.85-.52l.36.83c-.35.27-.75.49-1.17.63-.45.16-.92.24-1.39.24-.36,0-.72-.05-1.06-.16-.32-.1-.62-.27-.88-.5-.26-.24-.47-.53-.6-.86-.15-.35-.22-.77-.22-1.25v-3.47h-1.67v-.94ZM60.03,65.97h1.99v4.77c0,.46.03.9.08,1.32h.94v.91h-1.86l-.04-1.19h-.06c-.24.4-.57.73-.97.98-.4.25-.89.38-1.46.38-.43,0-.8-.05-1.1-.15-.29-.09-.56-.27-.75-.51-.2-.24-.34-.57-.43-.97-.09-.41-.14-.91-.14-1.52v-3.08h-.94v-.94h2.03v3.79c0,.38.02.73.05,1.03.03.3.1.56.2.77s.25.37.46.48c.2.11.47.16.81.16.49,0,.91-.16,1.27-.48.36-.32.63-.71.82-1.19v-3.63h-.9s0-.94,0-.94ZM64.27,72.97v-.94h1.89v-5.12h-1.89v-.94h2.62l.22.91h.07c.32-.29.67-.54,1.06-.74s.86-.31,1.4-.31c.32,0,.57.06.76.18.19.12.34.3.45.53.11.23.18.52.22.85s.06.71.06,1.13h-.98c0-.58-.06-1.02-.17-1.3-.12-.28-.33-.42-.64-.42-.29,0-.55.04-.78.13-.22.08-.42.18-.61.31-.17.12-.32.24-.44.36s-.21.22-.27.31v4.13h2.69v.94s-5.66,0-5.66,0ZM73.05,68.42c0-.39-.03-.79-.06-1.18-.01-.12-.03-.24-.05-.36h-.94v-.91h1.88l.13,1.13h.07c.09-.16.22-.31.37-.47.34-.34.76-.59,1.22-.72.25-.08.52-.11.8-.11.43,0,.81.05,1.14.14.33.09.61.26.83.5.22.24.39.56.5.97s.17.92.17,1.55v4.02h-1.09v-3.81c0-.78-.13-1.36-.38-1.75s-.71-.59-1.37-.59c-.24,0-.48.05-.71.15-.23.1-.44.23-.62.38-.19.16-.35.34-.49.55-.14.21-.24.43-.31.67v4.4h-1.08s0-4.55,0-4.55ZM89.78,72.97v-.94h1.67v-5.12h-1.67v-.94h1.67v-.39c0-.88.23-1.51.69-1.9s1.11-.59,1.96-.59c.31,0,.58.02.83.06s.5.11.78.22l-.25.91c-.22-.1-.46-.17-.7-.2-.2-.03-.41-.05-.62-.05-.62,0-1.04.15-1.26.46s-.34.8-.34,1.49h2.9v.94h-2.9v5.12h2.9v.94s-5.66,0-5.66,0ZM102.03,65.97h1.99v4.77c0,.46.03.9.08,1.32h.94v.91h-1.86l-.04-1.19h-.06c-.24.4-.57.73-.97.98-.4.25-.89.38-1.46.38-.43,0-.8-.05-1.1-.15-.29-.09-.56-.27-.75-.51-.2-.24-.34-.57-.43-.97-.09-.41-.14-.91-.14-1.52v-3.08h-.94v-.94h2.03v3.79c0,.38.02.73.05,1.03.03.3.1.56.2.77.1.21.25.37.46.48.2.11.47.16.81.16.49,0,.91-.16,1.27-.48.36-.32.63-.71.82-1.19v-3.63h-.9s0-.94,0-.94ZM106.65,68.42c0-.39-.03-.79-.06-1.18-.01-.12-.03-.24-.05-.36h-.94v-.91h1.88l.13,1.13h.07c.09-.16.22-.31.37-.47.34-.34.76-.59,1.22-.72.25-.08.52-.11.8-.11.43,0,.81.05,1.14.14s.61.26.83.5c.22.24.39.56.5.97s.17.92.17,1.55v4.02h-1.09v-3.81c0-.78-.13-1.36-.38-1.75s-.71-.59-1.37-.59c-.24,0-.48.05-.71.15-.23.1-.44.23-.62.38-.19.16-.35.34-.49.55-.14.21-.24.43-.31.67v4.4h-1.08v-4.55h0ZM119.9,67.05c-.23-.08-.46-.14-.69-.19-.24-.05-.49-.08-.74-.08-.92,0-1.6.22-2.04.64-.45.43-.67,1.11-.67,2.04,0,.41.07.78.2,1.1.13.32.32.6.56.82s.53.4.88.52c.34.12.72.18,1.13.18.44,0,.87-.08,1.28-.22.42-.15.76-.35,1.04-.59l.49.81c-.13.11-.29.23-.49.35-.47.29-.99.49-1.53.6-.33.07-.67.1-1.01.1-.61,0-1.14-.09-1.6-.26-.44-.16-.83-.41-1.15-.74-.31-.33-.55-.73-.7-1.16-.16-.48-.24-.99-.24-1.51,0-.59.08-1.11.25-1.57.16-.46.4-.84.71-1.15.32-.31.7-.56,1.12-.71.47-.17.97-.25,1.47-.24.69,0,1.25.06,1.69.18.43.12.8.26,1.1.41v.04s-.01,1.95-.01,1.95h-1.01s0-1.33,0-1.33ZM122.58,65.97h1.67v-1.39l1.09-.31v1.69h3.74v.94h-3.74v3.3c0,.68.17,1.19.5,1.51s.81.49,1.42.49c.42,0,.79-.08,1.1-.24.31-.16.6-.33.85-.52l.36.83c-.35.27-.75.49-1.17.63-.45.16-.92.24-1.39.24-.36,0-.72-.05-1.06-.16-.32-.1-.62-.27-.88-.5-.26-.24-.47-.53-.6-.86-.15-.35-.22-.77-.22-1.25v-3.47h-1.67s0-.94,0-.94ZM132.02,72.97v-.94h2.44v-5.12h-2.44v-.94h3.56v6.06h2.38v.94h-5.94ZM134.08,63.98c0-.25.08-.47.25-.65.16-.18.4-.28.64-.27.27,0,.5.09.68.27.18.17.28.41.27.65,0,.24-.1.46-.27.62-.18.17-.43.26-.68.25-.24,0-.47-.08-.64-.25-.17-.16-.26-.38-.25-.62ZM139.75,69.47c0-1.13.29-2.02.88-2.68.59-.66,1.43-.99,2.52-.99.59,0,1.09.1,1.52.29.43.19.78.45,1.06.78.28.33.49.71.62,1.16.13.45.2.93.2,1.44,0,.56-.07,1.07-.22,1.52-.15.45-.37.84-.66,1.15-.29.32-.65.56-1.07.74-.46.18-.95.27-1.45.26-.58,0-1.08-.1-1.51-.29-.41-.18-.77-.44-1.06-.78-.29-.34-.5-.74-.62-1.16-.14-.47-.21-.95-.2-1.44ZM140.91,69.47c0,.33.04.65.12.98.08.33.21.62.39.88.18.26.41.47.69.63s.63.24,1.04.24c.75,0,1.31-.23,1.69-.69.38-.46.57-1.14.57-2.04,0-.34-.04-.67-.12-.99-.08-.31-.21-.61-.39-.88-.18-.26-.42-.48-.7-.63-.29-.16-.63-.24-1.04-.24-.75,0-1.31.23-1.68.69s-.56,1.14-.56,2.04ZM148.65,68.42c0-.39-.03-.79-.06-1.18-.01-.12-.03-.24-.05-.36h-.94v-.91h1.88l.13,1.13h.07c.09-.16.22-.31.37-.47.34-.34.76-.59,1.23-.72.25-.08.52-.11.8-.11.43,0,.81.05,1.14.14.33.09.61.26.83.5.22.24.38.56.5.97s.17.92.17,1.55v4.02h-1.09v-3.81c0-.78-.13-1.36-.38-1.75s-.71-.59-1.37-.59c-.24,0-.48.05-.71.15-.23.1-.44.23-.62.38-.19.16-.35.34-.49.55-.14.21-.24.43-.31.67v4.4h-1.08v-4.55h0Z"/>
        <path id="_x28__x29__x7B_1" data-name="_x28__x29__x7B_" class="st1" d="M161.8,75.94c-.62-.15-1.21-.39-1.76-.71-.55-.32-1.03-.73-1.43-1.22-.41-.5-.73-1.12-.97-1.85s-.36-1.59-.36-2.59.12-1.85.36-2.6.57-1.37.98-1.89c.41-.52.89-.93,1.43-1.25.54-.31,1.12-.53,1.73-.67l.35.88c-.53.15-1.03.36-1.51.62-.46.26-.86.61-1.18,1.02-.33.42-.59.95-.77,1.58s-.27,1.39-.27,2.29.11,1.68.33,2.32c.22.64.51,1.17.87,1.6.36.42.76.76,1.2.99.44.24.89.4,1.34.5,0,0-.35.97-.35.97ZM166.15,74.97c.47-.1.92-.27,1.34-.5.46-.25.87-.59,1.2-.99.36-.42.65-.96.87-1.6.22-.64.33-1.41.33-2.32s-.09-1.66-.27-2.29c-.18-.63-.44-1.16-.77-1.58-.32-.42-.72-.76-1.18-1.02-.48-.27-.99-.47-1.51-.62l.35-.88c.61.13,1.18.35,1.73.67.55.32,1.04.74,1.43,1.25.41.52.74,1.15.98,1.89s.36,1.61.36,2.6-.12,1.86-.36,2.59c-.24.73-.56,1.34-.97,1.85-.39.49-.88.91-1.43,1.22-.55.31-1.14.55-1.76.71,0,0-.35-.97-.35-.97ZM184.03,72.52c0-.4-.07-.75-.2-1.04-.12-.27-.29-.52-.5-.74-.2-.2-.41-.34-.64-.43-.19-.09-.4-.13-.61-.14v-.98c.18,0,.38-.04.61-.12.23-.08.44-.21.64-.39.2-.18.37-.42.5-.71.13-.29.2-.65.2-1.08v-1.43c0-.34.05-.64.16-.92.1-.27.25-.52.45-.73.19-.21.42-.37.69-.48s.56-.17.88-.17h2.03v.98h-1.54c-.59,0-1,.14-1.23.42s-.34.69-.34,1.25v1.36c0,.38-.07.72-.21,1.02-.23.51-.62.94-1.11,1.22-.21.12-.37.18-.5.2v.08c.12.02.29.09.49.22s.41.3.6.52c.2.22.37.48.51.78s.22.63.22.99v1.34c0,.57.12.99.36,1.26s.65.41,1.22.41h1.53v.98h-2.03c-.65,0-1.18-.19-1.57-.58s-.6-.96-.6-1.72v-1.37Z"/>
        <path id="return" class="st8" d="M47.47,89.97v-.94h1.89v-5.12h-1.89v-.94h2.62l.22.91h.07c.32-.29.67-.54,1.06-.74.39-.21.86-.31,1.4-.31.32,0,.57.06.76.18.19.12.34.3.45.53.11.23.18.52.22.85s.06.71.06,1.13h-.98c0-.58-.06-1.02-.17-1.3s-.33-.42-.64-.42c-.29,0-.55.04-.78.13-.22.08-.42.18-.61.31-.17.12-.32.24-.44.36s-.21.22-.27.31v4.13h2.69v.94s-5.66,0-5.66,0ZM62.36,89.09c-.17.15-.37.29-.6.42-.24.14-.49.25-.75.34-.27.09-.55.17-.85.22s-.59.08-.89.08c-.56,0-1.06-.09-1.48-.26-.41-.16-.78-.41-1.08-.74-.3-.34-.52-.73-.66-1.15-.16-.49-.23-1-.22-1.51,0-.59.08-1.11.24-1.57.16-.46.4-.84.71-1.15.32-.31.7-.56,1.12-.71.47-.17.97-.25,1.47-.25.39,0,.78.05,1.16.15.38.1.72.3,1.01.58s.52.68.68,1.18c.16.5.22,1.15.17,1.94h-5.42c0,.84.23,1.47.68,1.88s1.06.62,1.81.62c.25,0,.5-.03.75-.09.25-.06.48-.13.71-.22.21-.08.41-.17.6-.28.17-.1.31-.2.4-.28l.43.8ZM59.4,83.72c-.31,0-.6.03-.88.1-.26.06-.51.17-.73.33-.21.15-.38.36-.52.6s-.22.55-.26.92h4.35c-.05-.62-.24-1.09-.6-1.43-.35-.34-.81-.51-1.38-.51ZM63.78,82.97h1.67v-1.39l1.09-.31v1.69h3.74v.94h-3.74v3.3c0,.68.17,1.18.5,1.51s.81.49,1.42.49c.42,0,.79-.08,1.1-.24.31-.16.6-.33.85-.52l.36.83c-.35.27-.75.49-1.17.63-.45.16-.92.24-1.39.24-.36,0-.72-.05-1.06-.16-.32-.1-.62-.27-.88-.5-.26-.24-.47-.53-.6-.86-.15-.35-.22-.77-.22-1.25v-3.47h-1.67s0-.94,0-.94ZM76.83,82.97h1.99v4.77c0,.46.03.9.08,1.32h.94v.91h-1.86l-.04-1.19h-.06c-.24.4-.57.73-.97.98-.4.25-.89.38-1.46.38-.43,0-.8-.05-1.1-.15-.29-.09-.56-.27-.75-.51-.2-.24-.34-.57-.43-.97-.09-.41-.14-.91-.14-1.52v-3.08h-.94v-.94h2.03v3.79c0,.38.02.73.05,1.03s.1.56.2.77.25.37.46.48c.2.11.47.16.81.16.49,0,.91-.16,1.27-.48.36-.32.63-.71.82-1.19v-3.63h-.9s0-.94,0-.94ZM81.07,89.97v-.94h1.89v-5.12h-1.89v-.94h2.62l.22.91h.07c.32-.29.67-.54,1.06-.74.39-.21.86-.31,1.4-.31.32,0,.57.06.76.18.19.12.34.3.45.53.11.23.18.52.22.85s.06.71.06,1.13h-.98c0-.58-.06-1.02-.18-1.3-.12-.28-.33-.42-.64-.42-.29,0-.55.04-.78.13-.22.08-.42.18-.61.31-.17.12-.32.24-.44.36s-.21.22-.27.31v4.13h2.69v.94s-5.66,0-5.66,0ZM89.85,85.42c0-.39-.03-.79-.06-1.18-.01-.12-.03-.24-.05-.36h-.94v-.91h1.88l.13,1.13h.07c.09-.16.22-.32.37-.47.34-.34.76-.59,1.22-.72.25-.07.52-.11.8-.11.43,0,.81.05,1.14.14s.61.26.83.5c.22.24.39.56.5.97.11.41.17.92.17,1.55v4.02h-1.09v-3.81c0-.78-.13-1.36-.38-1.75s-.71-.59-1.37-.59c-.24,0-.48.05-.71.15-.23.1-.44.23-.62.39-.19.16-.35.34-.49.55s-.24.43-.31.67v4.4h-1.08v-4.55h0Z"/>
        <path id="count1" data-name="count" class="st9" d="M111.5,84.05c-.23-.08-.46-.14-.69-.19-.24-.05-.49-.08-.74-.08-.92,0-1.6.21-2.04.64-.45.43-.67,1.11-.67,2.04,0,.41.07.78.2,1.1.13.32.32.6.56.82s.53.4.88.52c.34.12.72.18,1.13.18.44,0,.87-.07,1.28-.22.42-.15.76-.35,1.04-.59l.49.81c-.13.11-.29.23-.49.35-.47.29-.99.49-1.53.6-.33.07-.67.1-1.01.1-.61,0-1.14-.09-1.6-.26-.44-.16-.83-.41-1.15-.74-.31-.33-.55-.73-.7-1.16-.16-.48-.24-.99-.24-1.5,0-.59.08-1.11.25-1.57.16-.46.4-.84.71-1.15.32-.31.7-.56,1.12-.71.47-.17.97-.25,1.47-.25.69,0,1.25.06,1.69.18.43.12.8.26,1.1.41v.04s-.01,1.95-.01,1.95h-1.01v-1.33h0ZM114.55,86.47c0-1.13.29-2.02.88-2.68.59-.66,1.43-.99,2.52-.99.59,0,1.09.1,1.52.29.43.19.78.45,1.06.78s.49.71.62,1.16c.14.45.2.93.2,1.44,0,.56-.07,1.07-.22,1.52-.15.45-.37.84-.66,1.15-.29.32-.65.56-1.07.74-.46.18-.95.27-1.45.26-.58,0-1.08-.1-1.51-.29-.41-.18-.77-.44-1.06-.78-.29-.34-.5-.74-.62-1.16-.14-.47-.21-.95-.2-1.44ZM115.71,86.47c0,.33.04.65.12.98.08.33.21.62.39.88.18.26.41.47.69.63s.63.24,1.04.24c.75,0,1.31-.23,1.69-.69s.57-1.14.57-2.04c0-.34-.04-.67-.12-.99-.08-.31-.21-.61-.39-.88-.18-.26-.42-.48-.7-.63-.29-.16-.63-.24-1.04-.24-.75,0-1.31.23-1.68.69s-.56,1.14-.56,2.04ZM127.23,82.97h1.99v4.77c0,.46.03.9.08,1.32h.94v.91h-1.86l-.04-1.19h-.06c-.24.4-.57.73-.97.98-.4.25-.89.38-1.46.38-.43,0-.8-.05-1.1-.15-.29-.09-.56-.27-.75-.51-.2-.24-.34-.57-.43-.97-.09-.41-.14-.91-.14-1.52v-3.08h-.94v-.94h2.03v3.79c0,.38.02.73.05,1.03.03.3.1.56.2.77.1.21.25.37.46.48.2.11.47.16.81.16.49,0,.91-.16,1.27-.48.36-.32.63-.71.82-1.19v-3.63h-.9s0-.94,0-.94ZM131.85,85.42c0-.39-.03-.79-.06-1.18-.01-.12-.03-.24-.05-.36h-.94v-.91h1.88l.13,1.13h.07c.09-.16.22-.32.37-.47.34-.34.76-.59,1.22-.72.25-.07.52-.11.8-.11.43,0,.81.05,1.14.14s.61.26.83.5c.22.24.39.56.5.97.11.41.17.92.17,1.55v4.02h-1.09v-3.81c0-.78-.13-1.36-.38-1.75s-.71-.59-1.37-.59c-.24,0-.48.05-.71.15-.23.1-.44.23-.62.39-.19.16-.35.34-.49.55s-.24.43-.31.67v4.4h-1.08v-4.55h0ZM139.38,82.97h1.67v-1.39l1.09-.31v1.69h3.74v.94h-3.74v3.3c0,.68.17,1.18.5,1.51s.8.49,1.42.49c.42,0,.79-.08,1.1-.24.31-.16.6-.33.85-.52l.36.83c-.35.27-.75.49-1.17.63-.45.16-.92.24-1.39.24-.36,0-.72-.05-1.06-.16-.32-.1-.62-.27-.88-.5-.26-.24-.47-.53-.6-.86-.15-.35-.22-.77-.22-1.25v-3.47h-1.67v-.94h0Z"/>
        <path id="_x2B__x2B_" class="st11" d="M148.02,84.73h3.02v-3.09h1.01v3.09h3.02v1.01h-3.02v3.09h-1.01v-3.09h-3.02s0-1.01,0-1.01ZM156.42,84.73h3.02v-3.09h1.01v3.09h3.02v1.01h-3.02v3.09h-1.01v-3.09h-3.02s0-1.01,0-1.01Z"/>
        <path id="_x3B__x7D__x3B__x7D_" class="st1" d="M167.36,89.2c0-.28.09-.51.27-.68.18-.17.42-.26.71-.26.35,0,.63.12.83.37s.29.6.29,1.04c.01.61-.22,1.21-.64,1.66-.17.18-.37.34-.59.46-.21.12-.4.2-.58.26l-.35-.55c.34-.13.62-.32.87-.56s.36-.54.36-.88c-.13.03-.23.04-.31.04-.27,0-.48-.08-.64-.23-.15-.15-.23-.38-.23-.68h0ZM167.48,83.7c0-.3.08-.53.25-.69s.39-.25.67-.25c.3,0,.53.08.7.25s.25.39.25.69c0,.27-.08.5-.25.67-.17.18-.4.27-.7.27-.28,0-.5-.09-.67-.27-.17-.18-.26-.42-.25-.67ZM35.07,107.89c0,.76-.2,1.33-.59,1.71-.4.39-.92.58-1.58.58h-2.03v-.98h1.53c.57,0,.98-.14,1.22-.41.24-.27.36-.69.36-1.26v-1.34c0-.36.07-.69.21-.99s.31-.56.5-.78c.2-.22.4-.39.6-.52s.37-.2.5-.22v-.08c-.13-.02-.3-.09-.5-.2-.49-.28-.87-.71-1.11-1.22-.14-.3-.21-.64-.21-1.02v-1.36c0-.55-.11-.97-.34-1.25s-.64-.42-1.23-.42h-1.54v-.98h2.03c.32,0,.61.06.88.18.27.12.5.28.69.48s.34.45.45.73c.11.28.16.59.16.92v1.43c0,.43.07.79.2,1.08.14.29.3.53.5.71.2.18.42.31.64.39.23.08.43.12.61.12v.98c-.18,0-.38.05-.61.14-.24.1-.46.25-.64.43-.21.21-.38.46-.5.74-.14.29-.2.64-.2,1.04v1.37h0ZM41.36,106.2c0-.28.09-.51.27-.68.18-.17.42-.26.71-.26.35,0,.63.12.83.37.2.25.29.6.29,1.04.01.61-.22,1.21-.64,1.66-.17.18-.37.34-.59.46-.21.12-.4.2-.58.26l-.35-.55c.34-.13.62-.32.87-.56s.36-.54.36-.88c-.13.03-.23.04-.31.04-.27,0-.48-.08-.64-.23s-.23-.38-.23-.68ZM41.48,100.7c0-.3.08-.53.25-.69.17-.16.39-.25.67-.25.3,0,.53.08.7.25.17.16.25.39.25.69,0,.27-.08.5-.25.67-.17.18-.4.27-.7.27-.28,0-.5-.09-.67-.27-.17-.18-.26-.42-.25-.67ZM18.27,124.89c0,.76-.2,1.33-.6,1.71-.4.39-.92.58-1.58.58h-2.03v-.98h1.53c.57,0,.98-.14,1.22-.41.24-.27.36-.69.36-1.26v-1.34c0-.36.07-.69.21-.99s.31-.56.5-.78c.2-.22.4-.39.6-.52.2-.13.37-.2.5-.22v-.08c-.13-.02-.3-.09-.5-.2-.49-.28-.87-.71-1.11-1.22-.14-.3-.21-.64-.21-1.02v-1.36c0-.55-.11-.97-.34-1.25-.23-.28-.64-.42-1.23-.42h-1.54v-.98h2.03c.32,0,.61.06.88.18.27.12.49.28.69.48s.34.45.45.73c.11.28.16.59.16.92v1.43c0,.43.07.79.2,1.08.14.29.3.53.5.71.2.18.41.31.64.39.23.08.43.12.61.12v.98c-.18,0-.38.05-.61.14-.24.1-.46.25-.64.43-.21.21-.38.46-.5.74-.14.29-.2.64-.2,1.04v1.37h0Z"/>
        <path id="let1" data-name="let" class="st8" d="M14.62,148.17h2.32v7.45c0,.57.1.97.29,1.2.19.23.47.35.85.35.26,0,.51-.05.75-.14s.5-.25.79-.48l.5.77c-.15.13-.31.25-.49.35-.34.2-.72.34-1.11.42-.48.09-.98.07-1.44-.08-.26-.08-.49-.23-.68-.43-.2-.22-.34-.49-.41-.78-.09-.32-.14-.72-.14-1.2v-6.51h-1.23v-.94h0ZM28.76,157.09c-.17.15-.37.29-.6.42-.24.14-.49.25-.75.34-.27.09-.55.17-.85.22-.29.05-.59.08-.89.08-.56,0-1.06-.09-1.48-.26-.41-.16-.78-.41-1.08-.74-.3-.34-.52-.73-.66-1.15-.16-.49-.23-1-.22-1.51,0-.59.08-1.11.24-1.57.16-.46.4-.84.71-1.15.32-.31.7-.56,1.12-.71.47-.17.97-.25,1.47-.24.39,0,.78.05,1.16.15.38.1.72.3,1.02.58.29.29.52.68.68,1.18.16.5.22,1.15.17,1.94h-5.42c0,.84.23,1.47.68,1.88s1.06.62,1.81.62c.25,0,.5-.03.75-.09.25-.06.48-.13.71-.22.21-.08.41-.17.6-.28.17-.1.31-.2.4-.28,0,0,.43.8.43.8ZM25.8,151.72c-.31,0-.6.03-.88.1-.26.06-.51.17-.73.33-.21.15-.38.35-.52.6s-.22.55-.26.92h4.35c-.05-.62-.24-1.09-.6-1.43-.35-.34-.81-.51-1.38-.51h0ZM30.18,150.97h1.67v-1.39l1.09-.31v1.69h3.74v.94h-3.74v3.3c0,.68.17,1.18.5,1.51s.81.49,1.42.49c.42,0,.79-.08,1.1-.24.31-.16.59-.33.85-.52l.36.83c-.35.27-.75.49-1.17.63-.45.16-.92.24-1.39.24-.36,0-.72-.05-1.06-.16-.32-.1-.62-.27-.88-.5-.26-.24-.47-.53-.6-.86-.15-.35-.22-.77-.22-1.25v-3.47h-1.67v-.94h0Z"/>
        <path id="counter" class="st9" d="M52.7,152.05c-.23-.08-.46-.14-.69-.19-.24-.05-.49-.08-.74-.08-.92,0-1.6.21-2.04.64-.45.43-.67,1.11-.67,2.04,0,.41.06.78.2,1.1.13.32.32.6.56.82s.53.4.88.52c.34.12.72.18,1.13.18.44,0,.87-.07,1.28-.22.42-.15.76-.35,1.04-.59l.49.81c-.13.11-.29.23-.49.35-.47.29-.99.49-1.53.6-.33.07-.67.1-1.01.1-.61,0-1.14-.09-1.6-.26-.44-.16-.83-.41-1.15-.74-.31-.33-.55-.73-.7-1.16-.16-.48-.24-.99-.24-1.51,0-.59.08-1.11.24-1.57.16-.46.4-.84.71-1.15.32-.31.7-.56,1.12-.71.47-.17.97-.25,1.47-.24.69,0,1.25.06,1.69.18.43.12.8.26,1.1.41v.04s-.01,1.95-.01,1.95h-1.01v-1.33h0ZM55.75,154.47c0-1.13.29-2.02.88-2.68s1.43-.99,2.52-.99c.59,0,1.09.1,1.52.29.42.19.78.45,1.06.78s.49.71.62,1.16c.13.45.2.93.2,1.44,0,.56-.08,1.07-.22,1.52-.15.45-.37.84-.66,1.15-.29.32-.65.56-1.07.74-.46.18-.95.27-1.45.26-.58,0-1.08-.1-1.51-.29-.41-.18-.77-.44-1.06-.78-.29-.34-.5-.74-.62-1.16-.14-.47-.21-.95-.2-1.44ZM56.91,154.47c0,.33.04.65.12.98.08.33.21.62.38.88.18.26.41.47.69.63.28.16.63.24,1.04.24.75,0,1.31-.23,1.69-.69.38-.46.57-1.14.57-2.04,0-.34-.04-.66-.12-.99-.08-.31-.21-.61-.39-.88-.18-.26-.42-.48-.7-.63-.28-.16-.63-.24-1.04-.24-.75,0-1.31.23-1.68.69s-.56,1.14-.56,2.04h0ZM68.43,150.97h1.99v4.77c0,.46.03.9.08,1.32h.94v.91h-1.86l-.04-1.19h-.06c-.24.4-.57.73-.97.98-.4.25-.89.38-1.46.38-.43,0-.8-.05-1.1-.15-.29-.09-.56-.27-.75-.51-.2-.24-.34-.57-.43-.97-.09-.41-.14-.91-.14-1.52v-3.08h-.94v-.94h2.03v3.79c0,.38.02.73.05,1.03.03.3.1.56.2.77s.25.37.46.48c.2.11.47.16.81.16.49,0,.91-.16,1.27-.48.36-.32.63-.71.82-1.19v-3.63h-.9v-.94h0ZM73.05,153.42c0-.39-.03-.79-.06-1.18-.01-.12-.03-.24-.05-.36h-.94v-.91h1.88l.13,1.13h.07c.09-.16.22-.32.37-.47.34-.34.76-.59,1.22-.72.25-.07.52-.11.8-.11.43,0,.81.05,1.14.14.33.09.61.26.83.5.22.24.39.56.5.97s.17.92.17,1.55v4.02h-1.09v-3.81c0-.77-.13-1.36-.38-1.75s-.71-.59-1.37-.59c-.24,0-.48.05-.71.15-.23.1-.44.23-.62.38-.19.16-.35.34-.49.55-.14.21-.24.43-.31.66v4.4h-1.08v-4.55h0ZM80.58,150.97h1.67v-1.39l1.09-.31v1.69h3.74v.94h-3.74v3.3c0,.68.17,1.18.5,1.51s.81.49,1.42.49c.42,0,.79-.08,1.1-.24.31-.16.6-.33.85-.52l.36.83c-.35.27-.75.49-1.17.63-.45.16-.92.24-1.39.24-.36,0-.72-.05-1.06-.16-.32-.1-.62-.27-.88-.5-.26-.24-.47-.53-.6-.86-.15-.35-.22-.77-.22-1.25v-3.47h-1.67v-.94h0ZM95.96,157.09c-.17.15-.37.29-.6.42-.24.14-.49.25-.75.34-.27.09-.55.17-.85.22s-.59.08-.89.08c-.56,0-1.06-.09-1.48-.26-.41-.16-.78-.41-1.08-.74-.3-.34-.52-.73-.66-1.15-.16-.49-.23-1-.22-1.51,0-.59.08-1.11.25-1.57.16-.46.4-.84.71-1.15.32-.31.7-.56,1.12-.71.47-.17.97-.25,1.47-.24.39,0,.78.05,1.16.15.38.1.72.3,1.01.58.29.29.52.68.68,1.18.16.5.21,1.15.17,1.94h-5.42c0,.84.23,1.47.68,1.88s1.06.62,1.81.62c.25,0,.5-.03.75-.09.25-.06.48-.13.71-.22.21-.08.41-.17.6-.28.17-.1.31-.2.4-.28,0,0,.43.8.43.8ZM93,151.72c-.31,0-.6.03-.88.1-.26.06-.51.17-.73.33-.21.15-.38.35-.52.6s-.22.55-.26.92h4.35c-.05-.62-.25-1.09-.6-1.43-.35-.34-.81-.51-1.38-.51h0ZM97.87,157.97v-.94h1.89v-5.12h-1.89v-.94h2.62l.22.91h.07c.32-.29.67-.54,1.06-.74.39-.21.86-.31,1.4-.31.32,0,.57.06.76.18.19.12.34.3.45.53.11.23.18.52.22.85s.06.71.06,1.13h-.98c0-.58-.06-1.02-.18-1.3-.12-.28-.33-.42-.64-.42-.29,0-.55.04-.78.13-.22.08-.42.18-.61.31-.17.12-.32.24-.44.36s-.21.22-.27.31v4.13h2.69v.94h-5.66Z"/>
        <path id="_x3D_1" data-name="_x3D_" class="st11" d="M114.7,151.57h6.5v1.01h-6.5v-1.01ZM114.7,153.87h6.5v1.01h-6.5v-1.01Z"/>
        <path id="makeCounter1" data-name="makeCounter" class="st9" d="M134.22,157.97v-4.66c0-.2,0-.38-.02-.57-.01-.17-.04-.33-.1-.49-.04-.13-.12-.25-.22-.34-.11-.09-.25-.13-.39-.13-.32,0-.59.13-.81.39-.22.26-.39.59-.5.98v4.82h-1.06v-7h.73l.21.85h.06c.09-.14.18-.27.27-.4.09-.13.19-.24.31-.33s.25-.17.41-.22c.16-.05.36-.08.6-.08.14,0,.29.02.43.06.15.04.29.11.41.2s.24.21.33.36c.09.15.15.33.18.55.21-.36.46-.65.72-.85s.63-.31,1.1-.31c.31,0,.56.05.75.15.19.1.34.25.45.44.11.19.18.42.22.69s.06.56.06.89v5h-1.06v-4.76c0-.2-.01-.38-.03-.55-.01-.16-.05-.31-.11-.46-.04-.12-.12-.22-.21-.31-.1-.08-.23-.12-.36-.11-.33,0-.6.13-.83.39-.22.26-.39.63-.5,1.12v4.68h-1.06,0ZM140.46,151.51c.42-.24.88-.41,1.36-.5.49-.1.99-.15,1.48-.15.48,0,.87.07,1.17.22.3.15.54.34.71.58.17.24.29.51.35.81.06.3.09.61.09.92,0,.35,0,.73-.03,1.13-.02.4-.03.8-.04,1.2,0,.47.03.91.08,1.33h.94v.91h-1.86l-.13-1.05h-.07c-.06.08-.14.19-.25.32-.11.13-.26.26-.44.38-.47.32-1.02.48-1.59.47-.69,0-1.24-.18-1.64-.53s-.6-.84-.6-1.46c0-.48.11-.87.32-1.19s.51-.56.9-.73.87-.27,1.42-.29c.63-.02,1.25.01,1.87.11.05-.43.05-.79.02-1.07s-.11-.51-.22-.68c-.12-.17-.29-.3-.49-.36-.25-.08-.51-.11-.78-.1-.42,0-.82.06-1.2.18s-.72.24-1.02.36l-.35-.81ZM142.52,157.16c.26,0,.5-.04.73-.13.21-.08.41-.19.59-.32.3-.23.53-.52.67-.87v-.98c-.44-.08-.89-.12-1.34-.13-.41,0-.76.04-1.06.13-.3.09-.53.23-.7.41s-.25.43-.25.73.11.58.32.8c.21.23.56.34,1.06.34h0ZM147.69,148.17h2.27v5.8h.77l2.76-3h1.32l-3.09,3.32,2.55,2.74h.91v.94h-1.44l-3-3.16h-.77v3.16h-1.08v-8.86h-1.19v-.94ZM163.16,157.09c-.17.15-.37.29-.6.42-.24.14-.49.25-.75.34-.27.09-.55.17-.85.22s-.59.08-.89.08c-.56,0-1.05-.09-1.48-.26-.41-.16-.78-.41-1.08-.74-.3-.34-.52-.73-.66-1.15-.16-.49-.23-1-.22-1.51,0-.59.08-1.11.24-1.57.16-.46.4-.84.71-1.15.32-.31.7-.56,1.12-.71.47-.17.97-.25,1.47-.24.39,0,.78.05,1.16.15.38.1.72.3,1.01.58.29.29.52.68.68,1.18.16.5.21,1.15.17,1.94h-5.42c0,.84.23,1.47.68,1.88s1.06.62,1.81.62c.25,0,.5-.03.75-.09.25-.06.48-.13.71-.22.21-.08.41-.17.6-.28.17-.1.31-.2.4-.28l.43.8ZM160.2,151.72c-.31,0-.6.03-.88.1-.26.06-.51.17-.73.33-.21.15-.38.35-.52.6s-.22.55-.26.92h4.35c-.05-.62-.24-1.09-.6-1.43-.35-.34-.81-.51-1.38-.51h0ZM170.56,149.23c-.17-.07-.35-.12-.52-.15-.23-.04-.46-.05-.69-.05-.38,0-.76.07-1.13.21s-.7.37-.98.69c-.29.32-.51.73-.69,1.25s-.26,1.14-.26,1.89c0,.67.08,1.26.23,1.76.15.5.37.92.64,1.26s.61.59.99.76c.39.17.82.25,1.29.25.24,0,.47-.02.68-.06s.4-.1.58-.18v-1.4h1.04v1.92c-.31.24-.67.42-1.05.54-.43.15-.95.22-1.57.22s-1.13-.1-1.63-.3c-.5-.2-.94-.51-1.29-.92-.36-.41-.65-.94-.85-1.57-.2-.64-.3-1.4-.3-2.27s.11-1.69.34-2.33c.22-.64.53-1.16.91-1.57.37-.4.83-.7,1.34-.89.52-.19,1.08-.28,1.63-.28.32,0,.59.01.83.04.23.02.44.06.62.1s.33.1.47.16.27.14.4.22h.01v2.21h-1.04v-1.5h0ZM173.35,154.47c0-1.13.29-2.02.88-2.68s1.43-.99,2.52-.99c.59,0,1.09.1,1.52.29.43.19.78.45,1.06.78.28.33.49.71.62,1.16s.2.93.2,1.44c0,.56-.07,1.07-.22,1.52-.15.45-.37.84-.66,1.15-.29.32-.65.56-1.07.74-.46.18-.95.27-1.45.26-.58,0-1.08-.1-1.51-.29-.41-.18-.77-.44-1.06-.78-.29-.34-.5-.74-.62-1.16-.14-.47-.21-.95-.2-1.44h0ZM174.51,154.47c0,.33.04.65.12.98.08.33.21.62.38.88.18.26.41.47.69.63.29.16.63.24,1.04.24.75,0,1.31-.23,1.69-.69.38-.46.57-1.14.57-2.04,0-.34-.04-.66-.12-.99-.08-.31-.21-.61-.39-.88-.18-.26-.42-.48-.7-.63-.29-.16-.63-.24-1.04-.24-.75,0-1.31.23-1.68.69-.37.46-.56,1.14-.56,2.04h0ZM186.03,150.97h1.99v4.77c0,.46.03.9.08,1.32h.94v.91h-1.86l-.04-1.19h-.06c-.24.4-.57.73-.97.98-.4.25-.89.38-1.46.38-.43,0-.8-.05-1.1-.15-.29-.09-.56-.27-.75-.51-.2-.24-.34-.57-.43-.97-.09-.41-.14-.91-.14-1.52v-3.08h-.94v-.94h2.03v3.79c0,.38.02.73.05,1.03.03.3.1.56.2.77s.25.37.46.48c.2.11.47.16.8.16.49,0,.91-.16,1.27-.48.36-.32.63-.71.82-1.19v-3.63h-.9v-.94h0ZM190.65,153.42c0-.39-.03-.79-.06-1.18-.01-.12-.03-.24-.05-.36h-.94v-.91h1.88l.13,1.13h.07c.09-.16.22-.32.37-.47.34-.34.76-.59,1.23-.72.25-.07.52-.11.8-.11.43,0,.81.05,1.14.14.33.09.61.26.83.5.22.24.38.56.5.97s.17.92.17,1.55v4.02h-1.09v-3.81c0-.77-.13-1.36-.38-1.75s-.71-.59-1.37-.59c-.24,0-.48.05-.71.15-.23.1-.44.23-.62.38-.19.16-.35.34-.49.55-.14.21-.24.43-.31.66v4.4h-1.08v-4.55h0ZM198.18,150.97h1.67v-1.39l1.09-.31v1.69h3.74v.94h-3.74v3.3c0,.68.17,1.18.5,1.51s.8.49,1.42.49c.42,0,.79-.08,1.1-.24.31-.16.6-.33.85-.52l.36.83c-.35.27-.75.49-1.17.63-.45.16-.92.24-1.39.24-.36,0-.72-.05-1.06-.16-.32-.1-.62-.27-.88-.5-.26-.24-.47-.53-.6-.86-.15-.35-.22-.77-.22-1.25v-3.47h-1.67v-.94h0ZM213.56,157.09c-.17.15-.37.29-.6.42-.24.14-.49.25-.75.34-.27.09-.55.17-.85.22s-.59.08-.89.08c-.56,0-1.05-.09-1.48-.26-.41-.16-.78-.41-1.08-.74-.3-.34-.52-.73-.66-1.15-.16-.49-.23-1-.22-1.51,0-.59.08-1.11.24-1.57.16-.46.4-.84.71-1.15.32-.31.7-.56,1.12-.71.47-.17.97-.25,1.47-.24.39,0,.78.05,1.16.15.38.1.72.3,1.01.58.29.29.52.68.68,1.18.16.5.21,1.15.17,1.94h-5.42c0,.84.23,1.47.68,1.88s1.06.62,1.81.62c.25,0,.5-.03.75-.09.25-.06.48-.13.71-.22.21-.08.41-.17.6-.28.17-.1.31-.2.4-.28l.43.8ZM210.6,151.72c-.31,0-.6.03-.88.1-.26.06-.51.17-.73.33-.21.15-.38.35-.52.6s-.22.55-.26.92h4.35c-.05-.62-.24-1.09-.6-1.43-.35-.34-.81-.51-1.38-.51h0ZM215.47,157.97v-.94h1.89v-5.12h-1.89v-.94h2.62l.22.91h.07c.32-.29.67-.54,1.06-.74s.86-.31,1.4-.31c.32,0,.57.06.76.18.19.12.34.3.45.53.11.23.18.52.22.85s.06.71.06,1.13h-.98c0-.58-.06-1.02-.18-1.3s-.33-.42-.64-.42c-.29,0-.55.04-.78.13-.22.08-.42.18-.61.31-.17.12-.32.24-.44.36s-.21.22-.27.31v4.13h2.69v.94h-5.66Z"/>
        <path id="_x28__x29__x3B_" class="st1" d="M229,160.94c-.62-.15-1.21-.39-1.76-.71-.55-.32-1.03-.73-1.43-1.23-.41-.5-.73-1.12-.97-1.85s-.36-1.59-.36-2.59.12-1.85.36-2.6.57-1.37.98-1.89c.41-.52.89-.93,1.43-1.25.54-.31,1.12-.53,1.73-.66l.35.88c-.53.15-1.03.36-1.51.62-.46.26-.86.61-1.18,1.02-.33.43-.59.95-.77,1.58s-.27,1.39-.27,2.29.11,1.68.33,2.32c.22.64.51,1.17.87,1.6.36.43.76.76,1.2.99.44.24.89.4,1.34.5l-.35.97ZM233.35,159.97c.47-.1.92-.27,1.34-.5.46-.25.87-.59,1.2-.99.36-.43.65-.96.87-1.6.22-.64.33-1.41.33-2.32s-.09-1.66-.27-2.29c-.18-.63-.44-1.16-.77-1.58-.32-.42-.72-.76-1.18-1.02-.48-.27-.99-.47-1.51-.62l.35-.88c.61.13,1.18.35,1.73.66.55.32,1.04.74,1.43,1.25.41.52.74,1.15.98,1.89s.36,1.61.36,2.6-.12,1.86-.36,2.59c-.24.73-.56,1.34-.97,1.85-.39.49-.88.91-1.43,1.23-.55.31-1.14.55-1.76.71l-.35-.97ZM242.96,157.2c0-.28.09-.51.27-.68.18-.17.42-.26.71-.26.35,0,.63.12.83.37.2.25.29.6.29,1.04.01.61-.22,1.21-.64,1.66-.17.18-.37.34-.59.46-.21.12-.4.2-.58.26l-.35-.55c.34-.13.62-.32.87-.56s.36-.54.36-.88c-.13.03-.23.04-.31.04-.27,0-.48-.08-.64-.23-.15-.15-.23-.38-.23-.68h0ZM243.08,151.7c0-.3.08-.53.25-.69s.39-.24.67-.24c.3,0,.53.08.7.24s.25.39.25.69c0,.27-.08.49-.25.67s-.4.27-.7.27c-.28,0-.5-.09-.67-.27-.17-.18-.26-.42-.25-.67Z"/>
        <path id="alert" class="st9" d="M14.46,185.51c.42-.24.88-.41,1.36-.5.49-.1.99-.15,1.48-.15.48,0,.87.07,1.17.22.3.15.54.34.71.58.17.24.29.51.35.81s.09.61.09.92c0,.35-.01.73-.03,1.13-.02.4-.03.8-.04,1.2,0,.47.03.91.08,1.33h.94v.91h-1.86l-.13-1.05h-.07c-.06.08-.14.19-.25.32-.11.13-.26.26-.44.38-.47.32-1.02.48-1.59.47-.69,0-1.24-.18-1.64-.53-.4-.35-.6-.84-.6-1.46,0-.48.1-.87.31-1.19.21-.32.51-.56.9-.73s.87-.27,1.42-.29c.63-.02,1.25.01,1.87.11.05-.43.05-.79.02-1.07s-.11-.51-.22-.68c-.12-.17-.29-.3-.49-.36-.25-.08-.51-.11-.78-.1-.42,0-.82.06-1.2.18-.38.12-.72.24-1.02.36,0,0-.35-.81-.35-.81ZM16.52,191.16c.26,0,.5-.04.73-.13.21-.08.41-.19.59-.32.3-.23.53-.52.67-.87v-.98c-.44-.08-.89-.12-1.34-.13-.41,0-.76.04-1.06.13-.3.09-.53.23-.7.41s-.25.43-.25.73.11.58.31.8c.21.23.56.34,1.06.34h0ZM23.02,182.17h2.32v7.45c0,.57.1.97.29,1.2.19.23.47.35.85.35.26,0,.51-.05.75-.14s.5-.25.79-.48l.5.77c-.15.13-.31.25-.49.35-.34.2-.72.34-1.11.42-.48.09-.98.07-1.44-.08-.26-.08-.49-.23-.68-.43-.2-.22-.34-.49-.41-.78-.09-.32-.14-.72-.14-1.2v-6.51h-1.23v-.94h0ZM37.16,191.09c-.17.15-.37.29-.59.42-.24.14-.49.25-.75.34-.27.09-.55.17-.85.22s-.59.08-.89.08c-.56,0-1.06-.09-1.48-.26-.41-.16-.78-.41-1.08-.74-.3-.34-.52-.73-.66-1.15-.16-.49-.23-1-.22-1.51,0-.59.08-1.11.25-1.57.16-.46.4-.84.71-1.15.32-.31.7-.56,1.12-.71.47-.17.97-.25,1.47-.24.39,0,.78.05,1.16.15.38.1.72.3,1.01.58.29.29.52.68.68,1.18.16.5.22,1.15.17,1.94h-5.42c0,.84.23,1.47.68,1.88.45.41,1.06.62,1.81.62.25,0,.5-.03.75-.09.25-.06.48-.13.71-.22.21-.08.41-.17.59-.28.17-.1.31-.2.4-.28,0,0,.43.8.43.8ZM34.2,185.72c-.31,0-.6.03-.88.1-.26.06-.51.17-.73.33-.21.15-.38.35-.52.6s-.22.55-.26.92h4.35c-.05-.62-.25-1.09-.59-1.43-.35-.34-.81-.51-1.38-.51h0ZM39.07,191.97v-.94h1.89v-5.12h-1.89v-.94h2.62l.22.91h.07c.32-.29.67-.54,1.06-.74.39-.21.86-.31,1.4-.31.32,0,.57.06.76.18.19.12.34.3.45.53.11.23.18.52.22.85.04.33.06.71.06,1.13h-.98c0-.58-.06-1.02-.17-1.3-.12-.28-.33-.42-.64-.42-.29,0-.55.04-.78.13-.22.08-.42.18-.61.31-.17.12-.32.24-.44.36s-.21.22-.27.31v4.13h2.69v.94h-5.66ZM46.98,184.97h1.67v-1.39l1.09-.31v1.69h3.74v.94h-3.74v3.3c0,.68.17,1.18.5,1.51s.81.49,1.42.49c.42,0,.79-.08,1.1-.24.31-.16.6-.33.85-.52l.36.83c-.35.27-.75.49-1.17.63-.45.16-.92.24-1.39.24-.36,0-.72-.05-1.06-.16-.32-.1-.62-.27-.88-.5-.26-.24-.47-.53-.6-.86-.15-.35-.22-.77-.22-1.25v-3.47h-1.67v-.94h0Z"/>
        <path id="_x28_" class="st1" d="M61,194.94c-.62-.15-1.21-.39-1.76-.71-.55-.32-1.03-.73-1.43-1.23-.41-.5-.73-1.12-.97-1.85s-.36-1.59-.36-2.59.12-1.85.36-2.6.57-1.37.98-1.89.89-.93,1.44-1.25c.54-.31,1.12-.53,1.73-.66l.35.88c-.53.15-1.03.36-1.51.62-.46.26-.86.61-1.18,1.02-.33.43-.59.95-.77,1.58s-.27,1.39-.27,2.29.11,1.68.33,2.32c.22.64.51,1.17.87,1.6.36.43.76.76,1.2.99.44.24.89.4,1.34.5l-.35.97Z"/>
        <path id="counter1" data-name="counter" class="st9" d="M77.9,186.05c-.23-.08-.46-.14-.69-.19-.24-.05-.49-.08-.74-.08-.92,0-1.6.21-2.04.64-.45.43-.67,1.11-.67,2.04,0,.41.06.78.2,1.1.13.32.32.6.56.82s.53.4.88.52c.34.12.72.18,1.13.18.44,0,.87-.07,1.28-.22.41-.15.76-.35,1.04-.59l.49.81c-.13.11-.29.23-.49.35-.47.29-.99.49-1.53.6-.33.07-.67.1-1.01.1-.61,0-1.14-.09-1.6-.26-.44-.16-.83-.41-1.15-.74-.31-.33-.55-.73-.7-1.16-.16-.48-.24-.99-.24-1.51,0-.59.08-1.11.24-1.57.16-.46.4-.84.71-1.15.32-.31.7-.56,1.12-.71.47-.17.97-.25,1.47-.24.69,0,1.25.06,1.69.18.43.12.8.26,1.1.41v.04s-.01,1.95-.01,1.95h-1.01v-1.33h0ZM80.95,188.47c0-1.13.29-2.02.88-2.68.59-.66,1.43-.99,2.52-.99.59,0,1.09.1,1.52.29.43.19.78.45,1.06.78s.49.71.62,1.16.2.93.2,1.44c0,.56-.07,1.07-.22,1.52-.15.45-.37.84-.66,1.15-.29.32-.65.56-1.07.74-.46.18-.95.27-1.45.26-.58,0-1.08-.1-1.51-.29-.41-.18-.77-.44-1.06-.78-.29-.34-.5-.74-.62-1.16-.14-.47-.21-.95-.2-1.44ZM82.11,188.47c0,.33.04.65.12.98.08.33.21.62.39.88.18.26.41.47.69.63.29.16.63.24,1.04.24.75,0,1.31-.23,1.69-.69.38-.46.57-1.14.57-2.04,0-.34-.04-.66-.12-.99-.08-.31-.21-.61-.39-.88-.18-.26-.42-.48-.7-.63-.29-.16-.63-.24-1.04-.24-.75,0-1.31.23-1.68.69s-.56,1.14-.56,2.04h0ZM93.63,184.97h1.99v4.77c0,.46.03.9.08,1.32h.94v.91h-1.86l-.04-1.19h-.06c-.24.4-.57.73-.97.98-.4.25-.89.38-1.46.38-.43,0-.8-.05-1.1-.15-.29-.09-.56-.27-.75-.51-.2-.24-.34-.57-.43-.97-.09-.41-.14-.91-.14-1.52v-3.08h-.94v-.94h2.03v3.79c0,.38.02.73.05,1.03.03.3.1.56.2.77.1.21.25.37.46.48.2.11.47.16.81.16.49,0,.91-.16,1.27-.48.36-.32.63-.71.82-1.19v-3.63h-.9v-.94h0ZM98.25,187.42c0-.39-.03-.79-.06-1.18-.01-.12-.03-.24-.05-.36h-.94v-.91h1.88l.13,1.13h.07c.09-.16.22-.32.37-.47.34-.34.76-.59,1.22-.72.25-.07.52-.11.8-.11.43,0,.81.05,1.14.14s.61.26.83.5c.22.24.39.56.5.97s.17.92.17,1.55v4.02h-1.09v-3.81c0-.77-.13-1.36-.38-1.75s-.71-.59-1.37-.59c-.24,0-.48.05-.71.15-.23.1-.44.23-.62.38-.19.16-.35.34-.49.55-.14.21-.24.43-.31.66v4.4h-1.08v-4.55h0ZM105.78,184.97h1.67v-1.39l1.09-.31v1.69h3.74v.94h-3.74v3.3c0,.68.17,1.18.5,1.51s.81.49,1.42.49c.42,0,.79-.08,1.1-.24.31-.16.6-.33.85-.52l.36.83c-.35.27-.75.49-1.17.63-.45.16-.92.24-1.39.24-.36,0-.72-.05-1.06-.16-.32-.1-.62-.27-.88-.5-.26-.24-.47-.53-.6-.86-.15-.35-.22-.77-.22-1.25v-3.47h-1.67v-.94h0ZM121.16,191.09c-.17.15-.37.29-.6.42-.24.14-.49.25-.75.34-.27.09-.55.17-.85.22s-.59.08-.89.08c-.56,0-1.06-.09-1.48-.26-.41-.16-.78-.41-1.08-.74-.3-.34-.52-.73-.66-1.15-.16-.49-.23-1-.22-1.51,0-.59.08-1.11.25-1.57.16-.46.4-.84.71-1.15.32-.31.7-.56,1.12-.71.47-.17.97-.25,1.47-.24.39,0,.78.05,1.16.15.38.1.72.3,1.01.58.29.29.52.68.68,1.18.16.5.21,1.15.17,1.94h-5.42c0,.84.23,1.47.68,1.88s1.06.62,1.81.62c.25,0,.5-.03.75-.09.25-.06.48-.13.71-.22.21-.08.41-.17.6-.28.17-.1.31-.2.4-.28l.43.8h0ZM118.2,185.72c-.31,0-.6.03-.88.1-.26.06-.51.17-.73.33-.21.15-.38.35-.52.6s-.22.55-.26.92h4.35c-.05-.62-.25-1.09-.6-1.43-.35-.34-.81-.51-1.38-.51h0ZM123.07,191.97v-.94h1.89v-5.12h-1.89v-.94h2.62l.22.91h.07c.32-.29.67-.54,1.06-.74.39-.21.86-.31,1.4-.31.32,0,.57.06.76.18.19.12.34.3.45.53.11.23.18.52.22.85s.06.71.06,1.13h-.98c0-.58-.06-1.02-.18-1.3-.12-.28-.33-.42-.64-.42-.29,0-.55.04-.78.13-.22.08-.42.18-.61.31-.17.12-.32.24-.44.36s-.21.22-.27.31v4.13h2.69v.94h-5.66Z"/>
        <path id="_x28__x29__x29__x3B__x2F__x2F_0" class="st1" d="M136.6,194.94c-.62-.15-1.21-.39-1.76-.71-.55-.32-1.03-.73-1.43-1.23-.41-.5-.73-1.12-.97-1.85s-.36-1.59-.36-2.59.12-1.85.36-2.6.57-1.37.98-1.89.89-.93,1.43-1.25c.54-.31,1.12-.53,1.73-.66l.35.88c-.53.15-1.03.36-1.51.62-.46.26-.86.61-1.18,1.02-.33.43-.59.95-.77,1.58s-.27,1.39-.27,2.29.11,1.68.33,2.32c.22.64.51,1.17.87,1.6.36.43.76.76,1.2.99.44.24.89.4,1.34.5,0,0-.35.97-.35.97ZM140.95,193.97c.47-.1.92-.27,1.34-.5.46-.25.87-.59,1.2-.99.36-.43.65-.96.87-1.6.22-.64.33-1.41.33-2.32s-.09-1.66-.27-2.29c-.18-.63-.44-1.16-.77-1.58-.32-.42-.72-.76-1.18-1.02-.48-.27-.99-.47-1.51-.62l.35-.88c.61.13,1.18.35,1.73.66.55.32,1.04.74,1.43,1.25.41.52.74,1.15.98,1.89s.36,1.61.36,2.6-.12,1.86-.36,2.59c-.24.73-.56,1.34-.97,1.85-.39.49-.88.91-1.43,1.23-.55.31-1.14.55-1.76.71,0,0-.35-.97-.35-.97ZM157.75,193.97c.47-.1.92-.27,1.34-.5.46-.25.87-.59,1.2-.99.36-.43.65-.96.87-1.6.22-.64.33-1.41.33-2.32s-.09-1.66-.27-2.29c-.18-.63-.44-1.16-.77-1.58-.32-.42-.72-.76-1.18-1.02-.48-.27-.99-.47-1.51-.62l.35-.88c.61.13,1.18.35,1.73.66.55.32,1.04.74,1.43,1.25.41.52.74,1.15.98,1.89s.36,1.61.36,2.6-.12,1.86-.36,2.59c-.24.73-.56,1.34-.97,1.85-.39.49-.88.91-1.43,1.23-.55.31-1.14.55-1.76.71l-.35-.97ZM167.36,191.2c0-.28.09-.51.27-.68.18-.17.42-.26.71-.26.35,0,.63.12.83.37.2.25.29.6.29,1.04.01.61-.22,1.21-.64,1.66-.17.18-.37.34-.59.46-.21.12-.4.2-.58.26l-.35-.55c.34-.13.62-.32.87-.56s.36-.54.36-.88c-.13.03-.23.04-.31.04-.27,0-.48-.08-.64-.23-.15-.15-.23-.38-.23-.68h0ZM167.48,185.7c0-.3.08-.53.25-.69s.39-.24.67-.24c.3,0,.53.08.7.24s.25.39.25.69c0,.27-.08.49-.25.67s-.4.27-.7.27c-.28,0-.5-.09-.67-.27-.17-.18-.26-.42-.25-.67ZM187.26,182l.88.39-5.11,11.54-.88-.39,5.11-11.54ZM195.66,182l.88.39-5.11,11.54-.88-.39,5.11-11.54ZM206.92,187.07c0-.79.07-1.51.21-2.13.14-.63.35-1.16.63-1.6.28-.43.63-.76,1.06-.99.43-.23.94-.34,1.53-.34.62,0,1.15.11,1.59.34s.79.55,1.06.98c.27.43.47.96.59,1.59s.18,1.35.18,2.16c0,.72-.06,1.43-.21,2.13-.14.63-.35,1.16-.63,1.6-.28.43-.63.76-1.06.99-.43.23-.94.34-1.53.34s-1.14-.12-1.57-.37c-.44-.25-.8-.61-1.06-1.04-.27-.45-.47-.98-.6-1.6-.13-.68-.19-1.36-.18-2.05h0ZM212.62,187.07c0-.49-.03-.97-.08-1.41l-4.16,3.79c.16.53.4.96.71,1.27s.73.48,1.25.48c.82,0,1.41-.34,1.76-1.02.35-.68.52-1.72.52-3.11ZM208.08,187.07c0,.23,0,.46.02.67.01.21.03.43.05.63l4.17-3.78c-.16-.5-.39-.9-.71-1.2s-.74-.45-1.27-.45c-.83,0-1.42.34-1.76,1.03-.34.69-.51,1.72-.51,3.1h0Z"/>
      </g>
      <g id="modified-here" class="st3">
        <text class="st5" transform="translate(366 52)"><tspan x="0" y="0">ndret her</tspan></text>
      </g>
    </g>
  </g>
</svg>