<?xml version="1.0" encoding="UTF-8"?>
<svg id="Layer_1" xmlns="http://www.w3.org/2000/svg" version="1.1" viewBox="0 0 723 150">
  <!-- Generator: Adobe Illustrator 30.0.0, SVG Export Plug-In . SVG Version: 2.1.1 Build 123)  -->
  <defs>
    <style>
      .st0 {
        fill: #478964;
      }

      .st1 {
        font-family: OpenSans, 'Open Sans';
      }

      .st1, .st2 {
        fill: #7e7c7b;
      }

      .st1, .st3 {
        font-size: 12px;
      }

      .st1, .st3, .st4, .st5 {
        isolation: isolate;
      }

      .st6 {
        fill: #fbf2ec;
        stroke: #dbaf88;
        stroke-width: 2px;
      }

      .st6, .st7 {
        fill-rule: evenodd;
      }

      .st3, .st5, .st8 {
        fill: #af6e24;
        font-family: PTMono-Regular, 'PT Mono';
      }

      .st9 {
        fill: #1c85b5;
      }

      .st5, .st8 {
        font-size: 14px;
      }

      .st7, .st10 {
        fill: #c06334;
      }

      .st11 {
        fill: #181717;
      }

      .st12 {
        fill: #dbaf88;
      }

      .st13 {
        fill: #767d89;
      }

      .st14 {
        fill: none;
        stroke: #c06334;
        stroke-linecap: square;
      }
    </style>
  </defs>
  <g id="closure">
    <g id="lexical-environment-simple.svg">
      <g id="Group-5">
        <path id="Line" class="st14" d="M294.64,55.5h15.11"/>
        <path id="Line-Copy" class="st14" d="M294.64,99.5h15.11"/>
        <path id="Line-Copy-2" class="st14" d="M310.5,55.5v44"/>
      </g>
      <g id="Group-4">
        <path id="Line-Copy-3" class="st14" d="M485,12.5v126"/>
      </g>
      <g id="Group-3">
        <path id="Rectangle-1" class="st6" d="M493,53h135v47h-135v-47Z"/>
        <g id="say:-function" class="st4">
          <text class="st5" transform="translate(499 73)"><tspan x="0" y="0">say: function</tspan></text>
          <text class="st8" transform="translate(608.2 73)"><tspan x="0" y="0"> </tspan></text>
          <text class="st5" transform="translate(499 88)"><tspan x="0" y="0">phrase: &quot;Hello&quot;</tspan></text>
        </g>
      </g>
      <g id="Group-2">
        <path id="Rectangle-1-Copy" class="st6" d="M318,64h110v27h-110v-27Z"/>
        <g id="name:-_x22_John_x22_" class="st4">
          <text class="st5" transform="translate(324.7 81)"><tspan x="0" y="0">name: &quot;John&quot;</tspan></text>
        </g>
      </g>
      <g id="Group">
        <path id="Line1" data-name="Line" class="st10" d="M465,71l14,7-14,7v-6h-28v-2h28v-6Z"/>
        <g id="outer" class="st4">
          <text class="st3" transform="translate(438 70)"><tspan x="0" y="0">outer</tspan></text>
        </g>
      </g>
      <g id="Group1" data-name="Group">
        <path id="Line2" data-name="Line" class="st10" d="M665,71l14,7-14,7v-6h-28v-2h28v-6Z"/>
        <g id="outer1" data-name="outer" class="st4">
          <text class="st3" transform="translate(638 70)"><tspan x="0" y="0">outer</tspan></text>
        </g>
      </g>
      <g id="null" class="st4">
        <text class="st5" transform="translate(684 82)"><tspan x="0" y="0">null</tspan></text>
      </g>
      <g id="let-phrase-_x3D_-_x22_Hello_x22_">
        <path id="let" class="st9" d="M15.55,20h2.32v7.45c0,.57.1.97.29,1.2.19.23.47.35.85.35.26,0,.51-.05.75-.14s.5-.25.79-.48l.5.77c-.15.13-.31.25-.49.35-.34.2-.72.34-1.11.42-.48.09-.98.07-1.44-.08-.26-.08-.49-.23-.68-.43-.2-.22-.34-.49-.41-.78-.09-.32-.14-.72-.14-1.2v-6.51h-1.23v-.94ZM29.69,28.92c-.17.15-.37.29-.6.42-.24.14-.49.25-.75.34-.27.09-.55.17-.85.22-.29.05-.59.08-.89.08-.56,0-1.06-.09-1.48-.26-.41-.16-.78-.41-1.08-.74-.3-.34-.52-.73-.66-1.15-.16-.49-.23-1-.22-1.51,0-.59.08-1.11.24-1.57.16-.46.4-.84.71-1.15.32-.31.7-.56,1.12-.71.47-.17.97-.25,1.47-.24.39,0,.78.05,1.16.15.38.1.72.3,1.02.58.29.29.52.68.68,1.18.16.5.22,1.15.17,1.94h-5.42c0,.84.23,1.47.68,1.88s1.06.62,1.81.62c.25,0,.5-.03.75-.09.25-.06.48-.13.71-.22.21-.08.41-.17.6-.28.17-.1.31-.2.4-.28,0,0,.43.8.43.8ZM26.73,23.56c-.31,0-.6.03-.88.1-.26.06-.51.17-.73.33-.21.15-.38.36-.52.6s-.22.55-.26.92h4.35c-.05-.62-.24-1.09-.6-1.43-.35-.34-.81-.51-1.38-.51ZM31.11,22.8h1.67v-1.39l1.09-.31v1.69h3.74v.94h-3.74v3.3c0,.68.17,1.18.5,1.51.33.33.81.49,1.42.49.42,0,.79-.08,1.1-.24.31-.16.59-.33.85-.52l.36.83c-.35.27-.75.49-1.17.63-.45.16-.92.24-1.39.24-.36,0-.72-.05-1.06-.16-.32-.1-.62-.27-.88-.5-.26-.24-.47-.53-.6-.86-.15-.35-.22-.77-.22-1.25v-3.47h-1.67s0-.94,0-.94Z"/>
        <path id="phrase" class="st11" d="M48.82,25.25c0-.39-.03-.79-.06-1.18-.01-.12-.03-.24-.05-.36h-.94v-.91h1.86l.14.98h.07c.25-.33.57-.6.96-.82.39-.22.86-.33,1.42-.33,1,0,1.75.28,2.25.83.5.55.76,1.45.76,2.7,0,.59-.09,1.12-.26,1.59-.16.45-.41.85-.74,1.2-.32.33-.72.59-1.15.76-.47.18-.98.27-1.48.27-.2,0-.37,0-.53-.02-.14-.01-.28-.03-.42-.06-.13-.02-.25-.05-.37-.09-.13-.04-.26-.09-.39-.14v2.94h-1.08s0-7.35,0-7.35ZM52.04,23.65c-.28,0-.54.05-.79.15-.47.19-.87.53-1.13.97-.12.2-.2.41-.22.62v3.19c.21.14.44.25.69.33.26.08.6.12,1.01.12.75,0,1.34-.24,1.79-.73.45-.49.67-1.21.67-2.15,0-.79-.16-1.41-.47-1.84-.31-.43-.83-.65-1.56-.65ZM55.94,20h2.18v3.67h.07c.29-.33.62-.58,1.01-.76s.86-.27,1.43-.27c.45,0,.84.05,1.17.14.33.09.6.26.81.49s.37.55.47.96.15.92.15,1.55v4.03h-1.09v-3.82c0-.4-.02-.75-.07-1.05-.03-.27-.13-.52-.27-.75-.13-.2-.32-.35-.55-.45s-.53-.15-.9-.15c-.25,0-.5.04-.74.13-.24.09-.46.21-.67.36-.2.15-.37.34-.52.56s-.24.46-.3.72v4.45h-1.08v-8.86h-1.11s0-.94,0-.94ZM65.2,29.8v-.94h1.89v-5.12h-1.89v-.94h2.62l.22.91h.07c.32-.29.67-.54,1.06-.74.39-.2.86-.31,1.4-.31.32,0,.57.06.76.18.19.12.34.3.45.53.11.23.18.52.22.85s.06.71.06,1.13h-.98c0-.58-.06-1.02-.17-1.3-.12-.28-.33-.42-.64-.42-.29,0-.55.04-.78.13-.22.08-.42.18-.61.31-.17.12-.32.24-.44.36s-.21.22-.27.31v4.13h2.69v.94h-5.66ZM74.19,23.35c.42-.24.88-.41,1.36-.5.49-.1.99-.15,1.48-.15.48,0,.87.08,1.17.22.3.15.54.34.71.58s.29.51.35.81c.06.3.09.61.09.92,0,.36-.01.73-.03,1.13-.02.4-.03.8-.04,1.2,0,.47.03.91.08,1.33h.94v.91h-1.86l-.13-1.05h-.07c-.06.08-.14.19-.25.32-.11.13-.26.26-.44.39-.47.32-1.02.48-1.59.47-.69,0-1.24-.18-1.64-.53s-.6-.84-.6-1.46c0-.48.1-.87.31-1.19s.51-.56.9-.73.87-.27,1.42-.29c.63-.02,1.25.01,1.87.11.05-.43.05-.79.02-1.07-.03-.28-.11-.51-.22-.68-.12-.17-.29-.3-.49-.36-.25-.08-.51-.11-.78-.11-.42,0-.82.06-1.2.17-.38.12-.72.24-1.02.36l-.35-.81h0ZM76.25,28.99c.26,0,.5-.04.73-.13.21-.08.41-.19.59-.32.3-.23.53-.52.67-.87v-.98c-.44-.08-.89-.12-1.34-.13-.41,0-.76.04-1.06.13-.3.09-.53.23-.7.41-.17.19-.25.43-.25.73s.1.58.31.81.56.34,1.06.34ZM87.21,27.91c.01-.28-.12-.54-.35-.69-.27-.18-.56-.31-.87-.39-.37-.1-.75-.2-1.13-.27-.39-.08-.76-.19-1.13-.34-.33-.13-.62-.32-.87-.57-.23-.24-.35-.57-.35-1,0-.36.08-.66.23-.91.15-.25.36-.46.61-.62.25-.16.55-.29.88-.36.34-.08.69-.12,1.05-.12.65,0,1.22.08,1.69.25.47.16.85.33,1.13.51l-.45.88c-.33-.18-.66-.34-1-.48-.36-.15-.81-.23-1.35-.23-.21,0-.41.02-.61.06-.2.04-.38.11-.55.19-.15.08-.29.19-.39.33-.1.15-.15.32-.15.5,0,.24.12.43.35.56s.52.24.87.33c.35.09.72.17,1.13.25.41.08.78.19,1.13.34.35.15.64.35.87.6.23.25.35.59.35,1.02,0,.64-.25,1.18-.76,1.6s-1.27.63-2.29.63c-.31,0-.61-.03-.91-.08-.29-.05-.57-.13-.84-.22-.25-.09-.48-.19-.71-.31-.19-.1-.37-.22-.53-.36l.56-.91c.11.11.26.23.45.34.41.25.86.44,1.34.54.49.11.99.11,1.48.02.22-.04.41-.11.58-.2.16-.08.3-.2.4-.35.1-.16.15-.34.15-.53h0ZM96.89,28.92c-.17.15-.37.29-.6.42-.24.14-.49.25-.75.34-.27.09-.55.17-.85.22s-.59.08-.89.08c-.56,0-1.06-.09-1.48-.26-.41-.16-.78-.41-1.08-.74-.3-.34-.52-.73-.66-1.15-.16-.49-.23-1-.22-1.51,0-.59.08-1.11.25-1.57.16-.46.4-.84.71-1.15.32-.31.7-.56,1.12-.71.47-.17.97-.25,1.47-.24.39,0,.78.05,1.16.15.38.1.72.3,1.01.58s.52.68.68,1.18c.16.5.21,1.15.17,1.94h-5.42c0,.84.23,1.47.68,1.88s1.06.62,1.81.62c.25,0,.5-.03.75-.09.25-.06.48-.13.71-.22.21-.08.41-.17.6-.28.17-.1.31-.2.4-.28,0,0,.43.8.43.8ZM93.93,23.56c-.31,0-.6.03-.88.1-.26.06-.51.17-.73.33-.21.15-.38.36-.52.6s-.22.55-.26.92h4.35c-.05-.62-.25-1.09-.6-1.43-.35-.34-.81-.51-1.38-.51Z"/>
        <path id="_x3D_" class="st12" d="M107.23,23.4h6.5v1.01h-6.5v-1.01ZM107.23,25.7h6.5v1.01h-6.5v-1.01Z"/>
        <path id="_x22_Hello_x22_" class="st0" d="M128.11,20h1.23l-.43,4.24h-.8s0-4.24,0-4.24ZM125.21,20h1.23l-.43,4.24h-.8s0-4.24,0-4.24ZM137.88,25.31h-4.4v4.49h-1.16v-9.8h1.16v4.27h4.4v-4.27h1.16v9.8h-1.16s0-4.49,0-4.49ZM147.29,28.92c-.17.15-.37.29-.6.42-.24.14-.49.25-.75.34-.27.09-.55.17-.85.22s-.59.08-.89.08c-.56,0-1.05-.09-1.48-.26-.41-.16-.78-.41-1.08-.74-.3-.34-.52-.73-.66-1.15-.16-.49-.23-1-.22-1.51,0-.59.08-1.11.25-1.57.16-.46.4-.84.71-1.15.32-.31.7-.56,1.12-.71.47-.17.97-.25,1.47-.24.39,0,.78.05,1.16.15.38.1.72.3,1.01.58s.52.68.68,1.18c.16.5.21,1.15.17,1.94h-5.42c0,.84.23,1.47.68,1.88s1.06.62,1.81.62c.25,0,.5-.03.75-.09.25-.06.48-.13.71-.22.21-.08.41-.17.6-.28.17-.1.31-.2.4-.28l.43.8h0ZM144.33,23.56c-.31,0-.6.03-.88.1-.26.06-.51.17-.73.33-.21.15-.38.36-.52.6s-.22.55-.26.92h4.35c-.05-.62-.24-1.09-.6-1.43-.35-.34-.81-.51-1.38-.51ZM149.95,20h2.32v7.45c0,.57.1.97.29,1.2.19.23.47.35.85.35.26,0,.51-.05.75-.14.24-.09.5-.25.79-.48l.5.77c-.15.13-.31.25-.49.35-.34.2-.72.34-1.11.42-.48.09-.98.07-1.44-.08-.26-.08-.49-.23-.68-.43-.2-.22-.34-.49-.41-.78-.09-.32-.14-.72-.14-1.2v-6.51h-1.23v-.94ZM158.35,20h2.32v7.45c0,.57.1.97.29,1.2.19.23.47.35.85.35.26,0,.51-.05.75-.14.24-.09.5-.25.79-.48l.5.77c-.15.13-.31.25-.49.35-.34.2-.72.34-1.11.42-.48.09-.98.07-1.44-.08-.26-.08-.49-.23-.68-.43-.2-.22-.34-.49-.41-.78-.09-.32-.14-.72-.14-1.2v-6.51h-1.23v-.94ZM165.88,26.3c0-1.13.29-2.02.88-2.68.59-.66,1.43-.99,2.52-.99.59,0,1.09.1,1.52.29s.78.45,1.06.78c.28.33.49.71.62,1.16s.2.93.2,1.44c0,.56-.07,1.07-.22,1.52-.15.45-.37.84-.66,1.16-.29.32-.65.56-1.07.73-.46.18-.95.27-1.45.26-.58,0-1.08-.1-1.51-.29-.41-.18-.77-.44-1.06-.78-.29-.34-.5-.74-.62-1.16-.14-.47-.21-.95-.2-1.44h0ZM167.04,26.3c0,.33.04.65.12.98.08.33.21.62.38.88.18.26.41.47.69.63.29.16.63.24,1.04.24.75,0,1.31-.23,1.69-.69.38-.46.57-1.14.57-2.04,0-.34-.04-.66-.12-.99-.08-.31-.21-.61-.39-.88-.18-.26-.42-.48-.7-.63-.29-.16-.63-.24-1.04-.24-.75,0-1.31.23-1.68.69-.37.46-.56,1.14-.56,2.04ZM178.51,20h1.23l-.43,4.24h-.8v-4.24h0ZM175.61,20h1.23l-.43,4.24h-.8v-4.24h0Z"/>
        <path id="_x3B_" class="st2" d="M185.09,29.03c0-.28.09-.51.27-.68.18-.17.42-.26.71-.26.35,0,.63.12.83.37.2.25.29.6.29,1.04.01.61-.22,1.21-.64,1.66-.17.18-.37.34-.59.46-.21.12-.4.2-.58.26l-.35-.55c.34-.13.62-.32.87-.56s.36-.54.36-.88c-.13.03-.23.04-.31.04-.27,0-.48-.08-.64-.23-.15-.15-.23-.38-.23-.68h0ZM185.21,23.53c0-.3.08-.53.25-.69s.39-.25.67-.25c.3,0,.53.08.7.24.17.16.25.39.25.69,0,.27-.08.5-.25.67s-.4.27-.7.27c-.28,0-.5-.09-.67-.27-.17-.18-.26-.42-.25-.67Z"/>
        <path id="function" class="st9" d="M15.11,63.8v-.94h1.67v-5.12h-1.67v-.94h1.67v-.39c0-.88.23-1.51.69-1.9s1.11-.59,1.96-.59c.31,0,.58.02.83.06s.5.11.78.22l-.25.91c-.22-.1-.46-.17-.7-.2-.2-.03-.41-.05-.62-.05-.62,0-1.04.15-1.26.46s-.34.8-.34,1.49h2.9v.94h-2.9v5.12h2.9v.94s-5.66,0-5.66,0ZM27.36,56.8h1.99v4.77c0,.46.03.9.08,1.32h.94v.91h-1.86l-.04-1.19h-.06c-.24.4-.57.73-.97.98-.4.25-.89.38-1.46.38-.43,0-.8-.05-1.1-.15-.29-.09-.56-.27-.75-.51-.2-.24-.34-.57-.43-.97-.09-.41-.14-.91-.14-1.52v-3.08h-.94v-.94h2.03v3.79c0,.38.02.73.05,1.03.03.3.1.56.2.77s.25.37.45.48c.2.11.47.16.81.16.48,0,.91-.16,1.27-.48.36-.32.63-.71.82-1.19v-3.63h-.9v-.94ZM31.98,59.25c0-.39-.03-.79-.06-1.18-.01-.12-.03-.24-.05-.36h-.94v-.91h1.88l.13,1.13h.07c.09-.16.22-.31.37-.47.34-.34.76-.59,1.23-.72.25-.08.52-.11.8-.11.43,0,.81.05,1.14.14.33.09.61.26.83.5.22.24.39.56.5.97s.17.92.17,1.55v4.02h-1.09v-3.81c0-.78-.13-1.36-.38-1.75s-.71-.59-1.37-.59c-.24,0-.48.05-.71.15-.23.1-.44.23-.62.38-.19.16-.35.34-.49.55-.14.21-.24.43-.31.67v4.4h-1.08v-4.55ZM45.23,57.88c-.23-.08-.46-.14-.69-.19-.24-.05-.49-.08-.74-.08-.92,0-1.6.22-2.04.64-.45.43-.67,1.11-.67,2.04,0,.41.07.78.2,1.1.13.32.32.6.56.82s.53.4.88.52c.34.12.72.18,1.13.18.44,0,.87-.08,1.28-.22.42-.15.76-.35,1.04-.59l.49.81c-.13.11-.29.23-.49.35-.47.29-.99.49-1.53.6-.33.07-.67.1-1.01.1-.61,0-1.14-.09-1.6-.26-.44-.16-.83-.41-1.16-.74-.31-.33-.55-.73-.7-1.16-.16-.48-.24-.99-.24-1.51,0-.59.08-1.11.25-1.57.16-.46.4-.84.71-1.15.32-.31.7-.56,1.12-.71.47-.17.97-.25,1.47-.24.69,0,1.25.06,1.69.18.43.12.8.26,1.1.41v.04s-.01,1.95-.01,1.95h-1.01s0-1.33,0-1.33ZM47.91,56.8h1.67v-1.39l1.09-.31v1.69h3.74v.94h-3.74v3.3c0,.68.17,1.19.5,1.51s.81.49,1.42.49c.42,0,.79-.08,1.1-.24.31-.16.6-.33.85-.52l.36.83c-.35.27-.75.49-1.17.63-.45.16-.92.24-1.39.24-.36,0-.72-.05-1.06-.16-.32-.1-.62-.27-.88-.5-.26-.24-.47-.53-.6-.86-.15-.35-.22-.77-.22-1.25v-3.47h-1.67v-.94ZM57.35,63.8v-.94h2.44v-5.12h-2.44v-.94h3.56v6.06h2.38v.94s-5.94,0-5.94,0ZM59.41,54.81c0-.25.08-.47.25-.65.16-.18.4-.28.64-.27.27,0,.5.09.68.27.18.17.28.41.27.65,0,.24-.1.46-.27.62-.18.17-.43.26-.68.25-.24,0-.47-.08-.64-.25-.17-.16-.26-.38-.25-.62ZM65.08,60.3c0-1.13.29-2.02.88-2.68s1.43-.99,2.52-.99c.59,0,1.09.1,1.52.29.42.19.78.45,1.06.78s.49.71.62,1.16c.13.45.2.93.2,1.44,0,.56-.08,1.07-.22,1.52-.15.45-.37.84-.66,1.15-.29.32-.65.56-1.07.74-.46.18-.95.27-1.45.26-.58,0-1.08-.1-1.51-.29-.41-.18-.77-.44-1.06-.78-.29-.34-.5-.74-.62-1.16-.14-.47-.21-.95-.2-1.44ZM66.24,60.3c0,.33.04.65.12.98.08.33.21.62.38.88.18.26.41.47.69.63s.63.24,1.04.24c.75,0,1.31-.23,1.69-.69s.57-1.14.57-2.04c0-.34-.04-.67-.12-.99-.08-.31-.21-.61-.39-.88-.18-.26-.42-.48-.7-.63-.28-.16-.63-.24-1.04-.24-.75,0-1.31.23-1.68.69s-.56,1.14-.56,2.04ZM73.98,59.25c0-.39-.03-.79-.06-1.18-.01-.12-.03-.24-.05-.36h-.94v-.91h1.88l.13,1.13h.07c.09-.16.22-.31.37-.47.34-.34.76-.59,1.22-.72.25-.08.52-.11.8-.11.43,0,.81.05,1.14.14.33.09.61.26.83.5.22.24.39.56.5.97s.17.92.17,1.55v4.02h-1.09v-3.81c0-.78-.13-1.36-.38-1.75s-.71-.59-1.37-.59c-.24,0-.48.05-.71.15-.23.1-.44.23-.62.38-.19.16-.35.34-.49.55-.14.21-.24.43-.31.67v4.4h-1.08s0-4.55,0-4.55Z"/>
        <path id="say" class="st11" d="M95.61,61.91c.01-.28-.12-.54-.35-.69-.27-.18-.56-.31-.87-.39-.37-.1-.75-.2-1.13-.27-.39-.08-.76-.19-1.13-.34-.33-.13-.62-.32-.87-.57-.23-.24-.35-.57-.35-1,0-.35.08-.66.23-.91.15-.25.36-.46.61-.62.25-.16.55-.28.88-.36.34-.08.69-.12,1.05-.12.65,0,1.22.08,1.69.24.47.16.85.33,1.13.51l-.45.88c-.33-.18-.66-.34-1-.48-.36-.15-.81-.23-1.35-.23-.21,0-.41.02-.61.06-.2.04-.38.1-.55.19-.15.08-.29.19-.39.33-.1.15-.15.32-.15.5,0,.24.12.43.35.56s.52.24.87.33c.35.09.72.17,1.13.25.41.08.78.19,1.13.34.35.15.64.35.87.6.23.25.35.59.35,1.02,0,.64-.25,1.18-.76,1.6-.51.42-1.27.63-2.29.63-.31,0-.61-.03-.91-.08-.29-.05-.57-.13-.84-.22-.25-.09-.48-.19-.71-.31-.19-.1-.37-.22-.53-.36l.56-.91c.11.11.26.23.45.34.41.25.86.44,1.34.54.49.11.99.11,1.48.02.22-.04.41-.11.58-.2.16-.08.3-.2.4-.35.1-.16.15-.34.15-.53h0ZM99.39,57.35c.42-.24.88-.41,1.36-.5.49-.1.99-.15,1.48-.15.48,0,.87.08,1.17.22.3.15.54.34.71.58.17.24.29.51.35.81s.09.61.09.92c0,.35-.01.73-.03,1.13-.02.4-.03.8-.04,1.2,0,.47.03.91.08,1.33h.94v.91h-1.86l-.13-1.05h-.07c-.06.08-.14.19-.25.32-.11.13-.26.26-.44.38-.47.32-1.02.48-1.59.47-.69,0-1.24-.18-1.64-.53-.4-.35-.6-.84-.6-1.46,0-.48.11-.87.32-1.19.21-.32.51-.56.9-.73s.87-.27,1.42-.29c.63-.02,1.25.01,1.87.11.05-.43.05-.79.02-1.07s-.11-.51-.22-.68c-.12-.17-.29-.3-.49-.36-.25-.08-.51-.11-.78-.1-.42,0-.82.06-1.2.17s-.72.24-1.02.36l-.35-.81h0ZM101.45,62.99c.26,0,.5-.04.73-.13.21-.08.41-.19.59-.32.3-.23.53-.52.67-.87v-.98c-.44-.08-.89-.12-1.34-.13-.41,0-.76.04-1.06.13s-.53.23-.7.41c-.17.19-.25.43-.25.73s.11.58.32.81.56.34,1.06.34ZM110.63,62.72h.53l1.74-5.92h1.13l-1.95,6.29c-.1.33-.21.7-.32,1.11-.1.41-.26.8-.46,1.17-.19.36-.47.68-.8.92-.34.25-.78.38-1.32.38-.12,0-.25-.01-.39-.04-.13-.03-.27-.06-.4-.1-.12-.04-.25-.09-.36-.15-.09-.04-.18-.1-.25-.17l.39-1.01c.06.05.13.09.23.14s.21.09.32.12.23.06.34.08c.11.02.21.03.28.03.7,0,1.18-.59,1.43-1.78h-.94l-2.94-7h1.26s2.45,5.92,2.45,5.92Z"/>
        <path id="_x28_" class="st2" d="M120.73,66.77c-.62-.15-1.21-.39-1.76-.71-.55-.32-1.03-.73-1.43-1.22-.41-.5-.73-1.12-.97-1.85s-.36-1.59-.36-2.59.12-1.85.36-2.6.57-1.37.98-1.89c.41-.52.89-.93,1.43-1.25.54-.31,1.12-.53,1.73-.67l.35.88c-.53.15-1.03.36-1.51.62-.46.26-.86.61-1.18,1.02-.33.42-.59.95-.77,1.58s-.27,1.39-.27,2.29.11,1.68.33,2.32c.22.64.51,1.17.87,1.6.36.42.76.76,1.2.99.44.24.89.4,1.34.5l-.35.97h0Z"/>
        <path id="name" class="st11" d="M124.38,59.25c0-.39-.03-.79-.06-1.18-.01-.12-.03-.24-.05-.36h-.94v-.91h1.88l.13,1.13h.07c.09-.16.22-.31.37-.47.34-.34.76-.59,1.22-.72.25-.08.52-.11.8-.11.43,0,.81.05,1.14.14s.61.26.83.5c.22.24.39.56.5.97s.17.92.17,1.55v4.02h-1.09v-3.81c0-.78-.13-1.36-.38-1.75s-.71-.59-1.37-.59c-.24,0-.48.05-.71.15-.23.1-.44.23-.62.38-.19.16-.35.34-.49.55-.14.21-.24.43-.31.67v4.4h-1.08v-4.55h0ZM132.99,57.35c.42-.24.88-.41,1.36-.5.49-.1.99-.15,1.48-.15.48,0,.87.08,1.17.22.3.15.54.34.71.58.17.24.29.51.35.81s.09.61.09.92c0,.35-.01.73-.03,1.13-.02.4-.03.8-.04,1.2,0,.47.03.91.08,1.33h.94v.91h-1.86l-.13-1.05h-.07c-.06.08-.14.19-.25.32-.11.13-.26.26-.44.38-.47.32-1.02.48-1.59.47-.69,0-1.24-.18-1.64-.53-.4-.35-.6-.84-.6-1.46,0-.48.11-.87.32-1.19.21-.32.51-.56.9-.73s.87-.27,1.42-.29c.63-.02,1.25.01,1.87.11.05-.43.05-.79.02-1.07s-.11-.51-.22-.68c-.12-.17-.29-.3-.49-.36-.25-.08-.51-.11-.78-.1-.42,0-.82.06-1.2.17s-.72.24-1.02.36l-.35-.81h0ZM135.05,62.99c.26,0,.5-.04.73-.13.21-.08.41-.19.59-.32.3-.23.53-.52.67-.87v-.98c-.44-.08-.89-.12-1.34-.13-.41,0-.76.04-1.06.13s-.53.23-.7.41c-.17.19-.25.43-.25.73s.11.58.32.81.56.34,1.06.34ZM143.55,63.8v-4.66c0-.2,0-.38-.02-.57-.01-.17-.04-.33-.1-.49-.04-.13-.12-.25-.22-.34-.11-.09-.25-.13-.39-.13-.32,0-.59.13-.81.39-.22.26-.39.59-.5.98v4.82h-1.06v-7h.73l.21.85h.06c.09-.14.18-.27.27-.4.09-.13.19-.24.31-.33s.25-.17.41-.22c.16-.05.36-.08.6-.08.14,0,.29.02.43.06.15.04.29.11.41.2.13.09.24.21.33.36.09.15.15.33.18.55.21-.36.46-.65.72-.85.27-.21.63-.31,1.1-.31.31,0,.56.05.75.15s.34.25.45.44c.11.19.18.42.22.69.04.27.06.56.06.89v5h-1.06v-4.76c0-.2,0-.38-.03-.55-.01-.16-.05-.31-.1-.46-.04-.12-.12-.22-.21-.31-.1-.08-.23-.12-.36-.11-.33,0-.6.13-.83.39-.22.26-.39.63-.5,1.12v4.68h-1.06,0ZM155.69,62.92c-.17.15-.37.29-.6.42-.24.14-.49.25-.75.34-.27.09-.55.17-.85.22s-.59.08-.89.08c-.56,0-1.05-.09-1.48-.26-.41-.16-.78-.41-1.08-.74-.3-.34-.52-.73-.66-1.15-.16-.49-.23-1-.22-1.51,0-.59.08-1.11.24-1.57.16-.46.4-.84.71-1.15.32-.31.7-.56,1.12-.71.47-.17.97-.25,1.47-.24.39,0,.78.05,1.16.15.38.1.72.3,1.01.58s.52.68.68,1.18c.16.5.21,1.15.17,1.94h-5.42c0,.84.23,1.47.68,1.88s1.06.62,1.81.62c.25,0,.5-.03.75-.09.25-.06.48-.13.71-.22.21-.08.41-.17.6-.28.17-.1.31-.2.4-.28l.43.8ZM152.73,57.56c-.31,0-.6.03-.88.1-.26.06-.51.17-.73.33-.21.15-.38.35-.52.6s-.22.55-.26.92h4.35c-.05-.62-.24-1.09-.6-1.44-.35-.34-.81-.51-1.38-.51Z"/>
        <path id="_x29__x7B_" class="st2" d="M158.68,65.8c.47-.1.92-.27,1.34-.5.46-.25.87-.59,1.2-.99.36-.42.65-.96.87-1.6.22-.64.33-1.41.33-2.32s-.09-1.66-.27-2.29c-.18-.63-.44-1.16-.77-1.58-.32-.42-.72-.76-1.18-1.02-.48-.27-.99-.47-1.51-.62l.35-.88c.61.13,1.18.35,1.73.67.55.32,1.04.74,1.43,1.25.41.52.74,1.15.98,1.89s.36,1.61.36,2.6-.12,1.86-.36,2.59c-.24.73-.56,1.34-.97,1.85-.39.49-.88.91-1.43,1.22-.55.31-1.14.55-1.76.71,0,0-.35-.97-.35-.97ZM176.56,63.35c0-.4-.07-.75-.2-1.04-.12-.27-.29-.52-.5-.74-.2-.2-.41-.34-.64-.43-.19-.09-.4-.13-.61-.14v-.98c.18,0,.38-.04.61-.12.23-.08.44-.21.64-.39.2-.18.37-.42.5-.71.13-.29.2-.65.2-1.08v-1.43c0-.34.05-.64.16-.92.1-.27.25-.52.45-.73.19-.21.42-.37.69-.48s.56-.17.88-.17h2.03v.98h-1.54c-.59,0-1,.14-1.23.42s-.34.69-.34,1.25v1.36c0,.38-.07.72-.21,1.02-.23.51-.62.94-1.11,1.22-.21.12-.37.18-.5.2v.08c.12.02.29.09.49.22s.41.3.6.52c.2.22.37.48.51.78s.22.63.22.99v1.34c0,.57.12.99.36,1.26s.65.41,1.22.41h1.53v.98h-2.03c-.65,0-1.18-.19-1.57-.58s-.6-.96-.6-1.72c0,0,0-1.37,0-1.37Z"/>
        <path id="alert_x28__x60__x24__x7B_phrase_x7D__x2C__x24__x7B_name_x7D__x60__x29__x3B_" class="st10" d="M32.19,74.35c.42-.24.88-.41,1.36-.5.49-.1.99-.15,1.48-.15.48,0,.87.08,1.17.22.3.15.54.34.71.58.17.24.29.51.35.81s.09.61.09.92c0,.35-.01.73-.03,1.13-.02.4-.03.8-.04,1.2,0,.47.03.91.08,1.33h.94v.91h-1.86l-.13-1.05h-.07c-.06.08-.14.19-.25.32-.11.13-.26.26-.44.38-.47.32-1.02.48-1.59.47-.69,0-1.24-.18-1.64-.53-.4-.35-.6-.84-.6-1.46,0-.48.1-.87.32-1.19.21-.32.51-.56.9-.73s.87-.27,1.42-.29c.63-.02,1.25.01,1.87.11.05-.43.05-.79.02-1.07s-.11-.51-.22-.68c-.12-.17-.29-.3-.49-.36-.25-.08-.51-.11-.78-.1-.42,0-.82.06-1.2.17-.38.12-.72.24-1.02.36,0,0-.35-.81-.35-.81ZM34.25,79.99c.26,0,.5-.04.73-.13.21-.08.41-.19.59-.32.3-.23.53-.52.67-.87v-.98c-.44-.08-.89-.12-1.34-.13-.41,0-.76.04-1.06.13s-.53.23-.7.41c-.17.19-.25.43-.25.73s.1.58.32.81c.21.23.56.34,1.06.34ZM40.75,71h2.32v7.45c0,.57.1.97.29,1.2.19.23.47.35.85.35.26,0,.51-.05.75-.14s.5-.25.79-.48l.5.77c-.15.13-.31.25-.49.35-.34.2-.72.34-1.11.42-.48.09-.98.07-1.44-.08-.26-.08-.49-.23-.68-.43-.2-.22-.34-.49-.41-.78-.09-.32-.14-.72-.14-1.2v-6.51h-1.23v-.94ZM54.89,79.92c-.17.15-.37.29-.6.42-.24.14-.49.25-.75.34-.27.09-.55.17-.85.22s-.59.08-.89.08c-.56,0-1.06-.09-1.48-.26-.41-.16-.78-.41-1.08-.74-.3-.34-.52-.73-.66-1.15-.16-.49-.23-1-.22-1.51,0-.59.08-1.11.24-1.57.16-.46.4-.84.71-1.15.32-.31.7-.56,1.12-.71.47-.17.97-.25,1.47-.24.39,0,.78.05,1.16.15.38.1.72.3,1.01.58s.52.68.68,1.18c.16.5.22,1.15.17,1.94h-5.42c0,.84.23,1.47.68,1.88s1.06.62,1.81.62c.25,0,.5-.03.75-.09.25-.06.48-.13.71-.22.21-.08.41-.17.6-.28.17-.1.31-.2.4-.28,0,0,.43.8.43.8ZM51.93,74.56c-.31,0-.6.03-.88.1-.26.06-.51.17-.73.33-.21.15-.38.35-.52.6s-.22.55-.26.92h4.35c-.05-.62-.24-1.09-.6-1.44-.35-.34-.81-.51-1.38-.51ZM56.8,80.8v-.94h1.89v-5.12h-1.89v-.94h2.62l.22.91h.07c.32-.29.67-.54,1.06-.74s.86-.31,1.4-.31c.32,0,.57.06.76.18.19.12.34.3.45.53.11.23.18.52.22.85s.06.71.06,1.13h-.98c0-.58-.06-1.02-.17-1.3-.12-.28-.33-.42-.64-.42-.29,0-.55.04-.78.13-.22.08-.42.18-.61.31-.17.12-.32.24-.44.36s-.21.22-.27.31v4.13h2.69v.94s-5.66,0-5.66,0ZM64.71,73.8h1.67v-1.39l1.09-.31v1.69h3.74v.94h-3.74v3.3c0,.68.17,1.19.5,1.51s.81.49,1.42.49c.42,0,.79-.08,1.1-.24.31-.16.6-.33.85-.52l.36.83c-.35.27-.75.49-1.17.63-.45.16-.92.24-1.39.24-.36,0-.72-.05-1.06-.16-.32-.1-.62-.27-.88-.5-.26-.24-.47-.53-.6-.86-.15-.35-.22-.77-.22-1.25v-3.47h-1.67v-.94ZM78.73,83.77c-.62-.15-1.21-.39-1.76-.71-.55-.32-1.03-.73-1.43-1.22-.41-.5-.73-1.12-.97-1.85s-.36-1.59-.36-2.59.12-1.85.36-2.6.57-1.37.98-1.89c.41-.52.89-.93,1.44-1.25.54-.31,1.12-.53,1.73-.67l.35.88c-.53.15-1.03.36-1.51.62-.46.26-.86.61-1.18,1.02-.33.42-.59.95-.77,1.58s-.27,1.39-.27,2.29.11,1.68.33,2.32c.22.64.51,1.17.87,1.6.36.42.76.76,1.2.99.44.24.89.4,1.34.5,0,0-.35.97-.35.97ZM94.66,72.81h-.77l-1.67-2.09h1.53s.91,2.09.91,2.09ZM101.56,80.97c-.46,0-.91-.05-1.36-.13-.4-.08-.72-.18-.96-.31l.38-1.02c.19.11.44.21.76.3s.72.14,1.18.16v-3.78c-.28-.14-.56-.29-.83-.45-.27-.15-.52-.35-.74-.57-.22-.23-.39-.49-.52-.78-.13-.3-.2-.65-.2-1.06,0-.67.19-1.22.57-1.65.38-.43.95-.69,1.71-.8v-1.27h.95v1.23c.48.02.87.06,1.17.13s.58.16.82.27l-.34.98c-.22-.1-.44-.19-.67-.24-.32-.08-.65-.12-.98-.13v3.46c.29.15.58.31.87.48.29.17.55.37.78.6.23.22.41.49.55.78s.21.65.21,1.05c0,.73-.2,1.33-.61,1.8s-1.01.77-1.8.9v1.29h-.95s0-1.23,0-1.23ZM103.76,78.31c0-.22-.04-.42-.12-.6-.08-.18-.18-.34-.32-.48-.14-.15-.29-.27-.46-.38-.19-.12-.38-.22-.57-.32v3.4c.43-.08.78-.24,1.06-.5s.41-.63.41-1.12ZM100.44,73.25c0,.4.13.73.39.98s.58.48.96.69v-3.07c-.5.06-.84.22-1.04.49-.2.27-.3.57-.3.91ZM109.36,80.35c0-.4-.07-.75-.2-1.04-.12-.27-.29-.52-.5-.74-.2-.2-.42-.34-.64-.43-.19-.09-.4-.13-.61-.14v-.98c.18,0,.38-.04.61-.12.23-.08.44-.21.64-.39.2-.18.37-.42.5-.71.14-.29.2-.65.2-1.08v-1.43c0-.34.05-.64.16-.92.1-.27.25-.52.45-.73.19-.21.42-.37.69-.48s.56-.17.88-.17h2.03v.98h-1.54c-.59,0-1,.14-1.22.42s-.34.69-.34,1.25v1.36c0,.38-.07.72-.21,1.02-.23.51-.62.94-1.11,1.22-.21.12-.37.18-.5.2v.08c.12.02.29.09.49.22.21.13.41.3.6.52.2.22.37.48.51.78.14.3.22.63.22.99v1.34c0,.57.12.99.36,1.26s.65.41,1.22.41h1.53v.98h-2.03c-.65,0-1.18-.19-1.57-.58-.4-.39-.6-.96-.6-1.72,0,0,0-1.37,0-1.37ZM116.02,76.25c0-.39-.03-.79-.06-1.18-.01-.12-.03-.24-.05-.36h-.94v-.91h1.86l.14.98h.07c.25-.33.57-.6.96-.82.39-.22.86-.33,1.42-.33,1,0,1.75.28,2.25.83.5.55.76,1.45.76,2.7,0,.59-.09,1.12-.26,1.59-.16.45-.41.85-.74,1.2-.32.33-.72.59-1.15.76-.47.18-.98.27-1.48.27-.2,0-.37,0-.53-.02-.14-.01-.28-.03-.42-.06-.13-.02-.25-.05-.37-.09-.13-.04-.26-.09-.39-.14v2.94h-1.08v-7.35h0ZM119.24,74.65c-.28,0-.54.05-.79.15-.47.19-.87.53-1.13.97-.12.21-.2.41-.22.62v3.19c.21.14.44.25.69.33.26.08.6.12,1.01.12.75,0,1.34-.24,1.79-.74s.67-1.21.67-2.15c0-.79-.16-1.41-.47-1.84s-.83-.65-1.56-.65ZM123.14,71h2.18v3.67h.07c.29-.33.62-.58,1.01-.76s.86-.27,1.43-.27c.45,0,.84.05,1.17.14s.6.26.81.49.37.55.47.96c.1.41.15.92.15,1.55v4.03h-1.09v-3.82c0-.4-.02-.75-.07-1.05-.03-.27-.13-.52-.27-.75-.14-.2-.32-.35-.55-.46s-.53-.15-.9-.15c-.25,0-.5.04-.74.13-.24.09-.46.21-.67.36-.2.15-.37.34-.52.56s-.25.46-.3.72v4.45h-1.08v-8.86h-1.11v-.94h0ZM132.4,80.8v-.94h1.89v-5.12h-1.89v-.94h2.62l.22.91h.07c.32-.29.67-.54,1.06-.74.39-.21.86-.31,1.4-.31.32,0,.57.06.76.18.19.12.34.3.45.53.11.23.18.52.22.85s.06.71.06,1.13h-.98c0-.58-.06-1.02-.18-1.3-.12-.28-.33-.42-.64-.42-.29,0-.55.04-.78.13-.22.08-.42.18-.61.31-.17.12-.32.24-.44.36s-.21.22-.27.31v4.13h2.69v.94s-5.66,0-5.66,0ZM141.39,74.35c.42-.24.88-.41,1.36-.5.49-.1.99-.15,1.48-.15.48,0,.87.08,1.17.22.3.15.54.34.71.58.17.24.29.51.35.81.06.3.09.61.09.92,0,.35,0,.73-.03,1.13-.02.4-.03.8-.04,1.2,0,.47.03.91.08,1.33h.94v.91h-1.86l-.13-1.05h-.07c-.06.08-.14.19-.25.32-.11.13-.26.26-.44.38-.47.32-1.02.48-1.59.47-.69,0-1.24-.18-1.64-.53-.4-.35-.6-.84-.6-1.46,0-.48.11-.87.32-1.19.21-.32.51-.56.9-.73s.87-.27,1.42-.29c.63-.02,1.25.01,1.87.11.05-.43.05-.79.02-1.07s-.11-.51-.22-.68c-.12-.17-.29-.3-.49-.36-.25-.08-.51-.11-.78-.1-.42,0-.82.06-1.2.17s-.72.24-1.02.36c0,0-.35-.81-.35-.81ZM143.45,79.99c.26,0,.5-.04.73-.13.21-.08.41-.19.59-.32.3-.23.53-.52.67-.87v-.98c-.44-.08-.89-.12-1.34-.13-.41,0-.76.04-1.06.13-.3.09-.53.23-.7.41-.17.19-.25.43-.25.73s.11.58.32.81.56.34,1.06.34h0ZM154.41,78.91c.01-.28-.12-.54-.35-.69-.27-.18-.56-.31-.87-.39-.37-.1-.75-.2-1.13-.27-.39-.08-.76-.19-1.13-.34-.33-.13-.62-.32-.87-.57-.23-.24-.35-.57-.35-1,0-.35.08-.66.23-.91.15-.25.36-.46.61-.62.25-.16.55-.28.88-.36.34-.08.69-.12,1.05-.12.65,0,1.22.08,1.69.24s.85.33,1.13.51l-.45.88c-.33-.18-.66-.34-1-.48-.36-.15-.81-.23-1.35-.23-.21,0-.41.02-.61.06-.2.04-.38.1-.55.19-.15.08-.29.19-.39.33-.1.15-.15.32-.15.5,0,.24.12.43.35.56s.52.24.87.33c.35.09.72.17,1.13.25.41.08.78.19,1.13.34.35.15.63.35.87.6.23.25.35.59.35,1.02,0,.64-.25,1.18-.76,1.6-.51.42-1.27.63-2.29.63-.31,0-.61-.03-.91-.08-.29-.05-.57-.13-.84-.22-.25-.09-.48-.19-.71-.31-.19-.1-.37-.22-.53-.36l.56-.91c.11.11.26.23.45.34.41.25.86.44,1.34.54.49.11.99.11,1.48.02.22-.04.41-.11.58-.2.16-.08.3-.2.4-.35.1-.16.15-.34.15-.53h0ZM164.09,79.92c-.17.15-.37.29-.6.42-.24.14-.49.25-.75.34-.27.09-.55.17-.85.22s-.59.08-.89.08c-.56,0-1.05-.09-1.48-.26-.41-.16-.78-.41-1.08-.74-.3-.34-.52-.73-.66-1.15-.16-.49-.23-1-.22-1.51,0-.59.08-1.11.24-1.57.16-.46.4-.84.71-1.15.32-.31.7-.56,1.12-.71.47-.17.97-.25,1.47-.24.39,0,.78.05,1.16.15.38.1.72.3,1.01.58s.52.68.68,1.18c.16.5.21,1.15.17,1.94h-5.42c0,.84.23,1.47.68,1.88s1.06.62,1.81.62c.25,0,.5-.03.75-.09.25-.06.48-.13.71-.22.21-.08.41-.17.6-.28.17-.1.31-.2.4-.28l.43.8ZM161.13,74.56c-.31,0-.6.03-.88.1-.26.06-.51.17-.73.33-.21.15-.38.35-.52.6s-.22.55-.26.92h4.35c-.05-.62-.24-1.09-.6-1.44-.35-.34-.81-.51-1.38-.51ZM170.4,81.72c0,.76-.2,1.33-.6,1.72s-.92.58-1.57.58h-2.03v-.98h1.53c.57,0,.98-.13,1.22-.41.24-.27.36-.69.36-1.26v-1.34c0-.36.07-.69.21-.99s.31-.56.5-.78c.2-.22.4-.39.6-.52.21-.13.37-.2.5-.22v-.08c-.13-.02-.3-.09-.5-.2-.49-.28-.87-.71-1.11-1.22-.14-.3-.21-.64-.21-1.02v-1.36c0-.55-.11-.97-.34-1.25s-.64-.42-1.23-.42h-1.54v-.98h2.03c.32,0,.61.06.88.17s.49.28.69.48c.19.21.34.45.45.73.11.28.16.59.16.92v1.43c0,.43.07.79.2,1.08.13.29.3.53.5.71.2.18.41.31.64.39.23.08.43.12.61.12v.98c-.18,0-.38.05-.61.14-.24.1-.46.25-.64.43-.21.21-.38.46-.5.74-.13.29-.2.64-.2,1.04v1.37ZM176.69,80.03c0-.28.09-.51.27-.68.18-.17.42-.26.71-.26.35,0,.63.12.83.37.2.25.29.6.29,1.04.01.61-.22,1.21-.64,1.66-.17.18-.37.34-.59.46-.21.12-.4.2-.58.26l-.35-.55c.34-.13.62-.32.87-.56s.36-.54.36-.88c-.13.03-.23.04-.31.04-.27,0-.48-.08-.64-.23-.15-.15-.23-.38-.23-.68h0ZM193.96,80.97c-.46,0-.91-.05-1.37-.13-.4-.08-.72-.18-.96-.31l.38-1.02c.19.11.44.21.76.3s.72.14,1.18.16v-3.78c-.28-.14-.56-.29-.83-.45-.27-.15-.52-.35-.74-.57-.22-.23-.39-.49-.52-.78-.13-.3-.2-.65-.2-1.06,0-.67.19-1.22.57-1.65.38-.43.95-.69,1.71-.8v-1.27h.95v1.23c.48.02.87.06,1.17.13.3.07.58.16.82.27l-.34.98c-.22-.1-.44-.19-.67-.24-.32-.08-.65-.12-.98-.13v3.46c.29.15.58.31.87.48.29.17.55.37.78.6.23.22.41.49.55.78s.21.65.21,1.05c0,.73-.2,1.33-.61,1.8-.41.47-1.01.77-1.8.9v1.29h-.95v-1.23h0ZM196.16,78.31c0-.22-.04-.42-.12-.6-.08-.18-.18-.34-.32-.48-.14-.15-.29-.27-.46-.38-.19-.12-.38-.22-.57-.32v3.4c.43-.08.78-.24,1.06-.5.27-.26.41-.63.41-1.12h0ZM192.84,73.25c0,.4.13.73.38.98s.58.48.96.69v-3.07c-.49.06-.84.22-1.04.49-.2.27-.3.57-.3.91ZM201.76,80.35c0-.4-.07-.75-.2-1.04-.12-.27-.29-.52-.5-.74-.2-.2-.41-.34-.64-.43-.19-.09-.4-.13-.61-.14v-.98c.18,0,.38-.04.61-.12.23-.08.44-.21.64-.39.2-.18.37-.42.5-.71.13-.29.2-.65.2-1.08v-1.43c0-.34.05-.64.16-.92.1-.27.25-.52.45-.73.19-.21.42-.37.69-.48s.56-.17.88-.17h2.03v.98h-1.54c-.59,0-1,.14-1.23.42s-.34.69-.34,1.25v1.36c0,.38-.07.72-.21,1.02-.23.51-.62.94-1.11,1.22-.21.12-.37.18-.5.2v.08c.12.02.29.09.49.22s.41.3.6.52c.2.22.37.48.51.78s.22.63.22.99v1.34c0,.57.12.99.36,1.26s.65.41,1.22.41h1.53v.98h-2.03c-.65,0-1.18-.19-1.57-.58s-.6-.96-.6-1.72c0,0,0-1.37,0-1.37ZM208.38,76.25c0-.39-.03-.79-.06-1.18-.01-.12-.03-.24-.05-.36h-.94v-.91h1.88l.13,1.13h.07c.09-.16.22-.31.37-.47.34-.34.76-.59,1.23-.72.25-.08.52-.11.8-.11.43,0,.81.05,1.14.14.33.09.61.26.83.5.22.24.38.56.5.97s.17.92.17,1.55v4.02h-1.09v-3.81c0-.78-.13-1.36-.38-1.75s-.71-.59-1.37-.59c-.24,0-.48.05-.71.15-.23.1-.44.23-.62.38-.19.16-.35.34-.49.55-.14.21-.24.43-.31.67v4.4h-1.08v-4.55h0ZM216.99,74.35c.42-.24.88-.41,1.36-.5.49-.1.99-.15,1.48-.15.48,0,.87.08,1.17.22.3.15.54.34.71.58.17.24.29.51.35.81.06.3.09.61.09.92,0,.35,0,.73-.03,1.13-.02.4-.03.8-.04,1.2,0,.47.03.91.08,1.33h.94v.91h-1.86l-.13-1.05h-.07c-.06.08-.14.19-.25.32-.11.13-.26.26-.44.38-.47.32-1.02.48-1.59.47-.69,0-1.24-.18-1.64-.53-.4-.35-.6-.84-.6-1.46,0-.48.1-.87.32-1.19.21-.32.51-.56.9-.73s.87-.27,1.42-.29c.63-.02,1.25.01,1.87.11.05-.43.05-.79.02-1.07s-.11-.51-.22-.68c-.12-.17-.29-.3-.49-.36-.25-.08-.51-.11-.78-.1-.42,0-.82.06-1.2.17s-.72.24-1.02.36c0,0-.35-.81-.35-.81ZM219.05,79.99c.26,0,.5-.04.73-.13.21-.08.41-.19.59-.32.3-.23.53-.52.67-.87v-.98c-.44-.08-.89-.12-1.34-.13-.41,0-.76.04-1.06.13s-.53.23-.7.41c-.17.19-.25.43-.25.73s.1.58.32.81.56.34,1.06.34h0ZM227.55,80.8v-4.66c0-.2,0-.38-.02-.57-.01-.17-.04-.33-.1-.49-.04-.13-.12-.25-.22-.34-.11-.09-.25-.13-.38-.13-.32,0-.59.13-.8.39-.22.26-.38.59-.5.98v4.82h-1.06v-7h.73l.21.85h.06c.09-.14.18-.27.27-.4.09-.13.19-.24.31-.33s.25-.17.41-.22.36-.08.6-.08c.14,0,.29.02.43.06.15.04.29.11.41.2.13.09.24.21.33.36.09.15.15.33.18.55.21-.36.46-.65.72-.85.27-.21.63-.31,1.1-.31.31,0,.56.05.75.15s.34.25.45.44c.11.19.18.42.22.69.04.27.06.56.06.89v5h-1.06v-4.76c0-.2,0-.38-.03-.55-.01-.16-.05-.31-.1-.46-.04-.12-.12-.22-.21-.31-.1-.08-.23-.12-.36-.11-.33,0-.6.13-.83.39-.22.26-.39.63-.5,1.12v4.68h-1.06ZM239.69,79.92c-.17.15-.37.29-.6.42-.24.14-.49.25-.75.34-.27.09-.55.17-.85.22s-.59.08-.89.08c-.56,0-1.05-.09-1.48-.26-.41-.16-.78-.41-1.08-.74-.3-.34-.52-.73-.66-1.15-.16-.49-.23-1-.22-1.51,0-.59.08-1.11.24-1.57.16-.46.4-.84.71-1.15.32-.31.7-.56,1.12-.71.47-.17.97-.25,1.47-.24.39,0,.78.05,1.16.15.38.1.72.3,1.01.58s.52.68.68,1.18c.16.5.21,1.15.17,1.94h-5.42c0,.84.23,1.47.68,1.88s1.06.62,1.81.62c.25,0,.5-.03.75-.09.25-.06.48-.13.71-.22.21-.08.41-.17.6-.28.17-.1.31-.2.4-.28l.43.8ZM236.73,74.56c-.31,0-.6.03-.88.1-.26.06-.51.17-.73.33-.21.15-.38.35-.52.6s-.22.55-.26.92h4.35c-.05-.62-.24-1.09-.6-1.44-.35-.34-.81-.51-1.38-.51ZM246,81.72c0,.76-.2,1.33-.6,1.72s-.92.58-1.57.58h-2.03v-.98h1.53c.57,0,.98-.13,1.22-.41.24-.27.36-.69.36-1.26v-1.34c0-.36.07-.69.21-.99s.31-.56.5-.78c.2-.22.4-.39.6-.52.21-.13.37-.2.5-.22v-.08c-.13-.02-.3-.09-.5-.2-.49-.28-.87-.71-1.11-1.22-.14-.3-.21-.64-.21-1.02v-1.36c0-.55-.11-.97-.34-1.25s-.64-.42-1.23-.42h-1.54v-.98h2.03c.32,0,.61.06.88.17s.49.28.69.48c.19.21.34.45.45.73.11.28.16.59.16.92v1.43c0,.43.07.79.2,1.08.13.29.3.53.5.71.2.18.41.31.64.39.23.08.43.12.61.12v.98c-.18,0-.38.05-.61.14-.24.1-.46.25-.64.43-.21.21-.38.46-.5.74-.13.29-.2.64-.2,1.04v1.37ZM254.26,72.81h-.77l-1.67-2.09h1.53l.91,2.09ZM267.88,82.8c.47-.1.92-.27,1.34-.5.46-.25.87-.59,1.2-.99.36-.42.65-.96.87-1.6.22-.64.33-1.41.33-2.32s-.09-1.66-.27-2.29-.44-1.16-.77-1.58c-.32-.42-.72-.76-1.18-1.02-.48-.27-.99-.47-1.51-.62l.35-.88c.61.13,1.18.35,1.73.67.55.32,1.04.74,1.43,1.25.41.52.74,1.15.98,1.89s.36,1.61.36,2.6-.12,1.86-.36,2.59-.56,1.34-.97,1.85c-.39.49-.88.91-1.43,1.22-.55.31-1.14.55-1.76.71l-.35-.97h0ZM277.49,80.03c0-.28.09-.51.27-.68s.42-.26.71-.26c.36,0,.63.12.83.37.2.25.29.6.29,1.04.01.61-.22,1.21-.64,1.66-.17.18-.37.34-.59.46-.21.12-.4.2-.58.26l-.35-.55c.34-.13.62-.32.87-.56s.36-.54.36-.88c-.13.03-.23.04-.31.04-.27,0-.48-.08-.64-.23s-.23-.38-.23-.68h0ZM277.61,74.53c0-.3.08-.53.25-.69.17-.16.39-.24.67-.24.3,0,.53.08.7.24s.25.39.25.69c0,.27-.08.49-.25.67-.17.18-.4.27-.7.27-.28,0-.5-.09-.67-.27-.17-.18-.26-.42-.25-.67Z"/>
        <path id="_x7D_" class="st2" d="M19.2,98.72c0,.76-.2,1.33-.6,1.71-.4.39-.92.58-1.58.58h-2.03v-.98h1.53c.57,0,.97-.14,1.22-.41.24-.27.36-.69.36-1.26v-1.34c0-.36.07-.69.21-.99s.31-.56.5-.78c.2-.22.4-.39.6-.52s.37-.2.5-.22v-.08c-.13-.02-.3-.09-.5-.2-.49-.28-.87-.71-1.11-1.22-.14-.3-.21-.64-.21-1.02v-1.36c0-.55-.11-.97-.34-1.25-.23-.28-.64-.42-1.23-.42h-1.54v-.98h2.03c.32,0,.61.06.88.18.27.12.5.28.69.48s.34.45.45.73c.11.28.16.59.16.92v1.43c0,.43.07.79.2,1.08.14.29.3.53.5.71.2.18.41.31.64.39.23.08.43.12.61.12v.98c-.18,0-.38.05-.61.14-.24.1-.46.25-.64.43-.21.21-.38.46-.5.74-.14.29-.2.64-.2,1.04v1.37Z"/>
        <path id="say_x28__x22_John_x22__x29__x3B_" class="st10" d="M20.01,129.91c.01-.28-.12-.54-.35-.69-.27-.18-.56-.31-.87-.39-.37-.1-.75-.2-1.13-.27-.39-.08-.76-.19-1.13-.34-.33-.13-.62-.32-.87-.57-.23-.24-.35-.57-.35-1,0-.36.08-.66.23-.91.15-.25.36-.46.61-.62.25-.16.55-.29.88-.36.34-.08.69-.12,1.05-.12.65,0,1.22.08,1.69.25.47.16.85.33,1.13.51l-.45.88c-.33-.18-.66-.34-1-.48-.36-.15-.81-.23-1.35-.23-.2,0-.41.02-.61.06-.2.04-.38.11-.55.19-.15.08-.29.19-.39.33-.1.15-.15.32-.15.5,0,.24.12.43.35.56s.52.24.87.33c.35.09.72.17,1.13.25.41.08.78.19,1.13.34.34.15.63.35.87.6.23.25.35.59.35,1.02,0,.64-.25,1.18-.76,1.6s-1.27.63-2.29.63c-.31,0-.61-.03-.91-.08-.29-.05-.57-.13-.84-.22-.25-.09-.48-.19-.71-.32-.19-.1-.37-.22-.53-.36l.56-.91c.11.11.26.23.45.34.41.25.86.44,1.34.54.49.11.99.11,1.48.02.22-.04.41-.11.58-.2.16-.08.3-.2.4-.35.1-.16.15-.34.15-.53ZM23.79,125.35c.42-.24.88-.41,1.36-.5.49-.1.99-.15,1.48-.15.48,0,.87.07,1.17.22.3.15.54.34.71.58.17.24.29.51.35.81.06.3.09.61.09.92,0,.36-.01.73-.03,1.13-.02.4-.03.8-.04,1.2,0,.47.03.91.08,1.33h.94v.91h-1.86l-.13-1.05h-.07c-.06.08-.14.19-.25.32-.11.13-.26.26-.44.39-.47.32-1.02.48-1.59.47-.69,0-1.24-.18-1.64-.53-.4-.36-.6-.84-.6-1.46,0-.48.1-.87.31-1.19s.51-.56.9-.73.87-.27,1.42-.29c.63-.02,1.25.01,1.87.11.05-.43.05-.79.02-1.07-.03-.29-.11-.51-.22-.68-.12-.17-.29-.3-.49-.36-.25-.08-.51-.11-.78-.11-.42,0-.82.06-1.2.18-.38.12-.72.24-1.02.36l-.35-.81h0ZM25.85,130.99c.26,0,.5-.04.73-.13.21-.08.41-.19.59-.32.3-.23.53-.52.67-.87v-.98c-.44-.08-.89-.12-1.34-.13-.41,0-.77.04-1.06.13-.3.09-.53.23-.7.41-.17.19-.25.43-.25.73s.1.58.31.81c.21.23.56.34,1.06.34ZM35.03,130.72h.53l1.74-5.92h1.13l-1.95,6.29c-.1.33-.21.7-.32,1.11-.1.41-.26.8-.45,1.17-.19.36-.47.68-.8.92-.34.25-.77.38-1.32.38-.12,0-.25-.01-.39-.04-.13-.03-.27-.06-.4-.11-.12-.04-.25-.09-.36-.15-.09-.04-.18-.1-.25-.17l.39-1.01c.06.05.13.09.23.14.1.05.2.09.32.12.12.03.23.06.34.08.11.02.2.04.28.04.7,0,1.18-.59,1.43-1.78h-.94l-2.94-7h1.26s2.45,5.92,2.45,5.92ZM45.13,134.77c-.62-.15-1.21-.39-1.76-.71-.55-.32-1.03-.73-1.43-1.22-.41-.5-.73-1.12-.97-1.85s-.36-1.59-.36-2.59.12-1.86.36-2.6.57-1.37.98-1.89.89-.93,1.43-1.25c.54-.31,1.12-.53,1.73-.67l.35.88c-.53.15-1.03.36-1.51.62-.46.26-.86.61-1.18,1.02-.33.43-.59.95-.77,1.58-.18.63-.27,1.39-.27,2.29s.11,1.68.33,2.32c.22.64.51,1.17.87,1.6.36.43.76.76,1.2.99.44.24.89.4,1.34.5l-.35.97h0ZM52.51,122h1.23l-.43,4.24h-.8v-4.24ZM49.61,122h1.23l-.43,4.24h-.8v-4.24ZM57.24,122h5.54v6.33c0,1.18-.28,2.07-.84,2.69-.56.62-1.37.92-2.42.92-.52,0-1.04-.09-1.53-.26-.2-.07-.4-.16-.58-.26-.13-.07-.25-.16-.36-.27l.5-.92c.1.07.22.14.34.21s.27.15.42.22c.37.17.77.25,1.17.25.7,0,1.23-.22,1.59-.66.36-.44.54-1.15.54-2.13v-5.08h-4.38s0-1.04,0-1.04ZM65.08,128.3c0-1.13.29-2.02.88-2.68s1.43-.99,2.52-.99c.59,0,1.09.1,1.52.29s.78.45,1.06.78.49.71.62,1.16c.13.45.2.93.2,1.44,0,.56-.08,1.07-.22,1.52-.15.45-.37.84-.66,1.15-.29.32-.65.56-1.07.74-.46.18-.95.27-1.45.26-.58,0-1.08-.1-1.51-.29-.41-.18-.77-.44-1.06-.78-.29-.34-.5-.74-.62-1.16-.14-.47-.21-.95-.2-1.44ZM66.24,128.3c0,.33.04.65.12.98.08.33.21.62.38.88.18.26.41.47.69.63s.63.24,1.04.24c.75,0,1.31-.23,1.69-.69s.57-1.14.57-2.04c0-.34-.04-.67-.12-.99-.08-.31-.21-.61-.39-.88-.18-.26-.42-.48-.7-.63-.28-.16-.63-.24-1.04-.24-.75,0-1.31.23-1.68.69s-.56,1.14-.56,2.04ZM72.74,122h2.18v3.67h.07c.29-.33.62-.58,1.01-.76s.86-.27,1.43-.27c.45,0,.84.05,1.17.14.33.09.6.26.81.49.21.23.37.55.47.96.1.41.15.92.15,1.55v4.03h-1.09v-3.82c0-.4-.02-.75-.07-1.05-.03-.27-.13-.52-.27-.75-.13-.2-.32-.35-.55-.46-.23-.1-.53-.15-.9-.15-.25,0-.5.04-.74.13-.24.09-.46.21-.67.36-.2.15-.37.34-.52.56s-.24.46-.3.72v4.45h-1.08v-8.86h-1.11v-.94ZM82.38,127.25c0-.39-.03-.79-.06-1.18-.01-.12-.03-.24-.05-.36h-.94v-.91h1.88l.13,1.13h.07c.09-.16.22-.32.37-.47.34-.34.76-.59,1.22-.72.25-.07.52-.11.8-.11.43,0,.81.05,1.14.14s.61.26.83.5c.22.24.39.56.5.97.11.41.17.92.17,1.55v4.02h-1.09v-3.81c0-.78-.13-1.36-.38-1.75s-.71-.59-1.37-.59c-.24,0-.48.05-.71.15-.23.1-.44.23-.62.39-.19.16-.35.34-.49.55s-.24.43-.31.67v4.4h-1.08v-4.55h0ZM94.51,122h1.23l-.43,4.24h-.8s0-4.24,0-4.24ZM91.61,122h1.23l-.43,4.24h-.8s0-4.24,0-4.24ZM99.88,133.8c.47-.1.92-.27,1.34-.5.46-.25.87-.59,1.2-.99.36-.43.65-.96.87-1.6.22-.64.33-1.41.33-2.32s-.09-1.66-.27-2.29c-.18-.63-.44-1.16-.77-1.58-.32-.42-.72-.76-1.18-1.02-.48-.27-.99-.47-1.51-.62l.35-.88c.61.13,1.18.35,1.73.67.55.32,1.04.74,1.43,1.25.41.52.74,1.15.98,1.89s.36,1.61.36,2.6-.12,1.86-.36,2.59-.56,1.34-.97,1.85c-.39.49-.88.91-1.43,1.22-.55.31-1.14.55-1.76.71l-.35-.97h0ZM109.49,131.03c0-.28.09-.51.27-.68.18-.17.42-.26.71-.26.36,0,.63.12.83.37s.29.6.29,1.04c.01.61-.22,1.21-.64,1.66-.17.18-.37.34-.59.46-.21.12-.4.2-.58.26l-.35-.55c.34-.13.62-.32.87-.56s.36-.54.36-.88c-.13.03-.23.04-.31.04-.27,0-.48-.08-.64-.23s-.23-.38-.23-.68ZM109.61,125.53c0-.3.08-.53.25-.69s.39-.25.67-.25c.3,0,.53.08.7.25s.25.39.25.69c0,.27-.08.5-.25.67-.17.18-.4.27-.7.27-.28,0-.5-.09-.67-.27-.17-.18-.26-.42-.25-.67Z"/>
        <path id="_x2F__x2F_Hello_x2C_John" class="st13" d="M129.39,121.83l.88.39-5.11,11.54-.88-.39,5.11-11.54ZM137.79,121.83l.88.39-5.11,11.54-.88-.39,5.11-11.54ZM154.68,127.31h-4.4v4.49h-1.16v-9.8h1.16v4.27h4.4v-4.27h1.16v9.8h-1.16v-4.49ZM164.09,130.92c-.17.15-.37.29-.6.42-.24.14-.49.25-.75.34-.27.09-.55.17-.85.22s-.59.08-.89.08c-.56,0-1.05-.09-1.48-.26-.41-.16-.78-.41-1.08-.74-.3-.34-.52-.73-.66-1.15-.16-.49-.23-1-.22-1.51,0-.59.08-1.11.24-1.57.16-.46.4-.84.71-1.15.32-.31.7-.56,1.12-.71.47-.17.97-.25,1.47-.25.39,0,.78.05,1.16.15.38.1.72.3,1.01.58s.52.68.68,1.18c.16.5.21,1.15.17,1.94h-5.42c0,.84.23,1.47.68,1.88s1.06.62,1.81.62c.25,0,.5-.03.75-.09.25-.06.48-.13.71-.22.21-.08.41-.17.6-.28.17-.1.31-.2.4-.28l.43.8ZM161.13,125.56c-.31,0-.6.03-.88.1-.26.06-.51.17-.73.33-.21.15-.38.36-.52.6s-.22.55-.26.92h4.35c-.05-.62-.24-1.09-.6-1.43-.35-.34-.81-.51-1.38-.51ZM166.75,122h2.32v7.45c0,.57.1.97.29,1.2.19.23.47.35.85.35.26,0,.51-.05.75-.14.24-.09.5-.25.79-.48l.5.77c-.15.13-.31.25-.49.35-.34.2-.72.34-1.11.42-.48.09-.98.07-1.44-.08-.26-.08-.49-.23-.68-.43-.2-.22-.34-.49-.41-.78-.09-.32-.14-.72-.14-1.2v-6.51h-1.23v-.94ZM175.15,122h2.32v7.45c0,.57.1.97.29,1.2.19.23.47.35.85.35.26,0,.51-.05.75-.14.24-.09.5-.25.79-.48l.5.77c-.15.13-.31.25-.49.35-.34.2-.72.34-1.11.42-.48.09-.98.07-1.44-.08-.26-.08-.49-.23-.68-.43-.2-.22-.34-.49-.41-.78-.09-.32-.14-.72-.14-1.2v-6.51h-1.23v-.94ZM182.68,128.3c0-1.13.29-2.02.88-2.68s1.43-.99,2.52-.99c.59,0,1.09.1,1.52.29s.78.45,1.06.78c.28.33.49.71.62,1.16.13.45.2.93.2,1.44,0,.56-.07,1.07-.22,1.52-.15.45-.37.84-.66,1.15-.29.32-.65.56-1.07.74-.46.18-.95.27-1.45.26-.58,0-1.08-.1-1.51-.29-.41-.18-.77-.44-1.06-.78-.29-.34-.5-.74-.62-1.16-.14-.47-.21-.95-.2-1.44h0ZM183.84,128.3c0,.33.04.65.12.98.08.33.21.62.38.88.18.26.41.47.69.63.29.16.63.24,1.04.24.75,0,1.31-.23,1.69-.69.38-.46.57-1.14.57-2.04,0-.34-.04-.67-.12-.99-.08-.31-.21-.61-.39-.88-.18-.26-.42-.48-.7-.63-.29-.16-.63-.24-1.04-.24-.75,0-1.31.23-1.68.69-.37.46-.56,1.14-.56,2.04ZM193.49,131.03c0-.28.09-.51.27-.68.18-.17.42-.26.71-.26.35,0,.63.12.83.37s.29.6.29,1.04c.01.61-.22,1.21-.64,1.66-.17.18-.37.34-.59.46-.21.12-.4.2-.58.26l-.35-.55c.34-.13.62-.32.87-.56s.36-.54.36-.88c-.13.03-.23.04-.31.04-.27,0-.48-.08-.64-.23-.15-.15-.23-.38-.23-.68h0ZM208.44,122h5.54v6.33c0,1.18-.28,2.07-.84,2.69-.56.62-1.37.92-2.42.92-.52,0-1.04-.09-1.53-.26-.2-.07-.4-.16-.58-.26-.13-.07-.25-.16-.36-.27l.5-.92c.1.07.22.14.34.21s.27.15.42.22c.37.17.77.25,1.17.25.7,0,1.23-.22,1.59-.66.36-.44.54-1.15.54-2.13v-5.08h-4.38v-1.04h0ZM216.28,128.3c0-1.13.29-2.02.88-2.68s1.43-.99,2.52-.99c.59,0,1.09.1,1.52.29s.78.45,1.06.78c.28.33.49.71.62,1.16.13.45.2.93.2,1.44,0,.56-.07,1.07-.22,1.52-.15.45-.37.84-.66,1.15-.29.32-.65.56-1.07.74-.46.18-.95.27-1.45.26-.58,0-1.08-.1-1.51-.29-.41-.18-.77-.44-1.06-.78-.29-.34-.5-.74-.62-1.16-.14-.47-.21-.95-.2-1.44h0ZM217.44,128.3c0,.33.04.65.12.98.08.33.21.62.38.88.18.26.41.47.69.63.29.16.63.24,1.04.24.75,0,1.31-.23,1.69-.69.38-.46.57-1.14.57-2.04,0-.34-.04-.67-.12-.99-.08-.31-.21-.61-.39-.88-.18-.26-.42-.48-.7-.63-.29-.16-.63-.24-1.04-.24-.75,0-1.31.23-1.68.69-.37.46-.56,1.14-.56,2.04ZM223.94,122h2.18v3.67h.07c.29-.33.62-.58,1.01-.76s.86-.27,1.43-.27c.45,0,.84.05,1.17.14.33.09.6.26.81.49.21.23.37.55.47.96s.15.92.15,1.55v4.03h-1.09v-3.82c0-.4-.02-.75-.07-1.05-.03-.27-.13-.52-.27-.75-.13-.2-.32-.35-.55-.46-.23-.1-.53-.15-.9-.15-.25,0-.5.04-.74.13-.24.09-.46.21-.66.36-.2.15-.37.34-.52.56s-.24.46-.3.72v4.45h-1.08v-8.86h-1.11v-.94h0ZM233.58,127.25c0-.39-.03-.79-.06-1.18-.01-.12-.03-.24-.05-.36h-.94v-.91h1.88l.13,1.13h.07c.09-.16.22-.32.37-.47.34-.34.76-.59,1.23-.72.25-.07.52-.11.8-.11.43,0,.81.05,1.14.14.33.09.61.26.83.5.22.24.38.56.5.97.11.41.17.92.17,1.55v4.02h-1.09v-3.81c0-.78-.13-1.36-.38-1.75s-.71-.59-1.37-.59c-.24,0-.48.05-.71.15-.23.1-.44.23-.62.39-.19.16-.35.34-.49.55s-.24.43-.31.67v4.4h-1.08v-4.55h0Z"/>
      </g>
      <path id="Rectangle-1-Copy1" data-name="Rectangle-1-Copy" class="st7" d="M0,84v-13l9,6.5"/>
      <g id="Lexical-Environment" class="st4">
        <text class="st1" transform="translate(315.15 36)"><tspan x="0" y="0">Leksikalt miljø for kaldet</tspan></text>
      </g>
      <g id="Lexical-Environment1" data-name="Lexical-Environment" class="st4">
        <text class="st1" transform="translate(531.75 36)"><tspan x="0" y="0">ydre miljø</tspan></text>
      </g>
    </g>
  </g>
</svg>