<?xml version="1.0" encoding="UTF-8"?>
<svg id="Layer_1" xmlns="http://www.w3.org/2000/svg" version="1.1" viewBox="0 0 514 411">
  <!-- Generator: Adobe Illustrator 30.0.0, SVG Export Plug-In . SVG Version: 2.1.1 Build 123)  -->
  <defs>
    <style>
      .st0 {
        fill: #fff;
      }

      .st0, .st1 {
        fill-rule: evenodd;
      }

      .st1 {
        fill: #fbf2ec;
        stroke: #dbaf88;
        stroke-width: 2px;
      }

      .st2, .st3, .st4 {
        isolation: isolate;
      }

      .st3, .st5 {
        font-family: PTMono-Regular, 'PT Mono';
      }

      .st3, .st5, .st4 {
        fill: #af6e24;
        font-size: 14px;
      }

      .st6 {
        fill: #c06334;
      }

      .st4 {
        font-family: OpenSans, 'Open Sans';
      }
    </style>
  </defs>
  <g id="combined">
    <g id="try-catch-flow.svg">
      <g id="Rectangle-1-_x2B_-Корень">
        <path id="Rectangle-1" class="st1" d="M222,5h50c7.73,0,14,6.27,14,14h0c0,7.73-6.27,14-14,14h-50c-7.73,0-14-6.27-14-14h0c0-7.73,6.27-14,14-14Z"/>
        <g id="Begin" class="st2">
          <text class="st4" transform="translate(228 24)"><tspan x="0" y="0">Start</tspan></text>
        </g>
      </g>
      <path id="Line" class="st6" d="M249,34v23.05h8s-9.5,19-9.5,19l-9.5-19h8v-23.05h3Z"/>
      <path id="Line-Copy" class="st6" d="M399,297v23.05h8s-9.5,19-9.5,19l-9.5-19h8v-23.05h3Z"/>
      <path id="Path-1218" class="st6" d="M158.5,131.5v3h-59v85h8l-9.5,19-9.5-19h8v-88h62Z"/>
      <path id="Path-1218-Copy" class="st6" d="M400.5,131.5v88s8,0,8,0l-9.5,19-9.5-19h8v-85h-82v-3h85Z"/>
      <g id="Rectangle-354-_x2B_-Каково-_x201C_официальное_x201D_">
        <path id="Rectangle-354" class="st1" d="M247.61,82.14l91.55,50.86-91.55,50.86-91.55-50.86,91.55-50.86Z"/>
      </g>
      <g id="Rectangle-356-_x2B_-Отмена">
        <path id="Rectangle-356" class="st0" d="M59,179h60v20h-60v-20Z"/>
        <g id="No-Errors" class="st2">
          <text class="st4" transform="translate(66.5 192)"><tspan x="0" y="0">Ingen fejl</tspan></text>
        </g>
      </g>
      <g id="Rectangle-356-Copy-_x2B_-_x201C_Админ_x201D_">
        <path id="Rectangle-356-Copy" class="st0" d="M368,178h60v20h-60v-20Z"/>
        <g id="An-error-occured-in" class="st2">
          <text class="st4" transform="translate(330.65 191)"><tspan x="0" y="0">En fejl skete i koden</tspan></text>
        </g>
      </g>
      <path id="Rectangle-1-Copy-2" class="st1" d="M316.5,349h165c13.53,0,24.5,10.97,24.5,24.5h0c0,13.53-10.97,24.5-24.5,24.5h-165c-13.53,0-24.5-10.97-24.5-24.5h0c0-13.53,10.97-24.5,24.5-24.5Z"/>
      <path id="Rectangle-11" data-name="Rectangle-1" class="st1" d="M25.5,244h146c13.53,0,24.5,10.97,24.5,24.5h0c0,13.53-10.97,24.5-24.5,24.5H25.5c-13.53,0-24.5-10.97-24.5-24.5h0c0-13.53,10.97-24.5,24.5-24.5Z"/>
      <path id="Rectangle-1-Copy" class="st1" d="M314.5,244h167c13.53,0,24.5,10.97,24.5,24.5h0c0,13.53-10.97,24.5-24.5,24.5h-167c-13.53,0-24.5-10.97-24.5-24.5h0c0-13.53,10.97-24.5,24.5-24.5Z"/>
      <g id="Ignore-catch-block" class="st2">
        <text class="st4" transform="translate(39 272)"><tspan x="0" y="0">Ignorer catch blok</tspan></text>
      </g>
      <g id="Ignore-the-rest-of-t" class="st2">
        <text class="st4" transform="translate(332 272)"><tspan x="0" y="0">Ignorer resten af try</tspan></text>
      </g>
      <g id="Execute-catch-block" class="st2">
        <text class="st4" transform="translate(326 379)"><tspan x="0" y="0">Eksekver catch blokken</tspan></text>
      </g>
      <g id="try-_x7B_-_x7D_" class="st2">
        <text class="st3" transform="translate(218 117)"><tspan x="0" y="0">try {</tspan></text>
        <text class="st5" transform="translate(260 117)"><tspan x="0" y="0"> </tspan></text>
        <text class="st3" transform="translate(218 157)"><tspan x="0" y="0">}</tspan></text>
      </g>
      <g id="_x2F__x2F_-code..." class="st2">
        <text class="st3" transform="translate(232 138)"><tspan x="0" y="0">// code...</tspan></text>
      </g>
    </g>
  </g>
</svg>