<?xml version="1.0" encoding="UTF-8"?>
<svg id="Layer_1" xmlns="http://www.w3.org/2000/svg" version="1.1" viewBox="0 0 589 467">
  <!-- Generator: Adobe Illustrator 30.0.0, SVG Export Plug-In . SVG Version: 2.1.1 Build 123)  -->
  <defs>
    <style>
      .st0 {
        fill: #fbf2ec;
        fill-rule: evenodd;
        stroke: #dbaf88;
        stroke-width: 2px;
      }

      .st1, .st2, .st3 {
        isolation: isolate;
      }

      .st2, .st4 {
        fill: #af6e24;
      }

      .st2, .st4, .st3 {
        font-family: PTMono-Regular, 'PT Mono';
        font-size: 14px;
      }

      .st5, .st3 {
        fill: #c06334;
      }
    </style>
  </defs>
  <g id="inheritance">
    <g id="class-inheritance-rabbit-animal-2.svg">
      <path id="Rectangle-1" class="st0" d="M11,336h220v28H11v-28Z"/>
      <g id="jump:-function" class="st1">
        <text class="st2" transform="translate(21 354)"><tspan x="0" y="0">jump: function</tspan></text>
      </g>
      <g id="Rabbit.prototype" class="st1">
        <text class="st2" transform="translate(10 328)"><tspan x="0" y="0">Rabbit.prototype</tspan></text>
      </g>
      <g id="rabbit" class="st1">
        <text class="st2" transform="translate(10 424)"><tspan x="0" y="0">rabbit</tspan></text>
      </g>
      <path id="Rectangle-11" data-name="Rectangle-1" class="st0" d="M11,230h220v28H11v-28Z"/>
      <g id="eat:-function" class="st1">
        <text class="st2" transform="translate(21 250)"><tspan x="0" y="0">eat: function</tspan></text>
      </g>
      <g id="Animal.prototype" class="st1">
        <text class="st2" transform="translate(10 222)"><tspan x="0" y="0">Animal.prototype</tspan></text>
      </g>
      <path id="Rectangle-12" data-name="Rectangle-1" class="st0" d="M11,433h220v28H11v-28Z"/>
      <path id="Line" class="st5" d="M70.5,378.5l7,14h-6v28h-2v-28h-6l7-14Z"/>
      <path id="Line-2" class="st5" d="M70.5,270.5l7,14h-6v28h-2v-28h-6l7-14Z"/>
      <g id="name:-_x22_White-Rabbit_x22_" class="st1">
        <text class="st2" transform="translate(18 451)"><tspan x="0" y="0">name: &quot;White Rabbit&quot;</tspan></text>
      </g>
      <g id="_x5B__x5B_Prototype_x5D__x5D_" class="st1">
        <text class="st3" transform="translate(83 303)"><tspan x="0" y="0">[[Prototype]]</tspan></text>
      </g>
      <g id="_x5B__x5B_Prototype_x5D__x5D_-Copy" class="st1">
        <text class="st2" transform="translate(83 406)"><tspan x="0" y="0">[[Prototype]]</tspan></text>
      </g>
      <g id="Rabbit.prototype.__p" class="st1">
        <text class="st3" transform="translate(84 283)"><tspan x="0" y="0">Rabbit.prototype.__proto__ = Animal.prototype sætter this</tspan></text>
      </g>
      <path id="Rectangle-13" data-name="Rectangle-1" class="st0" d="M11,95h220v58H11v-58Z"/>
      <g id="toString:-function-h" class="st1">
        <text class="st2" transform="translate(21 112)"><tspan x="0" y="0">toString: function</tspan></text>
        <text class="st4" transform="translate(172.2 112)"><tspan x="0" y="0"> </tspan></text>
        <text class="st2" transform="translate(21 127)"><tspan x="0" y="0">hasOwnProperty: function</tspan></text>
        <text class="st4" transform="translate(222.6 127)"><tspan x="0" y="0"> </tspan></text>
        <text class="st2" transform="translate(21 142)"><tspan x="0" y="0">...</tspan></text>
      </g>
      <g id="Object.prototype" class="st1">
        <text class="st2" transform="translate(10 87)"><tspan x="0" y="0">Object.prototype</tspan></text>
      </g>
      <path id="Line1" data-name="Line" class="st5" d="M70.5,161.5l7,14h-6v28h-2v-28h-6l7-14Z"/>
      <g id="_x5B__x5B_Prototype_x5D__x5D_1" data-name="_x5B__x5B_Prototype_x5D__x5D_" class="st1">
        <text class="st2" transform="translate(80 183)"><tspan x="0" y="0">[[Prototype]]</tspan></text>
      </g>
      <path id="Line-21" data-name="Line-2" class="st5" d="M70.5,29.5l7,14h-6v28h-2v-28h-6l7-14Z"/>
      <g id="_x5B__x5B_Prototype_x5D__x5D_2" data-name="_x5B__x5B_Prototype_x5D__x5D_" class="st1">
        <text class="st2" transform="translate(80 51)"><tspan x="0" y="0">[[Prototype]]</tspan></text>
      </g>
      <g id="null" class="st1">
        <text class="st2" transform="translate(56 18)"><tspan x="0" y="0">null</tspan></text>
      </g>
    </g>
  </g>
</svg>