<?xml version="1.0" encoding="UTF-8"?>
<svg id="Layer_1" xmlns="http://www.w3.org/2000/svg" version="1.1" viewBox="0 0 449 211">
  <!-- Generator: Adobe Illustrator 30.0.0, SVG Export Plug-In . SVG Version: 2.1.1 Build 123)  -->
  <defs>
    <style>
      .st0 {
        fill: #fbf2ec;
        fill-rule: evenodd;
        stroke: #dbaf88;
        stroke-width: 2px;
      }

      .st1, .st2 {
        isolation: isolate;
      }

      .st2, .st3 {
        fill: #af6e24;
        font-family: PTMono-Regular, 'PT Mono';
        font-size: 14px;
      }

      .st4 {
        fill: #c06334;
      }
    </style>
  </defs>
  <g id="inheritance">
    <g id="rabbit-animal-independent-animal.svg">
      <path id="Rectangle-1" class="st0" d="M440,23v64h-202V23h202Z"/>
      <g id="constructor:-Animal" class="st1">
        <text class="st2" transform="translate(248 44)"><tspan x="0" y="0">constructor: Animal</tspan></text>
        <text class="st3" transform="translate(407.6 44)"><tspan x="0" y="0"> </tspan></text>
        <text class="st2" transform="translate(248 59)"><tspan x="0" y="0">run: function</tspan></text>
        <text class="st3" transform="translate(357.2 59)"><tspan x="0" y="0"> </tspan></text>
        <text class="st2" transform="translate(248 74)"><tspan x="0" y="0">stop: function</tspan></text>
      </g>
      <g id="Animal.prototype" class="st1">
        <text class="st2" transform="translate(237 15)"><tspan x="0" y="0">Animal.prototype</tspan></text>
      </g>
      <path id="Rectangle-1-Copy-2" class="st0" d="M11,23h105v28H11v-28Z"/>
      <g id="Animal" class="st1">
        <text class="st2" transform="translate(10 15)"><tspan x="0" y="0">Animal</tspan></text>
      </g>
      <path id="Rectangle-1-Copy-3" class="st0" d="M439,168v28h-202v-28h202Z"/>
      <g id="new-Animal" class="st1">
        <text class="st2" transform="translate(239 160)"><tspan x="0" y="0">new Animal</tspan></text>
      </g>
      <path id="Line" class="st4" d="M326.5,98.5l7,14h-6v28h-2v-28h-6l7-14Z"/>
      <path id="Line-Copy" class="st4" d="M208.5,30l14,7-14,7v-6h-78.5v-2h78.5v-6Z"/>
      <g id="_x5B__x5B_Prototype_x5D__x5D_" class="st1">
        <text class="st2" transform="translate(336 122)"><tspan x="0" y="0">[[Prototype]]</tspan></text>
      </g>
      <g id="prototype" class="st1">
        <text class="st2" transform="translate(133 25)"><tspan x="0" y="0">prototype</tspan></text>
      </g>
      <g id="name:-_x22_My-animal_x22_" class="st1">
        <text class="st2" transform="translate(249 186)"><tspan x="0" y="0">name: &quot;Mit dyr&quot;</tspan></text>
      </g>
    </g>
  </g>
</svg>