<?xml version="1.0" encoding="UTF-8"?>
<svg id="Layer_1" xmlns="http://www.w3.org/2000/svg" version="1.1" viewBox="0 0 409 203">
  <!-- Generator: Adobe Illustrator 30.0.0, SVG Export Plug-In . SVG Version: 2.1.1 Build 123)  -->
  <defs>
    <style>
      .st0 {
        fill: #7e7c7b;
      }

      .st1, .st2, .st3 {
        isolation: isolate;
      }

      .st4 {
        fill: none;
        stroke: #c06334;
        stroke-linecap: square;
        stroke-width: 3px;
      }

      .st5 {
        fill: #181717;
      }

      .st2 {
        fill: #c06334;
      }

      .st2, .st3 {
        font-family: PTMono-Regular, 'PT Mono';
        font-size: 14px;
      }

      .st3 {
        fill: #643b0c;
      }

      .st6 {
        fill: #a7333a;
      }
    </style>
  </defs>
  <g id="dom">
    <g id="before-prepend-append-after.svg">
      <g id="_x3C_ol_x3E_-_x3C_li_x3E_0_x3C__x2F_li_x3E_-_x3C_li_x3E_">
        <path id="_x3C_" class="st0" d="M18.63,65.73v-.41l6.59-4.02.53.87-5.56,3.29,5.57,3.23-.53.84-6.61-3.81Z"/>
        <path id="ol" class="st6" d="M27.2,66.5c0-1.13.29-2.02.88-2.68.59-.66,1.43-.99,2.52-.99.59,0,1.09.1,1.52.29s.78.45,1.06.78c.28.33.49.71.62,1.16s.2.93.2,1.44c0,.56-.07,1.07-.22,1.52-.15.45-.37.84-.66,1.16-.29.32-.65.56-1.07.73-.46.18-.95.27-1.45.26-.58,0-1.08-.1-1.51-.29-.41-.18-.77-.44-1.06-.78-.29-.34-.5-.74-.62-1.16-.14-.47-.21-.95-.2-1.44ZM28.36,66.5c0,.33.04.65.12.98.08.33.21.62.39.88.18.26.41.47.69.63s.63.24,1.04.24c.75,0,1.31-.23,1.69-.69s.57-1.14.57-2.04c0-.34-.04-.66-.12-.99-.08-.31-.21-.61-.39-.88-.18-.26-.42-.48-.7-.63-.28-.16-.63-.24-1.04-.24-.75,0-1.31.23-1.68.69s-.56,1.14-.56,2.04ZM36.47,60.2h2.32v7.45c0,.57.1.97.29,1.2.19.23.47.35.85.35.26,0,.51-.05.75-.14s.5-.25.79-.48l.5.77c-.15.13-.31.25-.49.35-.34.2-.72.34-1.11.42-.48.09-.98.07-1.44-.08-.26-.08-.49-.23-.68-.43-.2-.22-.34-.49-.41-.78-.09-.32-.14-.72-.14-1.2v-6.51h-1.23v-.94Z"/>
        <path id="_x3E__x3C_" class="st0" d="M44.36,69.54l-.53-.84,5.57-3.23-5.56-3.29.53-.87,6.59,4.02v.41l-6.61,3.81ZM35.43,85.73v-.41l6.59-4.02.53.87-5.56,3.29,5.57,3.23-.53.84-6.61-3.81Z"/>
        <path id="li" class="st6" d="M44.87,80.2h2.32v7.45c0,.57.1.97.29,1.2.19.23.47.35.85.35.26,0,.51-.05.75-.14.24-.09.5-.25.79-.48l.5.77c-.15.13-.31.25-.49.35-.34.2-.72.34-1.11.42-.48.09-.98.07-1.44-.08-.26-.08-.49-.23-.68-.43-.2-.22-.34-.49-.41-.78-.09-.32-.14-.72-.14-1.2v-6.51h-1.23s0-.94,0-.94ZM53.07,90v-.94h2.44v-5.12h-2.44v-.94h3.56v6.06h2.38v.94s-5.94,0-5.94,0ZM55.13,81.01c0-.25.08-.47.25-.65.16-.18.4-.28.64-.27.27,0,.5.09.68.27.18.17.28.41.27.65,0,.24-.1.46-.27.62-.18.17-.43.26-.68.25-.24,0-.47-.08-.64-.25-.17-.16-.26-.38-.25-.62Z"/>
        <path id="_x3E_" class="st0" d="M61.16,89.54l-.53-.84,5.57-3.23-5.56-3.29.53-.87,6.59,4.02v.41l-6.61,3.81Z"/>
        <path id="_x30_" class="st5" d="M69.17,85.1c0-.79.07-1.5.21-2.14.14-.63.35-1.16.63-1.6.28-.43.63-.76,1.06-.99.43-.23.94-.34,1.53-.34.62,0,1.15.11,1.59.34.43.22.79.55,1.06.98.27.43.47.96.59,1.59.12.63.18,1.35.18,2.16,0,.72-.06,1.43-.21,2.14-.14.63-.35,1.16-.63,1.6-.28.43-.63.76-1.06.99-.43.23-.94.34-1.53.34s-1.14-.12-1.58-.37c-.44-.25-.8-.61-1.06-1.04-.28-.45-.47-.98-.6-1.6-.13-.68-.19-1.36-.18-2.05ZM74.87,85.1c0-.5-.03-.97-.08-1.41l-4.16,3.79c.16.53.4.96.71,1.27s.73.48,1.25.48c.82,0,1.41-.34,1.76-1.02.35-.68.53-1.72.53-3.11ZM70.33,85.1c0,.23,0,.46.02.67s.03.42.05.63l4.17-3.78c-.16-.5-.39-.91-.71-1.2s-.74-.45-1.27-.45c-.83,0-1.42.34-1.76,1.03-.34.69-.51,1.72-.51,3.1Z"/>
        <path id="_x3C__x2F_" class="st0" d="M77.43,85.73v-.41l6.59-4.02.53.87-5.56,3.29,5.57,3.23-.53.84-6.61-3.81ZM91.51,80.03l.88.39-5.11,11.54-.88-.39,5.11-11.54Z"/>
        <path id="li1" data-name="li" class="st6" d="M95.27,80.2h2.32v7.45c0,.57.1.97.29,1.2.19.23.47.35.85.35.26,0,.51-.05.75-.14.24-.09.5-.25.79-.48l.5.77c-.15.13-.31.25-.49.35-.34.2-.72.34-1.11.42-.48.09-.98.07-1.44-.08-.26-.08-.49-.23-.68-.43-.2-.22-.34-.49-.41-.78-.09-.32-.14-.72-.14-1.2v-6.51h-1.23s0-.94,0-.94ZM103.47,90v-.94h2.44v-5.12h-2.44v-.94h3.56v6.06h2.38v.94s-5.94,0-5.94,0ZM105.53,81.01c0-.25.08-.47.25-.65.16-.18.4-.28.64-.27.27,0,.5.09.68.27.18.17.28.41.27.65,0,.24-.1.46-.27.62-.18.17-.43.26-.68.25-.24,0-.47-.08-.64-.25-.17-.16-.26-.38-.25-.62Z"/>
        <path id="_x3E__x3C_1" data-name="_x3E__x3C_" class="st0" d="M111.56,89.54l-.53-.84,5.57-3.23-5.56-3.29.53-.87,6.59,4.02v.41l-6.61,3.81ZM35.43,105.73v-.41l6.59-4.02.53.87-5.56,3.29,5.57,3.23-.53.84-6.61-3.81Z"/>
        <path id="li2" data-name="li" class="st6" d="M44.87,100.2h2.32v7.45c0,.57.1.97.29,1.2.19.23.47.35.85.35.26,0,.51-.05.75-.14s.5-.25.79-.48l.5.77c-.15.13-.31.25-.49.35-.34.2-.72.34-1.11.42-.48.09-.98.07-1.44-.08-.26-.08-.49-.23-.68-.43-.2-.22-.34-.49-.41-.78-.09-.32-.14-.72-.14-1.2v-6.51h-1.23s0-.94,0-.94ZM53.07,110v-.94h2.44v-5.12h-2.44v-.94h3.56v6.06h2.38v.94s-5.94,0-5.94,0ZM55.13,101.01c0-.25.08-.47.25-.65.16-.18.4-.28.64-.27.27,0,.5.09.68.27.18.17.28.41.27.65,0,.24-.1.46-.27.62-.18.17-.43.26-.68.25-.24,0-.47-.08-.64-.25-.17-.16-.26-.38-.25-.62Z"/>
        <path id="_x3E_1" data-name="_x3E_" class="st0" d="M61.16,109.54l-.53-.84,5.57-3.23-5.56-3.29.53-.87,6.59,4.02v.41l-6.61,3.81Z"/>
        <path id="_x31_" class="st5" d="M70.18,108.99h2.2v-7.36l-2.24,1.57-.55-.8,3.08-2.2h.78v8.79h2.16v1.01h-5.43v-1.01Z"/>
        <path id="_x3C__x2F_1" data-name="_x3C__x2F_" class="st0" d="M77.43,105.73v-.41l6.59-4.02.53.87-5.56,3.29,5.57,3.23-.53.84-6.61-3.81ZM91.51,100.03l.88.39-5.11,11.54-.88-.39,5.11-11.54Z"/>
        <path id="li3" data-name="li" class="st6" d="M95.27,100.2h2.32v7.45c0,.57.1.97.29,1.2.19.23.47.35.85.35.26,0,.51-.05.75-.14s.5-.25.79-.48l.5.77c-.15.13-.31.25-.49.35-.34.2-.72.34-1.11.42-.48.09-.98.07-1.44-.08-.26-.08-.49-.23-.68-.43-.2-.22-.34-.49-.41-.78-.09-.32-.14-.72-.14-1.2v-6.51h-1.23s0-.94,0-.94ZM103.47,110v-.94h2.44v-5.12h-2.44v-.94h3.56v6.06h2.38v.94s-5.94,0-5.94,0ZM105.53,101.01c0-.25.08-.47.25-.65.16-.18.4-.28.64-.27.27,0,.5.09.68.27.18.17.28.41.27.65,0,.24-.1.46-.27.62-.18.17-.43.26-.68.25-.24,0-.47-.08-.64-.25-.17-.16-.26-.38-.25-.62Z"/>
        <path id="_x3E__x3C_2" data-name="_x3E__x3C_" class="st0" d="M111.56,109.54l-.53-.84,5.57-3.23-5.56-3.29.53-.87,6.59,4.02v.41s-6.61,3.81-6.61,3.81ZM35.43,125.73v-.41l6.59-4.02.53.87-5.56,3.29,5.57,3.23-.53.84-6.61-3.81Z"/>
        <path id="li4" data-name="li" class="st6" d="M44.87,120.2h2.32v7.45c0,.57.1.97.29,1.2.19.23.47.35.85.35.26,0,.51-.05.75-.14s.5-.25.79-.48l.5.77c-.15.13-.31.25-.49.35-.34.2-.72.34-1.11.42-.48.09-.98.07-1.44-.08-.26-.08-.49-.23-.68-.43-.2-.22-.34-.49-.41-.78-.09-.32-.14-.72-.14-1.2v-6.51h-1.23s0-.94,0-.94ZM53.07,130v-.94h2.44v-5.12h-2.44v-.94h3.56v6.06h2.38v.94s-5.94,0-5.94,0ZM55.13,121.01c0-.25.08-.47.25-.65.16-.18.4-.28.64-.27.27,0,.5.09.68.27.18.17.28.41.27.65,0,.24-.1.46-.27.62-.18.17-.43.26-.68.25-.24,0-.47-.08-.64-.25-.17-.16-.26-.38-.25-.62Z"/>
        <path id="_x3E_2" data-name="_x3E_" class="st0" d="M61.16,129.54l-.53-.84,5.57-3.23-5.56-3.29.53-.87,6.59,4.02v.41l-6.61,3.81Z"/>
        <path id="_x32_" class="st5" d="M75.4,122.68c0,.86-.41,1.81-1.22,2.87s-1.95,2.2-3.4,3.44h4.93v1.01h-6.22v-1.01c.18-.17.42-.39.73-.66.31-.27.64-.57.99-.9.37-.35.73-.7,1.08-1.07.37-.38.7-.78,1-1.18s.54-.8.73-1.2c.18-.36.27-.76.28-1.16,0-.56-.15-1-.44-1.32-.29-.32-.74-.48-1.32-.48-.5,0-.93.06-1.27.17-.34.11-.66.27-.94.49l-.48-.77c.42-.3.87-.52,1.34-.66s.99-.21,1.55-.21c.88,0,1.54.24,1.99.71.45.48.67,1.12.67,1.93Z"/>
        <path id="_x3C__x2F_2" data-name="_x3C__x2F_" class="st0" d="M77.43,125.73v-.41l6.59-4.02.53.87-5.56,3.29,5.57,3.23-.53.84-6.61-3.81ZM91.51,120.03l.88.39-5.11,11.54-.88-.39s5.11-11.54,5.11-11.54Z"/>
        <path id="li5" data-name="li" class="st6" d="M95.27,120.2h2.32v7.45c0,.57.1.97.29,1.2.19.23.47.35.85.35.26,0,.51-.05.75-.14s.5-.25.79-.48l.5.77c-.15.13-.31.25-.49.35-.34.2-.72.34-1.11.42-.48.09-.98.07-1.44-.08-.26-.08-.49-.23-.68-.43-.2-.22-.34-.49-.41-.78-.09-.32-.14-.72-.14-1.2v-6.51h-1.23s0-.94,0-.94ZM103.47,130v-.94h2.44v-5.12h-2.44v-.94h3.56v6.06h2.38v.94s-5.94,0-5.94,0ZM105.53,121.01c0-.25.08-.47.25-.65.16-.18.4-.28.64-.27.27,0,.5.09.68.27.18.17.28.41.27.65,0,.24-.1.46-.27.62-.18.17-.43.26-.68.25-.24,0-.47-.08-.64-.25-.17-.16-.26-.38-.25-.62Z"/>
        <path id="_x3E__x3C__x2F_" class="st0" d="M111.56,129.54l-.53-.84,5.57-3.23-5.56-3.29.53-.87,6.59,4.02v.41l-6.61,3.81ZM18.63,145.73v-.41l6.59-4.02.53.87-5.56,3.29,5.57,3.23-.53.84-6.61-3.81ZM32.71,140.03l.88.39-5.11,11.54-.88-.39,5.11-11.54Z"/>
        <path id="ol1" data-name="ol" class="st6" d="M35.6,146.5c0-1.13.29-2.02.88-2.68s1.43-.99,2.52-.99c.59,0,1.09.1,1.52.29s.78.45,1.06.78c.28.33.49.71.62,1.16.14.45.2.93.2,1.44,0,.56-.08,1.07-.22,1.52-.15.45-.37.84-.66,1.15-.29.32-.65.56-1.07.74-.46.18-.95.27-1.45.26-.58,0-1.08-.1-1.51-.29-.41-.18-.77-.44-1.06-.78-.29-.34-.5-.74-.62-1.16-.14-.47-.21-.95-.2-1.44ZM36.76,146.5c0,.33.04.65.12.98.08.33.21.62.39.88.18.26.41.47.69.63.28.16.63.24,1.04.24.75,0,1.31-.23,1.69-.69s.57-1.14.57-2.04c0-.34-.04-.67-.12-.99-.08-.31-.21-.61-.39-.88-.18-.26-.42-.48-.7-.63-.28-.16-.63-.24-1.04-.24-.75,0-1.31.23-1.68.69-.37.46-.56,1.14-.56,2.04ZM44.87,140.2h2.32v7.45c0,.57.1.97.29,1.2.19.23.47.35.85.35.26,0,.51-.05.75-.14s.5-.25.79-.48l.5.77c-.15.13-.31.25-.49.35-.34.2-.72.34-1.11.42-.48.09-.98.07-1.44-.08-.26-.08-.49-.23-.68-.43-.2-.22-.34-.49-.41-.78-.09-.32-.14-.72-.14-1.2v-6.51h-1.23s0-.94,0-.94Z"/>
        <path id="_x3E_3" data-name="_x3E_" class="st0" d="M52.76,149.54l-.53-.84,5.57-3.23-5.56-3.29.53-.87,6.59,4.02v.41l-6.61,3.81Z"/>
      </g>
      <g id="Line-Copy-5-_x2B_-Line-Copy-4-_x2B_-Line-Copy-3">
        <path id="Line-Copy-5" class="st4" d="M220.88,148.03s4.12,30.36-80.62,30.36-94.72-15.18-94.72-15.18"/>
        <path id="Line" class="st4" d="M43.5,162.5h17"/>
        <path id="Line-Copy" class="st4" d="M43.5,162.5l5,15"/>
      </g>
      <g id="Line-Copy-5-_x2B_-Line-Copy-4-_x2B_-Line-Copy-3-Copy-Copy">
        <path id="Line-Copy-51" data-name="Line-Copy-5" class="st4" d="M224.26,118.26s-7.59,21.2-93.12,21.2H63.9"/>
        <path id="Line1" data-name="Line" class="st4" d="M62.34,139.41l12.16-6.91"/>
        <path id="Line-Copy1" data-name="Line-Copy" class="st4" d="M62.51,139.48l11.99,6.02"/>
      </g>
      <g id="Line-Copy-5-_x2B_-Line-Copy-4-_x2B_-Line-Copy-3-Copy-Copy-Copy">
        <path id="Line-Copy-52" data-name="Line-Copy-5" class="st4" d="M224.26,95.74s-7.59-21.2-93.12-21.2H63.9"/>
        <path id="Line2" data-name="Line" class="st4" d="M62.34,74.59l12.16,6.91"/>
        <path id="Line-Copy2" data-name="Line-Copy" class="st4" d="M62.51,74.52l11.99-6.02"/>
      </g>
      <path id="Line-Copy-3" class="st4" d="M45.5,49.5l5-14"/>
      <path id="Line-Copy-2" class="st4" d="M45.5,49.5h14"/>
      <g id="ol.after" class="st1">
        <text class="st2" transform="translate(113 193)"><tspan x="0" y="0">ol.after</tspan></text>
      </g>
      <g id="ol.append" class="st1">
        <text class="st2" transform="translate(113 156)"><tspan x="0" y="0">ol.append</tspan></text>
      </g>
      <g id="ol.prepend" class="st1">
        <text class="st2" transform="translate(113 66)"><tspan x="0" y="0">ol.prepend</tspan></text>
      </g>
      <g id="Line-Copy-5-_x2B_-Line-Copy-4-_x2B_-Line-Copy-3-Copy">
        <path id="Line-Copy-53" data-name="Line-Copy-5" class="st4" d="M221.88,63.97s4.12-30.36-80.62-30.36-94.72,15.18-94.72,15.18"/>
      </g>
      <g id="ol.before" class="st1">
        <text class="st2" transform="translate(111 26)"><tspan x="0" y="0">ol.before</tspan></text>
      </g>
      <g id="_x28__x2026_nodes-or-strings_x29_" class="st1">
        <text class="st3" transform="translate(198 112)"><tspan x="0" y="0">(…noder eller strenge)</tspan></text>
      </g>
    </g>
  </g>
</svg>