<?xml version="1.0" encoding="UTF-8"?>
<svg id="Layer_1" xmlns="http://www.w3.org/2000/svg" version="1.1" viewBox="0 0 659 350">
  <!-- Generator: Adobe Illustrator 30.0.0, SVG Export Plug-In . SVG Version: 2.1.1 Build 123)  -->
  <defs>
    <style>
      .st0 {
        stroke: #dbaf88;
      }

      .st0, .st1 {
        fill: #fbf2ec;
      }

      .st0, .st1, .st2, .st3 {
        fill-rule: evenodd;
      }

      .st0, .st1, .st3 {
        stroke-width: 2px;
      }

      .st1 {
        stroke: #478964;
      }

      .st4, .st5, .st6, .st7, .st8, .st9 {
        font-family: PTMono-Regular, 'PT Mono';
      }

      .st4, .st6, .st7, .st8, .st9 {
        font-size: 14px;
      }

      .st4, .st8 {
        fill: #478964;
      }

      .st2 {
        fill: #7e7c7b;
      }

      .st5 {
        font-size: 13px;
      }

      .st5, .st10, .st6, .st8, .st9 {
        isolation: isolate;
      }

      .st5, .st6, .st7 {
        fill: #af6e24;
      }

      .st11, .st9 {
        fill: #c06334;
      }

      .st3 {
        fill: #fef1f0;
        stroke: #d35155;
      }
    </style>
  </defs>
  <g id="promise">
    <g id="promise-handler-variants.svg">
      <path id="Line-Copy" class="st11" d="M488.23,187.4l1.19.92,38.37,29.68,4.9-6.33,9.22,19.14-20.84-4.11,4.89-6.33-38.37-29.68-1.19-.92,1.83-2.37h0Z"/>
      <path id="Line-Copy-3" class="st11" d="M345,188v28h8l-9.5,19-9.5-19h8v-28h3Z"/>
      <path id="Line-Copy-2" class="st11" d="M212.77,187.4l1.84,2.37-1.19.92-38.37,29.68,4.9,6.33-20.84,4.11,9.21-19.14,4.89,6.33,38.37-29.68,1.19-.92Z"/>
      <g id="return-value" class="st10">
        <text class="st5" transform="translate(128 173)"><tspan x="0" y="0">return value</tspan></text>
      </g>
      <g id="return-promise" class="st10">
        <text class="st5" transform="translate(447 173)"><tspan x="0" y="0">return promise</tspan></text>
      </g>
      <g id="throw-error" class="st10">
        <text class="st5" transform="translate(301 173)"><tspan x="0" y="0">throw error</tspan></text>
      </g>
      <path id="Rectangle-1-Copy" class="st1" d="M20,264h178v64H20v-64Z"/>
      <g id="state:-_x22_fulfilled_x22_-r" class="st10">
        <text class="st8" transform="translate(35 288)"><tspan x="0" y="0">state: &quot;fulfilled&quot;</tspan></text>
        <text class="st4" transform="translate(186.2 288)"><tspan x="0" y="0"> </tspan></text>
        <text class="st8" transform="translate(35 308)"><tspan x="0" y="0">result: value</tspan></text>
      </g>
      <path id="Rectangle-1-Copy-3" class="st3" d="M255,264h178v64h-178v-64Z"/>
      <g id="state:-_x22_rejected_x22_-re" class="st10">
        <text class="st6" transform="translate(268 288)"><tspan x="0" y="0">state: &quot;rejected&quot;</tspan></text>
        <text class="st7" transform="translate(410.8 288)"><tspan x="0" y="0"> </tspan></text>
        <text class="st6" transform="translate(268 308)"><tspan x="0" y="0">result: error</tspan></text>
      </g>
      <g id="noun_88566_cc-copy">
        <path id="Shape" class="st2" d="M574.79,276.59c0-.62-.02-1.36-.12-2.13-.1-.68-.28-1.35-.54-1.99-.15-.35-.32-.69-.51-1.02-.28-.48-1.7-2.14-5.06-5.93-.31-.34-.52-.59-.6-.68l-.25-.29c-.11-.13-.22-.26-.32-.39-.03-.04-.06-.08-.09-.13-.1-.13-.18-.27-.25-.41-.06-.11-.1-.24-.13-.36-.02-.16-.02-.32-.01-.48v-.06c0-.19,0-.36.04-.49.03-.12.09-.24.16-.34.11-.18.23-.36.36-.52.12-.16.26-.31.4-.47l.1-.12c.08-.09.3-.34.6-.68,3.36-3.79,4.78-5.45,5.06-5.93.2-.34.37-.68.51-1.02.26-.63.44-1.3.54-1.99.11-.77.12-1.51.12-2.13,0-1.01,0-2.61,0-3.73.03-.11.04-.22.04-.34,0-2.45-5.84-3.77-11.33-3.77-5.49,0-11.33,1.32-11.33,3.77,0,.11.02.22.04.33,0,1.13,0,2.73,0,3.74,0,.59.02,1.36.12,2.13.1.69.28,1.36.54,1.99.14.33.31.68.51,1.02.28.48,1.7,2.14,5.06,5.93.3.34.52.59.6.68l.1.11c.14.16.28.32.4.47.13.16.25.35.36.52.09.14.14.24.16.34.03.13.03.29.04.49v.05c0,.18,0,.34-.01.48-.02.13-.07.25-.13.36-.06.12-.14.25-.25.41-.08.11-.16.22-.25.32-.05.07-.11.13-.17.2l-.17.19c-5.32,5.99-5.64,6.53-5.75,6.71-.2.34-.37.68-.51,1.02-.26.63-.44,1.3-.54,1.99-.11.77-.12,1.54-.12,2.13,0,1.12,0,2.95,0,4.07,0,2.88,5.85,4.19,11.29,4.19s11.29-1.31,11.29-4.19v-.56s0-3.52,0-3.52h0ZM573.26,280.67v.03c-.08.77-3.4,2.49-9.75,2.49s-9.75-1.76-9.75-2.52c0-1.12,0-2.95,0-4.07,0-.56.01-1.22.11-1.88.08-.54.22-1.06.42-1.55.11-.26.24-.53.4-.8.09-.15.76-1.05,5.56-6.45l.18-.2c.13-.16.26-.31.39-.48l.12-.17c.11-.16.27-.39.4-.67.14-.28.24-.59.28-.9.03-.27.03-.52.03-.74v-.05c0-.3-.03-.59-.09-.88-.08-.31-.21-.61-.39-.88-.14-.23-.3-.45-.47-.67-.15-.18-.3-.36-.45-.53l-.1-.11c-.08-.09-.3-.34-.61-.69-3.02-3.4-4.66-5.31-4.87-5.67-.15-.26-.29-.53-.4-.8-.2-.5-.35-1.02-.42-1.55-.09-.66-.11-1.32-.11-1.88v-2.08c2.11,1.17,6.01,1.78,9.75,1.78s7.65-.62,9.75-1.78v2.08c0,.56-.02,1.22-.11,1.88-.07.53-.22,1.05-.42,1.55-.11.26-.24.53-.4.8-.22.36-1.86,2.27-4.88,5.67-.31.35-.53.6-.61.69l-.1.12c-.15.17-.3.34-.44.52-.17.21-.32.44-.46.67-.19.3-.32.59-.39.88-.06.29-.09.59-.09.88v.05c0,.22,0,.47.03.74.05.37.18.67.28.9.13.28.29.51.4.67.16.22.33.44.51.64l.26.29c.08.09.3.34.61.69,3.02,3.4,4.66,5.31,4.87,5.67.16.27.3.54.4.8.2.49.34,1.01.42,1.55.09.66.1,1.32.11,1.88,0,1.12,0,2.95,0,4.07Z"/>
        <path id="Shape1" data-name="Shape" class="st2" d="M571.63,277.87c-.07-.08-.14-.17-.21-.25-.31-.38-.65-.73-1.02-1.06-.36-.31-.75-.59-1.17-.83-.85-.49-1.75-.91-2.67-1.24-.23-.08-.45-.16-.68-.25-.24-.09-.48-.18-.71-.3-.18-.1-.35-.22-.51-.36-.28-.25-.51-.55-.7-.88-.2-.35-.4-.76-.46-1.18-.06.42-.26.83-.46,1.18-.19.33-.42.63-.7.88-.15.14-.33.26-.51.36-.23.12-.47.21-.71.3-.23.09-.45.17-.68.25-.93.33-1.82.75-2.67,1.24-.41.24-.8.52-1.17.83-.37.32-.7.68-1.02,1.06-.15.18-.3.36-.43.54-.09.12-.16.24-.22.38,0,1.51,3.83,2.73,8.56,2.73s8.56-1.22,8.56-2.73h.01c-.06-.13-.13-.26-.22-.38-.07-.1-.15-.2-.23-.3h0ZM562.49,259.39c.11.1.21.23.31.39.17.27.31.58.42.94.14.41.23.83.28,1.26.05-.43.14-.85.28-1.26.11-.35.26-.67.42-.94.09-.15.2-.28.31-.39.14-.13.29-.22.43-.32.14-.09.27-.18.41-.27.28-.18.56-.37.83-.6.27-.22.53-.46.79-.73.25-.26.49-.55.71-.89.22-.34.42-.73.62-1.13.09-.19.18-.39.26-.58.05-.12.1-.26.13-.4,0-1.61-2.33-2.92-5.2-2.92s-5.2,1.31-5.2,2.92h0c.03.15.08.28.13.4.08.2.17.39.26.58.2.4.4.79.62,1.13.22.34.46.63.71.89.26.27.52.51.79.73.27.22.55.42.83.6.14.09.27.17.41.27.15.1.3.19.43.32Z"/>
      </g>
      <g id="_x2E_..with-the-result-o" class="st10">
        <text class="st6" transform="translate(484 306)"><tspan x="0" y="0">... med resultatet</tspan></text>
        <text class="st7" transform="translate(645.2 323)"><tspan x="0" y="0"> </tspan></text>
        <text class="st6" transform="translate(484 321)"><tspan x="0" y="0">af et nyt promise...</tspan></text>
      </g>
      <path id="Rectangle-1-Copy-2" class="st0" d="M248,34h191v64h-191V34Z"/>
      <g id="state:-_x22_pending_x22_-res" class="st10">
        <text class="st6" transform="translate(272 58)"><tspan x="0" y="0">state: &quot;pending&quot;</tspan></text>
        <text class="st7" transform="translate(406.4 58)"><tspan x="0" y="0"> </tspan></text>
        <text class="st6" transform="translate(272 78)"><tspan x="0" y="0">result: undefined</tspan></text>
      </g>
      <g id="the-call-of-.then_x28_ha" class="st10">
        <text class="st6" transform="translate(125 15)"><tspan x="0" y="0">kaldet til .then(handler) returnerer altid et promise:</tspan></text>
      </g>
      <g id="if-handler-ends-with" class="st10">
        <text class="st9" transform="translate(255 132)"><tspan x="0" y="0">hvis handler ender med …</tspan></text>
      </g>
      <g id="that-promise-settles" class="st10">
        <text class="st9" transform="translate(234 252)"><tspan x="0" y="0">vil promise afslutte med:</tspan></text>
      </g>
    </g>
  </g>
</svg>