<?xml version="1.0" encoding="UTF-8"?>
<svg id="Layer_1" xmlns="http://www.w3.org/2000/svg" version="1.1" viewBox="0 0 440 316">
  <!-- Generator: Adobe Illustrator 30.0.0, SVG Export Plug-In . SVG Version: 2.1.1 Build 123)  -->
  <defs>
    <style>
      .st0, .st1 {
        font-family: PTMono-Regular, 'PT Mono';
      }

      .st0, .st1, .st2 {
        font-size: 12px;
      }

      .st0, .st1, .st2, .st3 {
        isolation: isolate;
      }

      .st0, .st4 {
        fill: #c06334;
      }

      .st5 {
        fill: #fbf2ec;
        fill-rule: evenodd;
        stroke: #dbaf88;
      }

      .st5, .st6 {
        stroke-width: 2px;
      }

      .st1, .st2 {
        fill: #af6e24;
      }

      .st2 {
        font-family: OpenSans, 'Open Sans';
      }

      .st6 {
        fill: none;
        stroke: #af6e24;
        stroke-linecap: square;
      }
    </style>
  </defs>
  <g id="dom">
    <g id="dom-links-elements.svg">
      <path id="Rectangle-8" class="st5" d="M129,10h198v28h-198V10Z"/>
      <g id="document.documentEle" class="st3">
        <text class="st1" transform="translate(142.6 29)"><tspan x="0" y="0">document.documentElement</tspan></text>
      </g>
      <g id="Type-something" class="st3">
        <text class="st1" transform="translate(336.9 29)"><tspan x="0" y="0">&lt;HTML&gt;</tspan></text>
      </g>
      <path id="Rectangle-7" class="st5" d="M163,78h117v28h-117v-28Z"/>
      <g id="document.body--" class="st3">
        <text class="st1" transform="translate(174.2 95)"><tspan x="0" y="0">document.body</tspan></text>
      </g>
      <g id="_x28_if-inside-body_x29_" class="st3">
        <text class="st1" transform="translate(300.9 95)"><tspan x="0" y="0">(hvis inde i body)</tspan></text>
      </g>
      <path id="Line-5" class="st6" d="M14.5,115h412.5"/>
      <g id="parentElement" class="st3">
        <text class="st1" transform="translate(175 172)"><tspan x="0" y="0">parent</tspan></text>
        <text class="st0" transform="translate(218.2 172)"><tspan x="0" y="0">Element</tspan></text>
      </g>
      <path id="Rectangle-6" class="st5" d="M180,213h80v28h-80v-28Z"/>
      <g id="_x3C_DIV_x3E_" class="st3">
        <text class="st2" transform="translate(204.19 232)"><tspan x="0" y="0">&lt;DIV&gt;</tspan></text>
      </g>
      <path id="Line-6" class="st4" d="M220.5,178.71l.87,1.55,6.75,12,.49.87-1.74.98-.49-.87-4.88-8.67v23.93h-2v-23.93l-4.88,8.67-.49.87-1.74-.98.49-.87,6.75-12,.87-1.55h0Z"/>
      <path id="Line-7" class="st4" d="M415.37,218.39l.87.49,12,6.75,1.55.87-1.55.87-12,6.75-.87.49-.98-1.74.87-.49,8.67-4.88h-157.43v-2h157.43l-8.67-4.88-.87-.49.98-1.74h0Z"/>
      <g id="nextElementSibling" class="st3">
        <text class="st1" transform="translate(276 212)"><tspan x="0" y="0">next</tspan></text>
        <text class="st0" transform="translate(304.8 212)"><tspan x="0" y="0">Element</tspan></text>
        <text class="st1" transform="translate(355.2 212)"><tspan x="0" y="0">Sibling</tspan></text>
      </g>
      <path id="Line-8" class="st4" d="M23.63,218.39l.98,1.74-.87.49-8.67,4.88h153.93v2H15.07l8.67,4.88.87.49-.98,1.74-.87-.49-12-6.75-1.55-.87,1.55-.87,12-6.75.87-.49h0Z"/>
      <g id="previousElementSibli" class="st3">
        <text class="st1" transform="translate(6 212)"><tspan x="0" y="0">previous</tspan></text>
        <text class="st0" transform="translate(63.6 212)"><tspan x="0" y="0">Element</tspan></text>
        <text class="st1" transform="translate(114 212)"><tspan x="0" y="0">Sibling</tspan></text>
      </g>
      <path id="Line" class="st4" d="M174.82,248.12l1.05,1.7-.85.53-48.48,30.09-6.92,4.29,9.94-.43,1-.04.09,2-1,.04-13.75.59-1.78.08.86-1.56,6.64-12.06.48-.88,1.75.96-.48.88-4.8,8.72,6.92-4.29,48.48-30.09.85-.53h0Z"/>
      <path id="Line-3" class="st4" d="M269.21,248.12l.83.55,46.16,30.35,6.78,4.46-4.57-8.84-.46-.89,1.78-.92.46.89,6.32,12.23.82,1.58-1.77-.12-13.73-.95-1-.07.14-1.99,1,.07,9.93.69-6.78-4.46-46.16-30.35-.84-.55,1.1-1.67h0Z"/>
      <g id="children" class="st3">
        <text class="st0" transform="translate(188 273)"><tspan x="0" y="0">children</tspan></text>
      </g>
      <g id="firstElementChild--" class="st3">
        <text class="st1" transform="translate(43 307)"><tspan x="0" y="0">first</tspan></text>
        <text class="st0" transform="translate(79 307)"><tspan x="0" y="0">Element</tspan></text>
        <text class="st1" transform="translate(129.4 307)"><tspan x="0" y="0">Child</tspan></text>
      </g>
      <g id="lastElementChild" class="st3">
        <text class="st1" transform="translate(273 307)"><tspan x="0" y="0">last</tspan></text>
        <text class="st0" transform="translate(301.8 307)"><tspan x="0" y="0">Element</tspan></text>
        <text class="st1" transform="translate(352.2 307)"><tspan x="0" y="0">Child</tspan></text>
      </g>
      <path id="Line-Copy-2" class="st4" d="M222.5,151.5v4h-2v-4h2ZM222.5,145.5v4h-2v-4h2ZM222.5,139.5v4h-2v-4h2ZM221.5,125.21l.87,1.55,6.75,12,.49.87-1.74.98-.49-.87-4.88-8.68v.43s-2,0-2,0v-.43s-4.88,8.67-4.88,8.67l-.49.87-1.74-.98.49-.87,6.75-12,.87-1.55h0ZM222.5,133.5v4h-2v-4h2Z"/>
      <path id="Line-2-Copy" class="st4" d="M221.5,44.71l.87,1.55,6.75,12,.49.87-1.74.98-.49-.87-4.88-8.67v21.53h-2v-21.53l-4.88,8.67-.49.87-1.74-.98.49-.87,6.75-12,.87-1.55h0Z"/>
    </g>
  </g>
</svg>