<?xml version="1.0" encoding="UTF-8"?>
<svg id="Layer_1" xmlns="http://www.w3.org/2000/svg" version="1.1" viewBox="0 0 420 388">
  <!-- Generator: Adobe Illustrator 30.0.0, SVG Export Plug-In . SVG Version: 2.1.1 Build 123)  -->
  <defs>
    <style>
      .st0 {
        fill: #fbf2ec;
        fill-rule: evenodd;
        stroke: #dbaf88;
      }

      .st0, .st1 {
        stroke-width: 2px;
      }

      .st2 {
        font-family: PTMono-Regular, 'PT Mono';
      }

      .st2, .st3 {
        fill: #af6e24;
        font-size: 12px;
      }

      .st2, .st3, .st4 {
        isolation: isolate;
      }

      .st3 {
        font-family: OpenSans, 'Open Sans';
      }

      .st5 {
        fill: #c06334;
      }

      .st1 {
        fill: none;
        stroke: #af6e24;
        stroke-linecap: square;
      }
    </style>
  </defs>
  <g id="dom">
    <g id="dom-links.svg">
      <path id="Rectangle-9" class="st0" d="M150,20h117v28h-117v-28Z"/>
      <path id="Rectangle-7" class="st0" d="M151,154h117v28h-117v-28Z"/>
      <path id="Rectangle-8" class="st0" d="M117,87h198v28H117v-28Z"/>
      <g id="document" class="st4">
        <text class="st2" transform="translate(179.7 38)"><tspan x="0" y="0">document</tspan></text>
      </g>
      <g id="document.documentEle" class="st4">
        <text class="st2" transform="translate(129.6 105)"><tspan x="0" y="0">document.documentElement</tspan></text>
      </g>
      <g id="Type-something" class="st4">
        <text class="st2" transform="translate(324.9 105)"><tspan x="0" y="0">&lt;HTML&gt;</tspan></text>
      </g>
      <g id="document.body--" class="st4">
        <text class="st2" transform="translate(164.2 173)"><tspan x="0" y="0">document.body</tspan></text>
      </g>
      <g id="_x28_if-inside-body_x29_" class="st4">
        <text class="st2" transform="translate(283.9 173)"><tspan x="0" y="0">(hvis inde i body)</tspan></text>
      </g>
      <path id="Line" class="st5" d="M209.5,119.71l.87,1.55,6.75,12,.49.87-1.74.98-.49-.87-4.88-8.67v23.79h-2v-23.79l-4.88,8.67-.49.87-1.74-.98.49-.87,6.75-12,.87-1.55h0Z"/>
      <path id="Line-2" class="st5" d="M209.5,52.71l.87,1.55,6.75,12,.49.87-1.74.98-.49-.87-4.88-8.67v21.53h-2v-21.53l-4.88,8.67-.49.87-1.74-.98.49-.87,6.75-12,.87-1.55h0Z"/>
      <path id="Line1" data-name="Line" class="st1" d="M2.5,191h412.5"/>
      <g id="parentNode" class="st4">
        <text class="st2" transform="translate(172 248)"><tspan x="0" y="0">parentNode</tspan></text>
      </g>
      <path id="Rectangle-6" class="st0" d="M169,289h80v28h-80v-28Z"/>
      <g id="_x3C_DIV_x3E_" class="st4">
        <text class="st3" transform="translate(192.19 308)"><tspan x="0" y="0">&lt;DIV&gt;</tspan></text>
      </g>
      <path id="Line2" data-name="Line" class="st5" d="M208.5,254.21l.87,1.55,6.75,12,.49.87-1.74.98-.49-.87-4.88-8.68v8.18s0,16.25,0,16.25h-2v-24.43s-4.88,8.67-4.88,8.67l-.49.87-1.74-.98.49-.87,6.75-12,.87-1.55h0Z"/>
      <path id="Line-Copy" class="st5" d="M209.5,226.5v4h-2v-4h2ZM209.5,220.5v4h-2v-4h2ZM209.5,214.5v4h-2v-4h2ZM208.5,200.21l.87,1.55,6.75,12,.49.87-1.74.98-.49-.87-4.88-8.68v.43s-2,0-2,0v-.43s-4.88,8.67-4.88,8.67l-.49.87-1.74-.98.49-.87,6.75-12,.87-1.55h0ZM209.5,208.5v4h-2v-4h2Z"/>
      <path id="Line3" data-name="Line" class="st5" d="M356.37,294.39l.87.49,12,6.75,1.55.87-1.55.87-12,6.75-.87.49-.98-1.74.87-.49,8.67-4.88h-110.43v-2h110.43l-8.67-4.88-.87-.49.98-1.74h0Z"/>
      <g id="nextSibling" class="st4">
        <text class="st2" transform="translate(264 288)"><tspan x="0" y="0">nextSibling</tspan></text>
      </g>
      <path id="Line4" data-name="Line" class="st5" d="M61.63,294.39l.98,1.74-.87.49-8.67,4.88h112.43v2H53.07l8.67,4.88.87.49-.98,1.74-.87-.49-12-6.75-1.55-.87,1.55-.87,12-6.75.87-.49h0Z"/>
      <g id="previousSibling" class="st4">
        <text class="st2" transform="translate(50 288)"><tspan x="0" y="0">previousSibling</tspan></text>
      </g>
      <path id="Line5" data-name="Line" class="st5" d="M162.82,324.12l1.05,1.7-.85.53-48.48,30.09-6.92,4.29,9.94-.43,1-.04.08,2-1,.04-13.75.59-1.78.08.86-1.56,6.64-12.06.48-.88,1.75.96-.48.88-4.8,8.72,6.92-4.29,48.48-30.09.85-.53h0Z"/>
      <path id="Line-3" class="st5" d="M257.21,324.11l.83.55,46.16,30.35,6.78,4.46-4.57-8.84-.46-.89,1.78-.92.46.89,6.32,12.23.82,1.58-1.77-.12-13.73-.95-1-.07.14-1.99,1,.07,9.93.69-6.78-4.46-46.16-30.35-.84-.55,1.1-1.67Z"/>
      <g id="childNodes" class="st4">
        <text class="st2" transform="translate(170 343)"><tspan x="0" y="0">childNodes</tspan></text>
      </g>
      <g id="firstChild--" class="st4">
        <text class="st2" transform="translate(64 379)"><tspan x="0" y="0">firstChild</tspan></text>
      </g>
      <g id="Type-something1" data-name="Type-something" class="st4">
        <text class="st2" transform="translate(279 379)"><tspan x="0" y="0">lastChild</tspan></text>
      </g>
    </g>
  </g>
</svg>